<?xml version="1.0" encoding="utf-8"?>
<svg xmlns="http://www.w3.org/2000/svg" xmlns:xlink="http://www.w3.org/1999/xlink"
	 viewBox="0 0 300 300" style="enable-background:new 0 0 300 300;" xml:space="preserve">
<style type="text/css">
	.st0{fill:#FFFFFF;}
</style>
<g>
	<path class="st0" d="M149.8,168.5c0-2.3,0-4.5,0-6.8l0.1-0.2c2.6,0.4,5.1-0.2,7.6-0.7c25.3-4.3,42.6-27.9,38.8-53.2
		c-3.4-22.6-23.6-40.2-46.4-39.7c0-0.2,0-0.4,0-0.6c0-22.5,0-44.9,0.1-67.4c3.4,0.1,6.8,0.2,10.2,0.4c10.6,0.6,20.8,2.4,31,5.4
		c25.8,7.5,48,20.7,66.7,40c12.1,12.5,21.6,26.6,28.9,42.3c5.8,12.7,9.9,26,11.7,39.9c0.5,4,1.2,8,1.7,12c0,6.2,0,12.5,0,18.7
		c-0.6,0.5-0.5,1.2-0.6,1.9c-0.7,15-4.2,29.4-9.5,43.4c-8.7,22.6-22.3,41.8-40.3,58c-6,5.4-12.4,10.4-19.4,14.5
		c0-6.3,0.1-12.7-0.1-19c-0.3-14.4,0.8-28.8-0.6-43.2c-1.1-12-6.5-22.2-14.9-30.6c-10.1-10-22.6-14.6-36.7-14.8
		c-9.4-0.1-18.8,0-28.1,0.1L149.8,168.5z"/>
	<path class="st0" d="M69.3,276.3c0-19-0.2-38,0.1-57c0.4-18.8,9-33.2,24.9-43.3c8.5-5.3,17.8-7.6,27.8-7.5c9.2,0.1,18.3,0,27.5-0.1
		l0.1,0.2c0,43.7,0,87.4-0.1,131.1c-3.9,0-7.9,0-11.7,0c-0.4-0.5-1-0.5-1.6-0.6c-11.4-0.7-22.5-3.1-33.3-6.7
		C91.2,288.6,79.8,283.5,69.3,276.3z"/>
	<path class="st0" d="M149.8,67.3c0,0.2,0,0.4,0,0.6c0,31.2,0,62.4,0.1,93.6l-0.1,0.2c-12.7-0.2-23.7-4.5-32.7-13.4
		c-7.3-7-12.1-15.7-13.6-25.9c-2.1-13.6,0.7-26,9.4-36.8c8.5-10.6,19.4-16.9,33.2-17.8C147.3,67.7,148.5,67.4,149.8,67.3z"/>
</g>
</svg>
