<?xml version="1.0" encoding="utf-8"?>
<svg xmlns="http://www.w3.org/2000/svg" 
	viewBox="0 0 1050 1000" 
>
<style type="text/css">
	.st0{fill:#04000E;}
	.st1{fill:#BBAA96;}
	.st2{fill:#B7A692;}
	.st3{fill:#534039;}
	.st4{fill:#2A1E1D;}
	.st5{fill:#1B141C;}
	.st6{fill:#21161C;}
	.st7{fill:#160E1B;}
	.st8{fill:#110E2B;}
	.st9{fill:#493723;}
	.st10{fill:#211217;}
	.st11{fill:#2D1F1F;}
	.st12{fill:#4A3824;}
	.st13{fill:#05010F;}
	.st14{fill:#070210;}
	.st15{fill:#06020F;}
	.st16{fill:#4C3B28;}
	.st17{fill:#A89785;}
	.st18{fill:#1A131A;}
	.st19{fill:#21091F;}
	.st20{fill:#B7A691;}
	.st21{fill:#B8A692;}
	.st22{fill:#20151B;}
	.st23{fill:#271B1F;}
	.st24{fill:#050310;}
	.st25{fill:#03010F;}
	.st26{fill:#483623;}
	.st27{fill:#473939;}
	.st28{fill:#1F1219;}
	.st29{fill:#584640;}
	.st30{fill:#19121B;}
	.st31{fill:#120309;}
	.st32{fill:#1D040A;}
	.st33{fill:#2A1A19;}
	.st34{fill:#31171A;}
	.st35{fill:#14030B;}
	.st36{fill:#2A1C1C;}
	.st37{fill:#6D4E46;}
	.st38{fill:#4F3B3F;}
	.st39{fill:#1C1218;}
	.st40{fill:#322830;}
	.st41{fill:#322730;}
	.st42{fill:#15040A;}
	.st43{fill:#2C0A18;}
	.st44{fill:#513230;}
	.st45{fill:#57413E;}
	.st46{fill:#320915;}
	.st47{fill:#32272B;}
	.st48{fill:#513038;}
	.st49{fill:#3C131C;}
	.st50{fill:#17030A;}
	.st51{fill:#54423E;}
	.st52{fill:#3F2637;}
	.st53{fill:#140E1B;}
	.st54{fill:#21171C;}
	.st55{fill:#0C091A;}
	.st56{fill:#0D0919;}
	.st57{fill:#3A2B26;}
	.st58{fill:#472621;}
	.st59{fill:#271813;}
	.st60{fill:#3B2C26;}
	.st61{fill:#21060A;}
	.st62{fill:#421613;}
	.st63{fill:#14030A;}
	.st64{fill:#3B211D;}
	.st65{fill:#3D211F;}
	.st66{fill:#1E1218;}
	.st67{fill:#281815;}
	.st68{fill:#3C2D29;}
	.st69{fill:#1F1217;}
	.st70{fill:#25141D;}
	.st71{fill:#3D2533;}
	.st72{fill:#63271E;}
	.st73{fill:#54211D;}
	.st74{fill:#3E1312;}
	.st75{fill:#784C42;}
	.st76{fill:#473235;}
	.st77{fill:#411C1B;}
	.st78{fill:#29090D;}
	.st79{fill:#392D2C;}
	.st80{fill:#6F2D2D;}
	.st81{fill:#552420;}
	.st82{fill:#704743;}
	.st83{fill:#0F0C2A;}
	.st84{fill:#1C1219;}
	.st85{fill:#554749;}
	.st86{fill:#000315;}
	.st87{fill:#281814;}
	.st88{fill:#C19555;}
	.st89{fill:#493B44;}
	.st90{fill:#45363D;}
	.st91{fill:#6D5436;}
	.st92{fill:#523922;}
	.st93{fill:#131532;}
	.st94{fill:#4B4C7D;}
	.st95{fill:#2E2F5A;}
	.st96{fill:#363861;}
	.st97{fill:#616198;}
	.st98{fill:#211518;}
	.st99{fill:#313054;}
	.st100{fill:#4F3A25;}
	.st101{fill:#1F203F;}
	.st102{fill:#1E1522;}
	.st103{fill:#242649;}
	.st104{fill:#543435;}
	.st105{fill:#7C524A;}
	.st106{fill:#1E0F14;}
	.st107{fill:#7F5F38;}
	.st108{fill:#DEBC8C;}
	.st109{fill:#8D574C;}
	.st110{fill:#1D1520;}
	.st111{fill:#23171A;}
	.st112{fill:#C09455;}
	.st113{fill:#806037;}
	.st114{fill:#080204;}
	.st115{fill:#0E112C;}
	.st116{fill:#C1A479;}
	.st117{fill:#211418;}
	.st118{fill:#C4C7EC;}
	.st119{fill:#00000C;}
	.st120{fill:#5B4A44;}
	.st121{fill:#645450;}
	.st122{fill:#6F5D5A;}
	.st123{fill:#6D5B5B;}
	.st124{fill:#453533;}
</style>
<g id="Слой_1_1_">
	<path class="st0" d="M325.3,938.4c-4.2-9.5-7.8-19.1-11.7-28.7c-2.7-6-5.6-11.8-9.3-17.2c-1.1-1.3-2.3-2.5-3.6-3.7
		c-1.5-1-3.1-1.8-4.7-2.6c-0.4-0.2-0.8-0.4-1.1-0.5c-0.2-0.1-0.3-0.2-0.5-0.2c0.1,0,0.1,0,0.2,0.1c-1.4-0.7-2.7-1.5-4-2.3
		c-7.9-2.5-15.8-5-24-6.5c-15.9-3-35.9-1-51.8,1.4c-3.6,0.6-7.1,1.2-10.5,2.3c-8.5,2.7-13.8,8-20.6,13.3
		c-4.9,3.8-14.4,7.8-17.5,13.3c-5.6,9.7-7.4,19.9-4.1,31.5c0.1,0.5,1.7,1.6,2.1,2.1c0.7,0.8,1.4,1.7,2.3,2.3c2.5,1.6,6,2.4,8.9,2.9
		c3.2,0.6,6.5,0.7,9.8,0.2c5.9-0.9,10.6-5.9,13.3-5.2c1.5,0.4,2.4,2.5,2.6,8.1c0.2,7.5,3.9,11.3,10.9,13.9c1.6,0.6,3.1,1,4.8,1.4
		s3.3,1.1,5,1.3c1.9,0.2,3.8,0.2,5.7,0.2c4.4,0.1,8.7,0.2,13.1-0.3c8-0.8,10.1-4.3,15.2-9.6c2.7-2.8,8.5-5,12.5-5.2
		c5.5-0.2,9.1,3.7,13.9,6.4c3.5,2,7.2,4.3,11.3,4.3c1.9,0,3.5-0.8,5.3-1.1c4.4-0.7,9.2-0.8,13.3-2.5c7.2-3,14.7-5.7,14.5-15.6
		c0-0.8,0-1.5,0-2.2C326.1,939.4,325.7,938.9,325.3,938.4z"/>
	<path class="st1" d="M216.9,964.7c-0.2-2.9-0.6-6.1,2.6-7.7c2.7-1.3,4.2,1.7,2.7,5.5c-0.4,1.1-0.8,2.1-1.2,3.2
		C219.5,966.1,218,966.4,216.9,964.7z"/>
	<path class="st2" d="M167.9,943.8c-0.1-0.8-0.4-1.6-0.4-2.4c0.1-1.9,0.5-3.8,2.7-4.1c1.8-0.3,2.5,1.2,2.7,2.8
		c0.4,2.1,0.3,4-2.6,4.1c-0.4,0-0.8,0.4-1.3,0.6C168.4,944.8,168,944.4,167.9,943.8z"/>
	<g>
		<path class="st3" d="M336.8,877.5c-2.4,10.9-2.1,27.5-11.3,35.2c-5,4.2-13.1,5.1-18.1,0.8c-2.1-1.8-3.4-4.2-4.5-6.7
			c-3.2-7.4-4.2-15.6-2.9-23.5c0.7-4,1.9-7.8,2.8-11.7c6.5-28.3-5.6-58.1-11.3-85.5c-3.7-17.6-4.7-35.4-0.5-53.1
			c0.5-1.9,1.3-3.8,2-5.6c9.6-0.4,19.2,0.4,28.7-1.8c6.8-1.6,12.4-5.4,17.3-10.2c3.7-1.9,6.5-0.5,9.2,2.2c6.4,6.5,7.8,14.8,8.1,23.3
			c0.4,11.1,0.3,22.2-0.9,33.2c0.1,12.9-3,25.4-4.6,38.1c-2.1,16.8-5,33.5-9.2,50c-1.3,4.9-3.4,9.5-4.5,14.3
			C337,876.8,336.9,877.2,336.8,877.5z"/>
		<path class="st4" d="M822.7,526c-5.1-8.8-25.1-13-17.1-25.5c-0.2-1.2-0.1-3.6-1.2-3.8c-11.1-4.2-47.8-5.6-35.6-24.6
			c17.5-16.1,30.1-21.6,10.4-43.9c-17.6-19.6-40.4-32.6-67.5-32.9c-14-1.6-9.2-18.7,0.8-22.2c-0.2-0.1-0.3-0.2-0.5-0.3
			c5.4-3.7,12.2-9.8,9.6-16.6c-5.2-7.6-21-1.8-29.3-2.9c-6.3,1.5-17.5-4.5-21.9,0.2c-8.4,11.6-20.4,19.6-29,31
			c-4.5,4.8-8.1,10.5-14.4,13c-3.2,1.9-1.4,5.8,2.2,4.6c4.1-0.6,8.5,0.8,12.7,1c11.2,0.2,22.4-0.2,33.4-2.1c1.2-0.2,2.8-0.9,3.6,0.7
			c-2.8,9.6-15.1,15.8-23.9,19.8c-3.2,0.8-7.9,0.7-6.7,5.9c8.4,0.7,17.5,1,24,7.5c-11.1,3.9-79.8,5.5-53.1,29
			c17.4,13.7,43.3,5.1,58.6,22.2c4.5,4.2,2,10.8-4.3,8c-10.1-0.9-42.5-5.2-44.1,8.3c0.3,3.1,2.6,4.4,5.4,5
			c6.6,0.3,17.7,0.7,17.8,9.6c0.3,15.2-65.3,0.6-43,26.5c6.4,6.8,24.2,2.2,25.7,10.9c-0.3,1.7-1.9,2.2-3.4,2.3
			c-15.3,0.5-30.6,0-45.3,5.7c-25.1,10.2-11.7,40.2-14.5,60.7c0.5,8.3-6.5,8.5-12.8,6.8c-10.2-3.5-16.2,10.3-8.3,16.6
			c5.5,4.6,6.6,10.5,5.6,17.1c-3.8,19.5-2.9,28.8,19.4,20.8c14.1-4.7,38,6.5,26.6,23.2c-4.6,7.5-12.7,11.1-18.1,17.6
			c-5.5,9-10.9,18-16.5,26.9c-14.9,25.6-24,62.4-19,92.1c1.2,8.2,10.9,18.6,1.8,25c-21.8,8.4-45.1,13.3-63,29.9
			c-15,12.6-32.4,29.4-31.8,50.6c-0.1,0.3-0.1,0.5-0.2,0.8c0.9,2.2,1.4,4.6,1.8,7.2c0.3,0.2,0.6,0.4,1,0.6
			c13,14.9,21.1-3.3,28.3-13.6c-3.4,4.9-7.4,10.4-9.4,16.1c-2.7,7.7,3.6,13.3,11,13.9c6.7,0.5,11.5-1.9,15.5-7.1
			c3.1-4,5.8-8.2,9.7-11.5c-2.5,4.8-6.2,9.4-9.3,14.3c4,4.5-8.4,10.7,9.7,16.3c40.1,7.8,75.7-19.8,111.2-34.4c0-2.3-1.9-2.6-3.3-3.2
			c-24.2-9-25.2-39.8-13.7-59.3c14-22.9,26.4-51.4,52.1-63c4.9-1.7,9.7-2.4,13.9,1.8c3.2-0.6,1.1-4.8,4.1-5.8c2.4,5-4.3,21.9,2,23.9
			c3.8,0.4,4.4-4,5.1-6.9c4.3-16.2,18.2-27.7,18.9-45.1c3.2-13.3,20.8-15.9,25.5-29.2c4.8-9.4,1.1-16.3-9.4-17.3
			c-12.2,0.3-16.9-13.7-9.3-22.3c8.2-10.2,31.3-12.1,17-29c-5.2-5.8,8.6-9.6,10.4-15.3c8-11.3-8.8-15.2-15.1-6.3
			c-10.3,6.2-14.9-9.7-7.5-15.7c21.7-21.5,48.2-37.5,67.1-61.9c10.7-10.5,5.7-24.5,12.7-24C810.7,557.1,830.2,554.6,822.7,526z"/>
		<path class="st5" d="M605.5,278.1c0.6,0.5,0.8-0.6,1.4-0.7c2.6-3.2,4.3-7,6.4-10.5c0.8-1.4,1.2-4.2,3.6-3.2
			c1.6,0.6,1.2,2.7,1.1,4.4c-0.2,4.3-0.2,8.7-0.1,13c0,1.8,0.2,3.6,1.4,5.6c7.3-6.6,15.3-11.5,24.2-15.4c4.1-1.8,8.4-3,12.6-4.6
			c1.4-0.6,3.1-0.8,4.2,0.6c1.2,1.4,0.7,3-0.1,4.6c-1.8,3.5-3.4,7.2-5.3,11.4c3.6-0.5,6.8-1.1,10-1.5c1.5-0.2,3.1,0,3.7,1.8
			c0.7,1.8-0.6,2.8-2.1,3.5c-9.4,4.5-13,13.6-18.3,21.6c-5,7.4-6.3,16.3-11.2,23.6c-0.7,3.1-3.1,5-5.1,7.2c-3.6,4-6.9,8.1-8.5,13.3
			c-0.6,2-1.3,4.7,0.6,6.1c1.9,1.4,3.7-0.7,5.2-1.7c4.4-2.9,8.8-6,12.7-9.5c4.8-4.2,10.2-7.4,15.8-10.1c9.7-5.3,20.1-8.9,30.3-13
			c1.2-0.5,3-1.6,4.2-0.2c1.5,1.8-0.7,3-1.6,4.2c-5.7,7.3-11.8,14.9-17.8,22.6c-5,9.7-14.3,15.5-21.4,23.3
			c-7.5,8.3-14.6,17.1-23.7,25.3c12.5,1.7,23.9,2.1,35.4,0.7c4.8-0.6,9.5-0.8,14.2-1.9c1.3-0.3,2.3-0.2,3.1,1s0.3,2.3-0.3,3.3
			c-3.1,4.5-6.1,9.1-11.1,11.9c-5.6,3.1-10.8,7.2-17,9.2c-0.5,0.2-0.9,0.9-2,2c3,0.2,5.3,0.3,7.7,0.4c5.4,0.3,9.5,3.5,14.1,5.8
			c1.3,0.7,3,1.5,2.7,3.2c-0.4,2.2-2.5,1.8-4.1,1.8c-16.6,0.8-32.7,4.3-48.6,8.9c-2.9,0.8-5.2,2.3-6.7,4.9c-1.8,3.2-2.1,6.5,1.1,9
			c6.7,5.2,14,8.9,22.7,10.5c10.7,2,22.2,1.5,31.7,8.1c4.2,2.9,8.5,5.5,10.4,10.8c0.8,2.2,0.2,4-0.7,5.6c-1.1,1.9-3.2,1.3-5,1
			c-13.5-2.5-27-2.9-40.4,0.8c-2.9,0.8-5.6,2-4.9,5.7c0.6,3.6,3.7,3.7,6.6,3.8c5.7,0.2,11.4,0.2,15.2,5.4c3.7,5.1,2.3,10.1-3.7,12.3
			c-7.1,2.7-14.6,2.8-22,3.1c-5.2,0.2-10.2,0.5-15.1,2.3c-2.4,0.9-4.8,1.8-5.1,4.8c-0.3,3.1,0,5.9,3.1,7.8c4.7,3,9.7,5.1,15.4,5.2
			c3.6,0,6.9,1.1,9.9,2.8c2,1.1,2.9,2.9,2.4,5c-0.5,2.2-2.2,3.2-4.5,3.2c-9-0.1-17.9,0.4-26.9,0.9c-9.1,0.5-17.4,3.4-25,7.6
			c-6,3.4-8.2,10.1-8.4,16.7c-0.2,7.8,0.6,15.6,0.8,23.3c0.1,4.8,0,9.7,0,14.5c0,10.3-4,13.1-14.2,10c-6.1-1.9-9.7,0.5-10.9,6.9
			c-0.7,0.9-0.9,2.4-1.9,2.9c-4.8,2.2-7.4,5.7-9.2,10.8c-1.4,3.8-7,3.9-10.1,0.8c-7-7.1-10.1-15.8-11.1-25.5
			c-2.5-26.5-3.6-53-4.1-79.5c-0.1-6.8,1.4-13.5,1.8-20.3c0.5-7.8,1.7-15.4,3.9-22.9c3.9-2,3.7-6.4,5.8-9.5c4-5.9,7.4-12,9.5-19
			c1.5-5.2,1.3-10.5,2.3-15.7c2.9-15.6,4.7-31.3,7-47c0.8-5.8,0.7-10.8-3.4-16.2c-5.9-7.8-9.6-16.9-8.8-27.3
			c0.6-8-1.2-16.3,3.5-23.7c0.6-1,0.9-2.3,1.7-3c8-6.8,11.6-16.7,17.7-24.8c7.6-10.3,16.2-19.8,30-22.2c6-1,8-6.9,9.6-11.6
			c4.5-13.1,10.9-25.2,18-37c0.8-1.2,1-3.9,3.2-3c1.8,0.7,0.3,2.6,0.2,4"/>
		<path class="st6" d="M309.8,862.9c-5.5-44.6-28.1-89.6-16.5-135.7c-23.5-3.4-47.1-10.2-67.6-23.3c-6-2.4-4.1,18.3-9.9,23.6
			c-16.4,24.9-26.1,60.7-54.9,73.9c14.6,26.8,34.6,51.2,47,78.9c28.8-2,58.1,5.4,85.8,12.7C307.7,891.5,310.9,875.1,309.8,862.9z"/>
		<path class="st7" d="M517.2,504.2c2.3,0.4,1.2,1.7,0.9,2.9c-4.5,17.9-5.9,36.1-4.9,54.4c0.5,8.6,0.1,17.2,0.8,25.8
			c1.4,16.4,1.7,33,4.9,49.2c1.3,6.6,5.5,11.6,10,16.3c2.2,2.2,8-0.1,7.8-3.5c-0.3-5,2.2-6.7,6.3-7.9c1.8-0.6,3.3-2.2,4.9-3.3
			c0.4,3.6,2.1,6.1,4.9,8.7c4.8,4.3,5.8,10.5,4.7,16.8c-0.9,5-2,9.9-1.7,15.1c0.4,7.1,2.6,8.7,9.5,6.8s13.7-4.1,21-3.3
			c6.3,0.6,12.1,2.5,16.4,7.4c6,6.9,5.6,13.4-1.9,21.9c-3.7,4.2-7.6,8.4-12.9,10.7c-2.9-0.6-1.7-2.7-1.3-4.2c1.1-4,2.1-8.1,2.8-12.2
			c0.5-3,0.8-6.3-1.9-8.4c-2.6-2-5.4-0.3-8,0.9c-16.3,7.2-30.4,17.7-43.8,29.3c-6.5,5.7-12.7,11.6-17.4,18.8
			c-7.2-0.9-13.1,3.1-19.1,5.7c-6.3,2.8-11.7,7.3-17.9,10.6c-4.9,2.6-7.3,8-11.3,11.8c-1.2,1.2-1.8,3.4-4.3,2.5
			c-1-2.1,0.1-3.9,1-5.7c3.8-7.4,6.2-15.4,9.9-22.8c5.6-11,9-22.9,15-33.7c4.7-8.4,8.7-17.3,11.9-26.3c3.5-9.9,0.8-15.5-7.3-18.2
			c-5-1.6-7.8-5.6-10.1-9.9c-2.2-4.2-4.5-8.5-5.7-13.3c-1.2-5-3.4-5.3-7.3-1.9c-7.4,6.7-15,13.1-22.8,19.3c-1,0.8-2,1.8-3.5,1.6
			c-3.1-8.2-3.1-16.6-0.8-24.9c2.4-8.8,4.8-17.6,7.8-26.6c-10.8,1-17.8,7.6-24.2,14.4c-6.3,6.7-13.1,12.8-19,19.8
			c-2,2.3-4,2.6-5.9-0.5c-2.6-4.2-5.1-5-9.6-3.4c-2.4,0.8-4.6,2-6.4,3.8c-11.5,11.1-22.4,22.8-31.1,36.3
			c-2.9,4.5-11.4,17.2-17.7,15.4c-3.8-1.1-8-4.4-11.4-6.5c-4.2-2.6-8.3-5.2-12.3-8.1c-1.9-1.4-3.8-2.9-4.8-5.1
			c-4.2-8.6,3.3-14.3,8.4-19.7c2.8-3,6-6.8,9.6-8.8c5.1-2.8,9.5-6.5,13.3-10.9c4.1-4.8,8.7-9.1,12.9-13.8
			c9.2-10.2,17-21.6,25.2-32.6c1.9-2.6,1.6-6.7,5.4-8c3.4-1.5,6.8-2.8,9.8-5.3c3.7-3,8.2-4.8,12.9-6.1c15.4-4.2,28.5-13,41.8-21.3
			c5.9-3.7,12.3-6.5,18.2-10.2c17.2-10.8,32.5-23.8,46.4-38.5C515.8,505.1,516.5,504.7,517.2,504.2z"/>
		<path class="st7" d="M454,955.1c0,5.1,0.1,10.1,0.1,15.2c0.2,9.9-7.3,12.6-14.5,15.6c-2.9,1.2-5.9,1.3-8.8,2.3
			c-2.1,0.7-3.9,0.3-6,0.6c-1.8,0.2-3.2,0.9-5.1,0.7c-3.7-0.4-6.9-2.5-10.1-4.2c-5.8-3.3-11-8.8-18.8-7.3c-0.1-0.5,0-1,0.4-1.3
			c5.1-3,5.2-3,2.9-8.7c-2.2-5.6-2.2-11.7-4.5-17.3c0.8,7.4-2.1,14.6-1.6,22c0.2,2.1,1.2,3.8,2,5.5c-4.9,1.7-6.8,6.5-9.8,10
			c-3.4,4-7.8,5-12.2,5.4c-11.3,1-27.1,1.5-36.1-6.9c-5.1-4.9-3.4-11.6-1.2-17.5c0.4-1.1,0.7-2.2,1.1-3.3c2.7-4.8,2.5-10.1,2.4-15.5
			c-0.8,5.1-4.7,9.1-4.7,14.4c0,0.7-2.8,2.6-3.4,3.1c-1.2,1-2.4,1.8-3.7,2.6c-2.4,1.4-5,2.5-7.7,3.2c-2.8,0.7-5.7,0.9-8.6,0.7
			c-2.4-0.2-6.5-0.4-8.5-1.7c-1.5-1-3.2-1.2-4.6-2.4c-0.6-0.6-1.1-1.3-1.7-1.9c-0.3-0.3-1.6-1.2-1.7-1.6
			c-4.1-14.3-0.4-26.5,8.6-38.3c8.9-11.6,18.9-21.8,30.8-30.1c0.8-0.6,1.6-1.1,2.7-1.3c6.5-1.5,13.2-1.5,19.8-2.3
			c9.1-1,17.9,1.2,26.8,2.1c4.1,0.4,8.2,1.2,12.3,1.9c8.9,3.6,18.4,5.6,26.8,10.5c9.6,5.5,20.2,9.3,28.2,17.2
			c1.7-0.2,0.8-3.9,3.6-2.2c-0.3,9.1,5.5,17,4.9,26.2C454.3,952.1,454.5,953.6,454,955.1z"/>
		<path class="st8" d="M346,641.2c-8.9-6-17.5-12.4-24.6-20.6c-2.2-2.6-1.6-3.6,0.2-5.6c4.2-4.7,7.6-9.8,8.9-16.3
			c0.9-4.6-1.5-7.6-2.5-11.3c2.7-1.1,5.3-2.2,5.1-6c-0.1-2.6,1.7-4,4.1-4.1c5.4-0.1,11.1-1.1,15.9,2.4c6.5,4.9,13.9,3.1,21,3
			c1.3,0,2.6-0.2,3.9-0.5c6.8-1.5,6.7-1.5,8.1,4.9c-5.9,12.8-15.2,23.3-23.5,34.5c-4.5,6.1-10.6,11.2-16.1,16.5
			C345.1,639.3,346.4,640.2,346,641.2z"/>
		<path class="st9" d="M924.3,395c-8,0.4-7.9,0.4-5.7-7.2c2.3-8.1,4.9-16.1,4.4-24.8c-0.4-6.9-2.1-9.1-9.1-9.8
			c-3.6-0.3-3-2.1-2.3-4.4c2.4-8.4,4.4-16.9,4.5-25.8c0.1-6.9-1.1-13.1-5.9-18.5c-1-1.1-2.3-2.4-2.3-4.3c11.5,0,28.7,10.9,31.1,29.6
			c1.6,12.3-2.4,23.6-4.7,35.2C932.3,375.4,927.1,384.8,924.3,395z"/>
		<path class="st10" d="M101.2,678.5c0.7-1.3,2.1-1.6,3.3-1.9c8.9-2.6,17.7-5.3,26-9.6c2.2-1.1,4.7-1.8,7.2-1.4
			c2.5,0.4,5.4-0.3,6.4,3.2c1,3.7-0.2,6.6-3.4,8.4c-3.8,2.2-7.5,4.5-10.7,7.6c-6.9,2.1-12.8,6-18.3,10.4c-3.6,2.9-7.5,5.4-11.7,7.5
			c-3.5,1.7-6.8,1.5-9.6-1.2c-2.8-2.7-3.1-6.1-1.4-9.6C91.8,686.2,96.9,682.7,101.2,678.5z"/>
		<path class="st10" d="M124.3,688.2c4.5-3,9.7-0.1,14.3-1.9c-6.7,11.8-13.4,23.6-20.2,35.3c-2,3.4-3.7,7-5.7,10.4
			c-1.9,3.2-5.3,3.7-7.7,6c-0.8,0.7-2.3,0.5-3.2-0.4c-1.5-1.7-1.4-3.6-0.6-5.6c3-7.3,6-14.7,10.2-21.5
			C116,703.2,118.4,694.7,124.3,688.2z"/>
		<path class="st11" d="M658,337.3c-0.2,0.5-0.2,1.2-0.5,1.4c-11.4,5.3-19.7,15.1-30.5,21.3c-3.7,2.1-4.6,0.9-5-2.7
			c-0.8-6.9,3.7-11.5,7.1-16.4c2.3-3.2,5.4-5.8,8.1-8.7C644.5,332.4,651.2,334.8,658,337.3z"/>
		<path class="st5" d="M925.6,394.7c-8-0.1-8.1-0.2-6-7.9c2.3-8.5,3.7-17.1,3.2-26.1c-0.4-6.2-2.8-8.9-8.7-7.9
			c-3.7,0.6-3.5-0.2-2.5-3.1c3.1-9,4.8-18.2,5.1-27.7c0.2-6.2-1.2-11.8-5.4-16.6c-1.3-1.5-3-3.3-2.6-5.7c-4.5-5.7-11.3-7.9-17.5-11
			c-8.9-4.4-17.5-4.5-26.7-0.5c-6.7,2.9-12.5,7.4-19.6,9.4c-15.2,4.4-30.5,9.3-43.1,19.3c-10.8,8.6-15.7,23.5-27.7,30.5
			c-2.6,1.5-5.4,2.5-8,4.1c-3.7,2.2-5.8,5.3-8.7,8.2c-2.9,2.8-6.5,4.7-9.2,7.9c-3.5,4-5.2,3.6-9.6,5.3c-3.5,1.4-5.5,5-7.6,7.8
			c-2,2.8-3.8,4.3-6.9,1c-3.4-3.6-7.5-6.7-11.2-10c-1.3,0-2.7-0.1-4,0c-8.8,1-14.8,8.8-12.7,16.2c1.9,6.7,9.6,12.5,16.8,12.7
			c4.1,0.1,8.2-0.3,12.4,0.6c7.1,1.5,14,4,20.6,7.1c5.3,2.5,12.7,9.1,18.5,9.2c-0.6,3.4,4.4,6.5,6.6,8.3c1.1,0.9,2.2,1.8,3.1,2.6
			c1.9,1.8,3.2,3.6,4.3,6.5c3.1,8.1,4.4,17.9-2.7,24.5c-4.1,3.8-7.8,8.2-11.5,12.4c-5.4,6.2-3.7,14.1,3.2,16.8
			c9.1,3.5,18.3,6.5,27.8,8.7c7,1.6,8.4,6.1,4.3,12.2c-0.5,0.8-1.3,1.5-1.9,2.3c-1.1,1.5-0.6,3,1.1,2.6c3.7-0.9,5.7,2,8.3,3.3
			c7.4,3.9,12.7,10,11.6,18.6c-1.4,11.3-6.1,21.1-17,27.1c-3.2,1.6-6.2,3.3-9.3,5.2c-0.8,0.5-1.7,1-2.2,1.9
			c-1.1,1.7-0.3,4.1,1.2,5.5s3.4,2.2,5.3,3c10.4,4.9,17.7,15.6,19.5,27s-1.7,23.3-8.4,32.7c-1.3,1.9-2.9,3.7-5,4.7
			c-1.1,0.5-2.3,0.7-3.2,1.4c-1.7,1.3-2.2,3.8-1.7,5.9c0.5,2.1,1.7,4,2.6,5.9c2,3.9,3.1,8,4.3,12.2c0.8,3,1.7,6.1,1.8,9.2
			c0.2,3.9-0.8,7.7-1.7,11.4c-2.3,9.1-4.9,18.3-8.7,26.9c-3.8,8.6-8.8,14.4-15,21c-4.7,5-7.3,12.1-6.2,18.9
			c1.2,7.7,6.5,15.3,3.9,22.6c-0.7,2-1.9,3.7-3.1,5.4c-3,4.3-6,8.5-9,12.8c-1.2,1.7-2.5,3.7-2.1,5.8c0.3,1.7,1.6,2.8,3.2,3.4
			c-0.2,1.8,0.4,3.9,0.3,5.7c-0.3,8.1-3.6,12.1-10.8,12.9c-0.1,0.1-0.2,0.2-0.3,0.3c-0.6,0.5-1.1,1-1.6,1.5
			c-0.5,0.4-0.9,0.9-1.3,1.3c0,0,0,0,0.1,0c0,0-0.1,0-0.1,0.1c-0.6,0.6-1.2,1.2-1.8,1.8s-1.2,1.3-1.8,2c-0.1,0.1-0.1,0.2-0.2,0.2
			c-0.1,0.1-0.2,0.2-0.2,0.3c-0.3,0.4-0.6,1-0.8,1.2c-0.4,1.3-1,2.5-1.9,3.5c1.4,0.9,2.9,1.8,3.7,2.5c2.2,1.8,3.6,4,2.6,7
			s-3,4.6-6.4,4.4c-3.5-0.1-7.1,0.2-10.2-1.7c-1.2-0.8-2-1.1-2.8,0.3c-4.8,8-11.7,14.4-17.9,21.3c-8.2,9.2-14.9,19.6-24.7,27.3
			c-2,1.7-4,4-4.6,6.9c5.1,1.6,9.7-0.2,14.2-1.9c13.5-4.9,25.6-12.5,38.3-18.9c10.8-6.1,19.7-13.5,26.7-23.9
			c3.5-5.1,6.4-10.6,8.9-16.3c2.5-5.6,3-10.7,3.5-16.5c0.5-0.2,0.9-0.4,1.4-0.6c3.8-6.9,3.7-14.4,3.2-21.9c-0.2-0.1-0.3-0.2-0.5-0.3
			c0.1-0.2,0.1-0.3,0.2-0.5c3.2-7.3,8.9-11.9,13.7-18.2c4.7-6.2,8.8-12.8,12.5-19.6c8.9-16.4,20.4-30.9,30.4-46.5
			c8.5-13.4,12.4-27.7,13-43c0.3-7.4-0.2-14.8-1.4-22.1c-1.1-6.8-1.4-13.4-1.6-20.4c-0.6-16.3,3.5-32.3,5.6-48.4
			c0.9-6.8-0.3-14.8,3.4-20.4c4.4-6.7,7.8-14.1,10-21.8c2.7-9.6-1.3-16.9-10.1-18.5c-2.8-0.1-5.8,1.3-8.4-0.9
			c-2.7,0.4-2.1-1.7-1.9-2.9c2.4-11.8,5.4-23.2,13.4-32.7c7.3-8.7,16.4-14.9,26-20.5c9.3-5.5,18.5-11.2,24-21.1
			c1.2-2.2,2.8-4.2,4.6-5.9c8.2-7.9,12.5-17.9,15.1-28.6C933,404.5,930.8,397.9,925.6,394.7z"/>
		<path class="st12" d="M857.3,525.9c-2.8-0.1-5.8,1.2-8.5-0.9c2.5-8.2,8.5-14,13.3-20.7c0.9-1.3,2.5-2.2,4-2.8
			c1.9-0.8,4.2-1.8,5.9,0.4c1.9,2.4-0.3,3.8-1.7,5.4c-4,4.8-8,9.6-11.9,14.6C857.7,523,855.6,524,857.3,525.9z"/>
		<path class="st13" d="M390.4,978.3c-2.4-0.3-3.5-1.6-3.4-4c0.3-4.1-0.5-8.2,0.8-12.3c1.2-3.7,0.1-7.5,0.2-11.2
			c0-1.4,0.1-3,1.7-3.1c2.1-0.2,2,1.6,2.3,3.1c1.1,7,2,14,4.9,20.6c1.7,3.9,1.5,6.4-3.8,5.8c-0.7-0.1-1.4,0.6-2.1,1l-0.3,0.3
			L390.4,978.3z"/>
		<path class="st13" d="M329.9,965.1c-2.8-0.6-1.8-2.3-1-3.7c2.7-4.6,3.7-9.8,6-15.4c1.9,3.7,1,7.1,1,10.3c0,2.6-0.7,5.2-0.9,7.8
			c-0.2,1.8-1.5,1.9-2.9,2C331.7,965.2,330.9,964.9,329.9,965.1z"/>
		<path class="st14" d="M472,964.1c-0.2-0.8-0.7-2.1-0.5-2.3c7.3-5.3,10-14.3,17.5-20.9c-2.4,6.7-5.8,11.7-9.1,16.5
			c-1.7,2.5-0.2,6.6-4.1,7.8C474.5,964.8,473.3,964.4,472,964.1z"/>
		<path class="st15" d="M501.1,971.1c-0.8-0.6-1.1-1.3-0.5-2.1c4.2-6.5,9.5-11.9,15.9-16.4c-4.5,5.6-5.9,13.4-12.4,17.5
			C503.3,971.1,502.2,971.1,501.1,971.1z"/>
		<path class="st16" d="M847.9,297.2c-8.1,6.6-17.4,10.1-28,10C828.6,301.9,838.1,299.2,847.9,297.2z"/>
		<path class="st1" d="M433,978.6c-1.5-0.8-3.4-0.8-4.7,0.2c-1.7,1.3-2.2,3.2-1,5.2c0.6,1,1,1.8,1,2.5c0.6,0.5,1.2,1.1,1.6,1.8
			c0.2,0.2,0.4,0.4,0.6,0.7c0.5-0.2,1-0.6,1.5-1.1c0.6-1.5,1.5-2.9,1.8-4.5C434.1,981.8,435.3,979.8,433,978.6z"/>
		<path class="st1" d="M346,992.9c-0.2-2.9-0.6-6.1,2.6-7.7c2.7-1.3,4.2,1.7,2.7,5.5c-0.4,1.1-0.8,2.1-1.2,3.2
			C348.6,994.3,347.1,994.6,346,992.9z"/>
		<path class="st2" d="M297,972c-0.1-0.8-0.4-1.6-0.4-2.4c0.1-1.9,0.5-3.8,2.7-4.1c1.8-0.3,2.5,1.2,2.7,2.8c0.4,2.1,0.3,4-2.6,4.1
			c-0.4,0-0.8,0.4-1.3,0.6C297.5,973,297.1,972.6,297,972z"/>
		<path class="st17" d="M484.4,972.2c0.5,0,1.1,0.1,1.6,0.1c0.6-0.7,1.1-1.5,1.1-2.6c-0.1-1.2,0.8-2.9-1-3.3
			c-1.5-0.4-1.9,1.3-2.7,2.3c-0.6,0.9,0.3,1.9,0.5,2.9C484,971.8,484.2,972,484.4,972.2z"/>
		<path class="st18" d="M454,955.1c-1.7-1.6-1-3.7-1-5.6c0-3.2,0-6.4-1.5-9.2c-2.7-5.2-2.9-10.6-2.5-16.2c-1.5-4-0.3-7.9,1.8-10.9
			c11.2-16.7,14.4-36.3,20.9-54.7c6.1-17.4,12.8-34.6,25.2-49c4-4.6,7-10.1,9.5-15.7c2.7-6.1,6-11.8,9.8-17.3
			c8-6.6,16.3-12.7,26.4-15.4c7.3-1.9,13.4-6.7,20.6-8.6c1.8-0.5,3.7-1.9,5.7-0.4c-11.4,18.9-16.1,39.8-19.2,61.3
			c-1.5,10.3-2.5,20.3,0.2,30.4c1.2,4.5,2.8,8.8,4.5,13.2c2.8,7.4-0.8,14.6-8.6,16c-15.3,2.7-29.2,8.9-42.6,16.1
			c-7.1,3.8-13.3,9.2-19.5,14.5c-9.6,8.2-17.2,17.7-23.2,28.8c-3.5,6.4-3.6,12.9-3.6,19.7C457,954.1,457.6,956.8,454,955.1z"/>
		<path class="st19" d="M569,752.1c-17.9,7.1-36.7,12.3-52,25c-3.5-8.7-6.4-17.4-2-26.6c0.8-1.6,1.3-3.4,3.1-4.4
			c3.1-7.7,8.9-12.9,15.2-17.9c8.2-6.4,15.5-13.9,24.4-19.5c7.6-4.8,15.6-8.9,23.7-12.7c5.6-2.6,9.4-0.2,9.6,6
			c0.2,5.4-1.6,10.4-2.9,15.5c-0.4,1.5-2,3,0,4.5C580.5,731.4,575.6,742.3,569,752.1z"/>
		<path class="st3" d="M674,828.1c-0.3,7.9-5.2,13.1-10.5,17.9c-15.7,14.4-29.5,30.3-39.8,49.1c-4.5,8.2-11.7,13.3-19.6,17.7
			c-1.7,0.9-2.8,2.1-4.1,3.3c-1.3-11.7,3.8-21.5,9.2-31.3c7.8-14.2,16.7-27.7,26.8-40.5c6.6-8.3,14.1-15.9,24.6-19.4
			c3.4-1.2,6.9-0.8,10.3-0.5C672.8,824.5,674.2,825.8,674,828.1z"/>
		<path class="st20" d="M506.8,981.9c0.9-2.7,2.9-3.5,4.9-3.8c1.2-0.2,0.8,1,0.5,1.8C511.2,982.5,509.2,982.2,506.8,981.9z"/>
		<path class="st21" d="M465,956.1c-0.5,1.4-1.5,2.6-3,3c-1.2,0.2-1.2-0.8-1.1-1.7c0.2-1.4,0.6-2.7,2.1-3.1
			C464.1,954,464.7,954.9,465,956.1z"/>
		<path class="st22" d="M335,877.1c12-29.9,13.5-62.9,18.8-94.5c0.3-3.7-0.3-13.1,3.6-5.3c7.4,11.8,25.9,6.1,31.5,21.1
			c5.9,20.6,20.1-62.9,26.4-69.2c7.9-22,19.4-43.4,31.8-63.1c10.6-7.3,19.9-19.8,30.9-24.7c8.6,8.3,6.4,25,21.4,29
			c24.4,4.9-30.7,87.5-33.3,106.8c-5.7,15.2-12.9,30.2-18,45.8c-9.5,29.9-16.9,76-56,77.2c-20.4-3.4-40.8-4.2-61-2
			C331.9,891,334.7,884.3,335,877.1z"/>
		<path class="st23" d="M447,666.1c0.2,3.5-2.8,5.5-4.1,8.3c-9,17.7-18.8,35-26.2,53.5c-1.9,4.7-3.1,9.7-4.7,14.6
			c-6.1,19.4-11.9,38.9-16.9,58.6c-0.4,1.4-0.9,2.8-1.4,4.3c-4.2-1.6-5.5-5.6-7.5-8.8c-3.5-5.4-8.2-9-14.4-9.6
			c-8.6-0.8-14.3-5.1-17.7-12.9c0.8-8.8,0.9-17.5,1-26.3c0.1-6.9-0.7-13.5-2.2-20.2c-1.4-6.4-8.2-12.5-13.9-12.5c5-4.2,2.3-9.9,3-15
			c6.3-5.4,11.8-11.4,16.5-18.5c7.3-11.1,16.2-20.9,25.8-30.2c3.1-3,6.1-6,10.2-7.6c5.6-2.1,8.9-0.9,11.6,4.5
			c1.8,3.6,2.7,0.9,4.1-0.4c9.8-9.7,18.3-20.5,29.3-28.9c4.8-3.7,10.4-4.7,16.4-6.4C450.9,630.5,442.9,647.3,447,666.1z"/>
		<path class="st24" d="M392,900.1c9.6-1.4,17.8-5.9,25.3-11.8c10.9-8.7,15.8-21.1,19.8-33.9c5.7-18.5,10.9-37.1,18.5-54.9
			c3.3-7.6,6-15.3,10.4-22.3c1.8-0.6,2.2-2.4,3.2-3.7c11.8-14.7,27.8-22.6,45.1-28.5c1.6-0.5,3.2-1.5,3.7,1.2
			c-3.9,8.5-5.7,17.1-1.2,26.1c0.7,1.3,0.2,3.3,0.2,4.9c-6.8,10.6-10.7,22.9-18.6,32.7c-6.7,8.3-12.2,17.2-16.7,26.9
			c-8.1,17.6-13.4,36.2-18.6,54.9c-1.6,5.9-5.2,10.7-8,15.9c-2.8,5.3-5.3,10.6-6.1,16.6c-1.8,1.3-0.5,3.5-1.5,5.5
			c-4.3-3.5-8.2-7.5-13.2-10c-10.9-5.5-21.3-11.8-32.9-15.9C398.2,902.7,394.2,903.6,392,900.1z"/>
		<path class="st23" d="M353,647.2c-2.2-1.4-4.4-2.9-6-5c7.5-1.7,13.8-5.7,19.4-10.7c11.9-10.8,25.4-19.4,38.5-28.5
			c2.2-1.5,4.7-2.5,7.1-3.6c1.3-0.5,2.7-0.2,3.5,1.1c1,1.6-0.1,2.4-1.3,3.2c-7,4.8-13.9,9.5-20.8,14.3
			c-13.1,9.1-26.6,17.8-38.5,28.6C354.4,647,353.6,647,353,647.2z"/>
		<path class="st25" d="M325,684.1c0,1.7-0.1,3.4-2.2,3.9c-5.1,1.2-6-3.7-8.3-6.2c-1.5-1.6-2.6-4,0.5-5.7
			C318,679.2,322.8,680.1,325,684.1z"/>
		<path class="st25" d="M359,668.1c-0.6-2.9,0.1-3.6,3-3C361.4,666.5,360.4,667.5,359,668.1z"/>
		<path class="st25" d="M330,652.1c0-0.3,0-0.7,0-1c3.1-0.4,3.7,0.2,3,3C332,653.5,331,652.8,330,652.1z"/>
		<g>
			<path class="st0" d="M369.8,656.9c-0.6-3.9-4.5-4.2-7.5-5.5c-2.4-1.1-4.9-1.9-6.9-3.8c-1.3-2.5-3-4.6-6-5c-0.3-0.3-0.7-0.7-1-1
				c-1.2-1.9-2.7-3.3-4.5-4.6c-6.4-4.7-12.7-9.6-18-15.6c-2.1-2.4-2-4,0-6.3c4.3-4.8,7.5-10.1,8.3-16.7c0.5-4.2-0.3-7.9-3.8-10.6
				c-3.3-3.4-7.9-2.7-11.7-3c-17.6-1.1-35,0.2-52.4,3.2c-8,1.4-16.2,1.6-24.1-1c-7.1-2.3-13.8-5.5-21.4-5.9c-11-0.7-21.9-4-33.1-2.4
				c-5.5,0.8-10.9,2.7-16.1-0.9c-1.1-0.7-3-0.7-4.4-0.4c-5.8,1.4-10.6-1.3-15.5-3.6c-15.2-7.2-31-11.3-47.9-8.4
				c-5,0.9-8.4,5.7-6.5,10.2c2.8,6.6,5.4,13.6,9.5,19.4c9.1,12.8,17.8,26,29.9,36.5c1.5,1.3,3,2.8,2.8,5
				c-1.1,8.3-3.5,16.3-11.3,20.6c-10.1,5.7-19.8,12.1-30.7,16.3c-3.2,1.3-6.4,2.8-9.5,4.4c-1.3,0.7-2.5,2-2,3.6
				c0.5,1.8,2.1,1.8,3.7,1.6c2.3-0.2,4.6-0.3,6.9-0.4c9.3-2,18.2-4.9,26.8-9c3.2-1.5,6.4-2.9,10-2.6c2,0.2,4.1,0.4,4.8,2.8
				c0.7,2.4-0.2,4.3-2,5.7c-2.1,1.7-4.5,2.8-6.6,4.4c-1.8,1.3-4.3,2-4.1,5c-0.6,1.6-2.6,2.7-2,4.8c4.8-0.5,9.9,1.6,14.3-1.9
				c3-0.5,2.7,1.7,2.8,3.5c0.5,10.1,0.8,20.2,1.5,30.3c0.9,12.4,0.7,24.9,3.4,37.1c2.9,13.1,5.5,26.3,10,39c5.6,3.1,10.8,2,15.7-1.8
				c7.7-5.9,14.5-12.9,19.6-21c8.8-14,16.6-28.6,24.7-43.1c4.8-8.5,5.9-18.5,16.8-18.9c10.6-0.3,18.3-0.7,27.9,3.5
				c9.2,4.1,18.5,6.9,28.4,8.5c18.4,3.1,40.8,2.4,54.1-12.8c13.5-15.4-10.6-24-16.7-32.7c-8.4-12,1.8-25,14.5-23.1
				C344.9,661,373.4,681,369.8,656.9z"/>
		</g>
		<path class="st0" d="M177,619.6c0-1.7,0-3.3,0.6-4.9c0.7-1.9,0-3.3-1.7-4.7c-5.6-4.5-6.7-11.1-3.2-17.4c2.9-5.3,9.8-7.9,15.9-5.7
			c6.8,2.5,13.5,5.5,20.6,7.2c11.9,2.8,24.1,1.9,36.2,2c4.2,0,8.3,0,12.5,0c0.9,0,2.2-0.3,2.5,1c0.2,1.2-0.8,1.7-1.9,1.8
			c-11.7,2.1-22.5,6.6-33.4,11.2c-10.8,4.5-19.9,11.4-26.6,20.9c-2.8,4-4.9,5.5-10,3.2C180.1,630.4,177,627.2,177,619.6z"/>
		<path class="st26" d="M799.3,391.7c-0.6,0.8-1,1.7-1.7,2.3c-4.7,4.5-9,9.2-13.9,13.4c-3.9,3.4-6.8,7.9-10.1,11.9
			c-0.7,0.9-0.9,2.9-2.8,1.5c-1.5-1.1-1.3-2.2-0.4-3.8c4.9-7.8,11.3-14.2,18.4-19.8c2.5-2,4.6-4.3,7-6.3c0.8-0.7,1.7-1.2,2.7-0.6
			C798.8,390.5,799,391.1,799.3,391.7z"/>
		<path class="st9" d="M833.4,418.3c1.4,0.1,2.9-0.2,2.9,1.5c0,1.6-1.5,1.5-2.7,1.5c-17.8,2.4-30.5,10-41.5,16.9
			c-1.6,1.2-4.1,3.5-5.4,2c-1.6-1.8,1.2-3.7,2.7-5.1c10.4-9.8,22.7-15.1,36.9-15.7C828.9,419.2,831.3,419,833.4,418.3z"/>
		<path class="st9" d="M847.7,645.1c-1.3-4.9-1.5-10.1-1.7-15.1c-0.3-9.8,0.2-19.6-0.2-29.4c-0.4-12.5,4.1-23.3,10.9-33.4
			c0,18.4,0.6,36.8-3,55c-1.1,5.7-3.2,11.1-5.1,16.6C848,640.9,847.4,642.9,847.7,645.1z"/>
		<path class="st9" d="M625,952c-15.2-5.5-27.3-19.7-25-36c0.7-1.9,1.6-3.4,3.6-4.4c9.5-4.7,16.7-11.9,21.7-21.3
			c10.9-26.8,43.2-40.6,49.9-67.5c0.6-1.3,0.9-3,3-2.6c5.5,0.9-3.3,23.6,2.2,25.2c2.5,0.2,3-2.5,3.3-4.3c2.5-16,16.3-26.5,18.6-42.4
			c-0.4-17.5,21.5-19.6,26.9-35.1c9.1-20.3-21.9-8.8-23-25.3c-1.4-7.4,3.8-16.1,11.4-20c13.7-4.7,19.2-14.6,6-24.6
			c4.6-5.2,20.2-13.7,14.7-21.1c-7.2-7.7-13.5,8.5-21.5,4.7c-18.5-12.9,11.2-29.3,20.4-38.4c17-14.5,35-28,48.1-46.5
			c6.9-5.8,0.8-26.6,14.2-19c23.9,17.1,28.9,57,2.4,74.4c-1.6,1-3.8,1.9-1.2,4.4c16.7,20.8,7.8,51.8-5.5,72
			c-5.3,8.2-9.6,17-16.3,24.3c-2.4,2.6-2.3,5.1,0.1,7.9c18.5,23-15.7,36.9-8.8,42.4c12,3.3,25.2,1.6,37.6,0.1c2.7,0.3,7.8-2.2,9.1,1
			c0.2,1.7-1.4,1.8-2.7,2.2c-13.2,3.7-27.5,3-40.9,3c-10.7,2.9,6.5,23.6-25.7,21.4c10.8,0.5,21.9-0.8,32.6,0.6c-0.1,1.9,1.1,2,2.6,2
			c15.9-0.6,31.2,3.8,46.9,5c22.7,6.9-79.6,3.7-81.8,1.4c7.2,3.5,11.2,15.2,0.6,16.8c-5.6,1.6-11.4-3.9-15.5,1.8
			c-15.3,17.1-29.2,35.5-45.8,51.1c-5.8,1.3-8.7,6.2-12.2,10.1C660.6,930.9,644.9,944.3,625,952z"/>
		<path class="st9" d="M797.7,321.2c-6.5,8-12.9,16-16.1,26c-0.7,2.1-2.3,2.2-4,2.1c-6-0.5-10.6,2.2-14.3,6.6
			c-6.9,8-13.3,16.3-11.5,27.9c0.2,1.5,0.8,3.7-1.4,4.3c-2.4,0.6-3.8-1-4.6-3c-1.5-3.7-2.8-7.5-4.1-11.2c1.7-9.1,7.7-15.7,14.2-21.1
			c12.9-10.7,25.7-21.5,39.6-30.8C796.1,321.6,796.9,321.5,797.7,321.2z"/>
	</g>
	<path class="st27" d="M144.3,187.6c-4.1-7.4-5.8-15.7-9-23.5c-3.1-7.6-6-15.4-9.4-22.9c-2.4-5.3-7.1-9.2-10.6-13.8
		c-13.7-17.8-28-35.3-42.1-52.9c-6.1-4.3-10.7-10.2-16.6-14.8c-3.4-2.6-6.7-5.5-10.3-7.7c-8-4.8-15.3-10.5-21.9-17.1l-0.7-0.7
		c-3.3-2.5-8.3-3.3-11.2-1.3c-3.5,2.3-1.4,5.6-1.1,8.6c0.3,2-0.8,3.2-2.3,4.2c-0.3-0.1-0.7-0.2-0.9-0.4c-4.5-8.4-0.3-21.7,7.1-27.4
		c5.3-4,9.5-2.8,15.1-1.3c14.4,3.7,23.6,14.2,33.3,24C76.9,53.9,89,68.2,102.3,81.5c0.6,0.7,1.2,1.4,1.9,2.1
		c4.8,5.1,6.9,12.1,12.1,17c0.3,0.3,0.7,0.6,1,1c2.7,3.5,6.1,6.2,9,9.5c2.7,3.1,5.3,6,8.2,8.9c3.3,3.2,6.6,6.5,9.9,9.7
		c1.8,1.7,3.6,3.8,3.4,6.2c-0.2,1.6-1.2,2.9-2.2,4.1c-1.1,1.3-2.2,2.5-3.3,3.6c-1.5,1.5-1.7,1.5-1.2,3.6c0.8,3,1,6.3,2.6,9.1
		c13.7,23.4,21.3,49.3,29.2,75c4.6,15.2,7.9,30.9,10.4,46.6c0.7,4.3,1.4,8.5,3.1,12.5c1.5,3.7,0.4,6.2-3.2,7.5
		c-6,2.3-12.2,4.2-18.1,0.5c-4.6-2.9-6.8-7.6-6.5-13.2c0.2-4,0.1-8.3,2.4-11.6c4.6-6.6,3.1-13.5,2-20.6c-0.1-1.3-0.3-2.6-0.7-3.9
		c-1.2-14.7-5.3-28.6-11.4-42C148.1,201,145.6,194.5,144.3,187.6L144.3,187.6z"/>
	<path class="st28" d="M624.2,69.7c-0.7,4.3,2.2,8.2,1.2,12.5c-0.7,3.2-0.1,7.2-0.1,10.5c0,3.6,0.1,7.3,0.1,10.9
		c0.1,7.1-0.4,14.3,0.1,21.3c1,14.1,0.3,28.4,0.4,42.5c0,6.4,0.1,12.8-0.7,19.2c-0.7,5.4-1.9,10.6-3.3,15.9
		c-2.3,9.2-4.9,18.4-7.5,27.5c-1.3,4.6-2.6,9.1-4,13.7c-0.6,2-1.4,4.1-1.3,6.1c0,1.6,0.4,3-1.2,4.3c-1.8,1.5-2,3.3-2.3,5.2
		c-1.5,10.3-3.4,20.6-3.9,31.1c-0.2,2.9-0.2,6.3-4.6,6.3c-6.6-1-12.2-4.2-17.4-8.1c-1.1-0.8-2-1.8-2-3.3c1.2-3.9,1-7.9,1.5-11.8
		c1.4-10.1,4.8-19.6,8.7-29c1.5-3.5,1.1-7.7,4.1-10.5c1.7-0.8,3.4-0.7,4.7,0.2c-1.6-2.1-5.6,0.9-7-2.5c0.5-5.8,3.3-11.1,4-16.9
		c0.1-1.4,3.2-0.1,2.2-2.4c3.3-11,6.1-22.1,7.3-33.5s2-22.8,3.5-34.2c0.6-4.6-0.9-9.3,0.2-13.9c2.3-9.6,4.2-19.3,5.6-29.2
		c0.5-3.3,0.6-6.6-0.8-9.7c-3.8-8.5-9-12.4-18.4-8.4c-1.9,0.2-3.7,0.4-5.2-1.2c2.2-5.4,5.7-10.1,9-14.8c3.3-4.8,6-9.8,8.2-15.1
		c2.6-3.8,4.9-7.9,10-9c1.5,4.3,2.4,8.8,5.6,12.3c1.6,1.2,0.2,3.3,1.4,4.7C623.7,63.4,623.5,66.7,624.2,69.7L624.2,69.7z"/>
	<path class="st29" d="M615.3,43.6c-3.5,2.5-6.4,5.6-9,9c-8.7,11.2-16.7,22.9-25.3,34.1c-0.4,0.3-0.8,0.5-1.3,0.7
		c-4.2,0.1-7.6,1.9-10.3,5.1c-1,1.3-2.3,2.4-3.9,2.9c-1.7,0.5-3.4,0.9-3.2-1.9c0.7-1.3,0.9-2.9,2-4c3.8-8.4,9.7-15.3,15-22.7
		c7.1-9.7,15.1-18.8,24.3-28.1c-6.1,1.9-11.6,1.9-15.3,6.7c-0.8,1.1-2.7,1.3-4.2,1c4.9-6.7,13.1-7,19.9-10c3.9-1.5,6.6,1.1,9.3,3.1
		C614.7,40.5,615.1,42,615.3,43.6L615.3,43.6z M620.4,56.5c-3.2-3.7-5.4-7.8-5.1-12.9c1.7,3.3,3.3,6.7,5,10
		C621,54.5,621,55.5,620.4,56.5z"/>
	<path class="st30" d="M533.2,360.6c2.7,1,4.7,2.7,6.7,4.8c5.9,6.6,10.7,13.9,15.5,21.3c3.9,6.1,8.6,11.7,13.1,17.4
		c1.2,1.5,2.2,3.1,3.1,4.8c0.3-0.8,0.8-1.5,1.3-2.2c-0.6-1.1-0.6-2.4,0-3.4c-1.4-6.4,1.5-14,8.8-15.8c0-0.1,0.1-0.1,0.1-0.2
		c1-1.6,1.9-3.3,2.8-5c0.5-0.9,1.1-1.8,1.7-2.7c-1.5-2.1-2.4-4.7-2.6-7.5c-0.5-4.8,1.4-9.8,3.7-14.3c0-2.4,0.7-4.6,1.7-6.9
		c0.8-1.9,1.7-3.8,2.6-5.7c0.7-3.4,2.3-6.7,2.2-9.9c-0.1-5.3,1.3-10.3,1.5-15.5c0.1-3,1-5.6,3.9-7c0.1-0.2,0.2-0.5,0.3-0.7
		c-1.5-0.7-3.6-0.5-2-3.3c0.9-1.6-0.1-4.1-0.2-6.2c-5.6-4.4-12.8-4.9-19.1-7.6c-1.2,0.2-2.3,0.9-2.7,2c-2,5.7-4.2,11.2-8.5,15.6
		c2.1,2,2.5,4.4,2.1,7.2c-0.3,2.2-1.2,4.5-0.7,6.8c0.5,1.5,1.7,2.4,3.1,3.1c0.3,0.1,1.1,0.2,0.7,0.5c-3.3,2.8,0.4,3.7,1.5,5.2
		c1,1.4,2.6,2.3,3.6,4.1c-2.6,0.1-4.2-1.1-5.9-2c-1.4-0.8-2.8-2-4.5-0.6c-0.6,1.7-0.7,3.6-0.9,5.4c-0.8,9.9-10.1,16.2-19.8,13.5
		c-5.6-1.5-10.2-4.6-14.7-8.1c-1.9-1.4-3.8-3.5-6.6-2.1C524.1,352.6,527.1,358.3,533.2,360.6L533.2,360.6z"/>
	<path class="st4" d="M583.9,424.6c-2.9,0-4.8-2.1-5.8-5.6c-2-7.2-5.3-14-10.5-19.4c-5.3-5.5-8.8-12.2-13.3-18.2
		c-6.6-8.6-10.5-19.9-22.8-23c-1.1-0.3-1.8-0.9-2.1-1.9c-1-3.7-2.9-7.1-3.1-10.9c-5.2-13.7-13.4-25.5-23.4-35.5
		c9.9,6.2,18.2,14.8,26.4,23.5c3.9,4.1,7.6,8.4,12.3,11.6c1.3,0.9,2.6,2.5,4.4,1.5c1.8-1.1,1.4-3.2,1.4-5c-0.1-1.2-0.5-2.3-1-3.3
		c-6.8-14.5-16.9-26.1-30.8-34.4c-5.2-3.1-10.7-5.5-16.4-7.9c5.6-3.8,11.4-5.3,17.7-3.5c2.2,0.6,4.4,1.8,6.6,0.1c-2.8-4-2.8-4,1-7.5
		c0.1-0.1,0-0.3-0.1-0.5c-1.3-1.6-3.2-1.4-5-1.5c-5,0-10-0.2-14.8,1.3c-5.2,1.6-9.6,4.5-13.5,8.2c-1.9,1.9-3.5,2.6-4.4-1
		c-1.9-7.9,0.4-11.2,8.6-11.9c2-0.2,4-0.1,6,0c6.3,0.2,12.6,0.4,18.9-0.1c0.5-0.1,1-0.3,1.4-0.6c1.4-1.6,3.5-2.8,3.9-5.2
		c-0.9-1.4-2.3-1.1-3.6-1.2c-8.4-0.8-16.8-0.4-25.3,0.5c5.4-5.3,10.9-10.2,16.6-14.9c1-0.8,2.5-1.1,2.2-2.9c-1-1-2.4-0.9-3.7-1.3
		c-4.6-1.7-5.4-3.9-3.1-8.2c0.3-0.6,0.7-1.1,0.9-1.7c0.5-1.3,0.8-2.6-0.3-3.6c-1-0.9-2.2-0.8-3.2-0.2c-1.8,1.1-3.6,1.5-5.6,0.5
		c-2.5-0.5-4.4,0.5-5.4,2.6c-2.7,5.5-6.2,10.6-8,16.6c-1.7,5.9-4.8,10.9-8.9,15.4c-3.5,3.9-5.9,3.8-9.4-0.2
		c-4.5-5.3-9.1-10.5-14.6-14.9c-3.4-2.7-6.8-5.9-7.9-10.5c-2.9,0.5-5.2,0-7.3-2.4c-3.7-4.1-13.7-5.1-18.5-2.2
		c-0.7,0.4-1.7,1-1.7,1.5c0,7.6-14.6,7.8-10.7-2.5c1-2.6,1.4-5.7-1-7.9c-6-5.7-17.4-2.3-19.7,5.8c-0.3,1.2,0,2.7-1.6,3.4
		c-0.4-0.2-0.7-0.4-0.9-0.6c-0.1,0-0.2,0-0.4,0c-2.1-0.4-4-1.2-6.1-1.7c-1-0.2-1.9-0.5-2.7-1.2c0,0,0,0-0.1-0.1
		c-0.5-0.2-1.2-0.4-1.9-0.9c-2.1-1.3-3.9-3.2-6.4-3.8c-3.8-0.9-5.2-2.9-5.1-7.1c0.2-8.6-8.2-16.8-15.8-15.6
		c-12.9,2-25.4,5.4-37.1,11.1c-12.8,6.2-24.8,13.8-38.9,17.5c-12,3.2-22.4,10.7-33.3,16.6c-3.8,2.4-7.9,4.3-11.5,7
		c-2.3,1.7-3.3,1.1-4.4-1.3c-3.9-7.9-4.7-16.2-4.3-24.8v-2.9c0.3-5.6,0.7-11.3,1.5-16.8c0.6-4.2,0.5-8.7,3-12.6
		c3.4-0.7,3.1,2.9,4.8,4.2c1.4,1.8,2.8,4.1,5.1,5.1c1.8,0.8,4.8,1.6,6.4,0.1c0.9-0.9,1.4-2.2,1.9-3.4c0.9-2.5,1.8-5,2.7-7.5
		c-4.3,0.1-8.7,0-12.9-1.3c-9.5-2.9-15.2-13.2-21.3-20.3c-0.6-0.7-1.3-1.4-2.1-1.5c-0.9-0.1-1.9,0.4-2.4,1.2c-0.6,0.8-0.8,1.7-1,2.6
		c-0.3,1.2-0.6,2.4-0.3,3.6c0.9,3.1,5.6,3.2,8,4.8c3.2,2.1,4.5,4.9,5,8.6c0.4,2.5-0.4,4.9-0.7,7.4c-1.9,14.6-4,29.3-1.3,44
		c0.4,2,0.6,4,0.4,6c-0.7,7.2-6.9,1.6-10.1,5.6c-2.4,3-3,11.5-2.1,15c0.5,2,0.3,3.9-1.1,5.6c-2.4,2.8-4.4,5.7-4.9,9.5
		c-0.3,2.5-1.8,2.3-3.5,1c-2.4-2-2.3-4.4-2-7.2c0.7-6.1-2.6-12.1-7-13.4c0.1,4.8,1.1,9.5,3,14c0.5,1.2,1.4,2.3,0.4,3.7
		c-3.2,4.3-17.6,4.7-21.6,1.1c-6.7-6.1-4.2-18.9-0.2-25.7c1.1-1.9,2.6-3.5,2.2-5.8c-0.6-4.1-1.3-8.1-1.9-12.2
		c-4-3.5-6.5-7.7-8.1-12.9c-1.9-6.2-4.9-12-9.4-16.9c-8-8.4-18-14.2-27.6-20.5c-1.6-1-3.1-1.4-3.9,1c-0.4,2.3-0.4,4.6,0.1,6.9
		c1.4,3.3,5.2,3.7,7.4,6c1.3,1,2.8,1.8,4.1,2.8c6.9,5.1,14,10.2,18.2,18.1c0.8,1.5,2.2,2.9,1.1,4.5c-2,3.1-0.1,5.1,1.9,6.8
		c3.3,2.9,4.6,6.8,6.2,10.6c0.6,1.6,0.5,4.2-1.8,3.3c-6.4-2.4-13.5-2.1-19.5-5.5c-9.8,0.5-18.4,5.1-27.1,8.9
		c-4.6,2-9.7,3.4-13.7,6.8c-0.8,2-2,4-2.1,6.2c-0.1,1-0.1,2,0,3c0.2,1.3,0.4,2.6,2,3c2-0.3,4.3-2.8,5.9-0.5
		c3.4,4.7,7.3,3.3,11.6,1.8c3.1-1.1,6.3-2,9.4-3.3c6.6-2.6,13.3-4.1,20.4-4.4c2.6-0.1,3.7,0.6,2.7,3c-2.1,5.1-3.8,10.5-8.4,13.9
		c-15.7,11.4-26.7,26.9-38,42.1c-0.9,1.2-1.7,2.5-1.4,4.1c-1.2,4.4-2.1,8.9-3.9,13c-1,2.3-0.8,3.7,1.1,4.4c2.3,0.8,3.5-1.2,3.5-3
		c0-3.1,1.7-4.5,4.2-5.4c6.2-6.7,11.1-14.4,16.8-21.6c5-6.3,10.1-12.4,15.9-17.8c1.5-1.4,7.8-1.2,8.7,0.2c1.4,2.2-0.6,3.7-1.6,5.3
		c-6.1,9.9-12.7,19.5-19.6,28.9c-3.1,4.3-7,8.5-8.3,14c0,1.9-1.7,2.8-2.5,4.2c-2.8,5-7.2,9.5-3.8,16.3c1.4,2.8,3.8,4,5.5,6.2
		c1.1,1.4,1.9,2.3,0.5,4.2c-3.4,4.5-6.5,9.2-9.6,13.9c-4.5,6.8-4.5,6.8,1.1,11.7c-0.3,0.2-0.6,0.5-0.8,0.4c-6-2.8-9.8-0.8-11.8,5.3
		c-0.1,0.3-0.4,0.5-0.6,0.8c0.5,0.7,1.3,0.9,2.1,1.2c5.9,2,9.6,7.5,9.1,13.6c-0.1,1.8-0.8,4.1,1.7,4.5c2.3,0.4,2.7-1.9,3.4-3.6
		c1.7-4,2.5-8.2,4.2-12.2c0.8-2.1,1.6-5,4.2-5c3,0,1.4,3.6,2.7,5.1c0.1,0.1,0.2,0.3,0.3,0.4c1.8,0.6,2.2-1,2.9-2
		c4.5-6.2,10.3-10.9,17-14.4c8-4.2,16.1-4.5,24.9-0.9c6.7,2.8,12.7,6.4,18.9,10c1.4,0.8,3.2,2.5,4.5,1.1c1.9-2.1,2.8-0.5,4,0.4
		c0.9,0.7,1.9,1.5,3.2,1c0.6-2.4,1.2-4.8,4.3-5.4c1.2-0.2,1.8-1.3,2.4-2.4c2.4-4.8,2.5-4.8,6.9-1.9c5.3,3.5,8.9,8.9,14.5,12.1
		c7.5,4.2,10.7,11.3,12.7,19.4c1.5,5.8,2.3,11.7,2.9,17.6c2.3,3,4.4,2.3,6.4-0.4c0.8-1.1,1.3-2.3,2.1-3.4c2-2.7,3.9-2.6,5.9,0.2
		c0.5,0.7,0.8,1.4,1.3,2.1c1.3,1.9,2.9,3.3,5.4,2.7c2.6-0.6,3.2-2.7,3.3-4.9c0.1-2.7,0.3-5.3,2.8-7.1c1.1-1,2.3-2,2.9-3.4
		c4.4-9.8,8-19.9,6.2-30.9c-1.3-8.2,0.3-16.2,0.8-24.3c0.4-6.1,0.6-12.1,3.1-18c2.6-6.1,5-12.3,6.8-18.7c1.2-4.5,2.4-9.2,5-13.3
		c2,1.1,1.6,2.8,1.7,4.2c0.9,13.8-0.6,27.6-1.4,41.4c-0.9,14.4-0.3,28.6,0.8,42.8c0.2,3,0.4,6,0.9,8.9c0.3,1.4,0.9,2.5,2.4,2.9
		c1.6,0.4,2.4-0.8,3.1-1.9c0.6-1,1.2-2,1.4-3.2c2.2-10.4,5.6-20.5,9.7-30.3c3.6-8.6,7.8-16.9,13-24.7c2.6-3.9,5.1-7.5,6.1-12.3
		c2.1-10.1,13.2-15.2,22.4-10.4c4.1,2.1,7.9,5.7,7.8,10.3c-0.2,9.4-3.7,18.1-11.1,24.2c-9.1,7.5-15.9,16.4-19.8,27.6
		c-0.9,2.7-1.6,5.5-2.9,8c-4.5,8.2-3.5,16.7-1.7,25.3c0.4,1.9,1.4,3,3.5,2.6c1.8-5.9,3.6-11.8,5.6-17.7
		c4.5-13.4,11.8-25.6,15.8-39.1c0.3-1,1-1.7,1.7-2.4c5.6-5.4,17.2-6,23.9-1.3c-0.8,1.4-2.4,1.7-3.4,2.9c-1.1,1.4-2,3.7-0.3,4.3
		c3.9,1.5,7.2,5,11.8,4.4c1.6-0.2,3.5-1.4,4.6,0.3c1.2,1.8-0.8,3.3-1.4,5c-1,2.7-4,4.7-2.5,8.2c4.4,1.5,7.2,0,9.5-5
		c1.9-4.3,5.7-6.9,10.2-6.3c2.9,0.4,4.7-0.6,6.7-2.4c9-8.1,18.7-15.4,29-21.9c8.2-5.2,15.7-6.8,24.5-1.5c3.9,2.4,7.2,4.7,9.8,8.7
		c3,4.7,7.9,8,11.9,11.9c0.8,0.8,2,1.4,3.1,0.4c1.6-3.7,1.1-7.6,0.8-11.3c-0.5-6.3,1.5-10.1,7.6-12.8c8-3.5,12.8-2.8,17.1,4.9
		c4.5,8.1,8.2,16.7,12.5,25c0.9,1.7,1.6,3.8,3.9,2.8c2.3-0.9,1.6-3.1,0.8-4.7c-3-6.3-5.3-12.9-8.3-19.3c-2.5-5.4-4.6-11-7-16.5
		c-1.9-4.2-0.7-5.5,4.3-7.6c4.1-1.7,4.5,1.6,5.6,3.8c1.4,2.7,1.5,5.8,1.9,8.7c0.4,2.6,1.6,4.7,3,6.8c1,1.5,2.1,2.6,4.1,2.2
		c1.8-0.4,2.1-1.9,2.5-3.4s-0.1-3.4,1.4-4.6c1.5,0.4,2.2,1.6,3,2.6c9.7,11.4,19.3,22.9,29.6,33.8c4.4,4.6,7.6,10.7,14.7,12
		c0.1-0.1,0.1-0.3,0.2-0.4c0.4-0.7,0.9-1.4,1.5-2C584,425,583.9,424.8,583.9,424.6z M204.5,276.5c0.2,1.2,0.5,2.4,1.1,3.5
		C204.7,279,204.6,277.7,204.5,276.5z"/>
	<path class="st31" d="M91.3,278.5v3c-0.8,2.6-0.8,2.6,1,3c3.5-3.9,5.4-3.9,8.1,0.4c1.7,2.8,4,1.6,6.1,1c5.9-2,11.9-3.9,17.7-6.2
		c5.7-2.3,11.8-1.6,17.6-3c1.9-0.4,3,0.8,2.4,2.6c-2,6.3-4,12.9-9.5,16.9c-7.8,5.7-14.6,12.5-20.9,19.8c-6.8,7.9-11,15.7-15.6,25
		c-0.5,1.1-1.1,2.1-2,2.9s-2.2,1.1-3.3,0.6c-1.2-0.6-1.6-2.2-1.8-3.6c-1-6.1-2.7-12-3.7-18.2c-0.3-1.8-1-2.6-2.4-3.8
		c-7.4-6-12.7-13.3-13.7-23.2c-0.1-1.1-0.2-2.4-0.7-3.3c-0.6-1.3-2-2.5-0.6-4c1.3-1.3,2.4,0.2,3.6,0.6c1.3,0.4,2.4,0.4,3.1-0.8
		c0.9-1.7-0.6-2.2-1.7-3c-3.9-2.5-2.2-1.6-0.4-4.7c2.6-4.5,8-1.1,9.7-5.2c1-0.1,2.1-0.1,3.1-0.2C89.2,275.9,90.4,277.1,91.3,278.5
		L91.3,278.5z"/>
	<path class="st32" d="M412.1,237.7c-0.2,2.5-0.1,5-0.3,7.5c-0.1,0.8,0,1.8-0.2,2.6c-0.3,0.8-1,1.4-1.2,2.3c-0.2,1,0,2.1,0.7,2.7
		c0.7,0.5,1.7,0.5,2.6,0.5c3.1-0.2,4.3-2.2,5.8-4.7c1.2-1.8,2.2-3.3,4.4-3.6c5.3-0.7,10.6-0.8,14.8,3.4c2.2,2.2,4.7,3,7.7,2
		c7.9-6.3,16.6-11.6,23.9-18.7c5.8-5.6,11.2-11.9,17.5-17c3.4-2.8,6.3-5.5,5.5-10.4c-0.2-1.5,0.8-2.8,1.4-4.2
		c1.5-3.7,4.1-6.8,6.3-10.1c10.4-16,19-33.1,28.7-49.6c6.1-10.3,11.6-21,20.8-29c5.3-4.7,10.3-9.5,12.1-16.7
		c0.2-0.4,0.3-0.9,0.5-1.3c0.5-1.6,1.3-2.9,2.3-4.2c10.3-16.4,21.8-31.9,35.5-45.6c1-1.1,2-2.2,2.4-3.7c0.3-1.2-0.4-2.3-1.5-1.7
		c-4,2.3-9.4,0.9-12.6,5.2c-1.1,1.6-3.3,2.1-5.1,3c-6.2,3.9-11.4,9-16.7,14c-3.4,3.3-6.4,7.2-11,9.2c-0.9,0.5-1.7,1.1-2.5,1.8
		c-12.2,10.9-23.1,23.3-35,34.6c-3.3,3.2-6.4,6.7-9.3,10.3c-2,5.8-5.5,10.4-10.5,14.1c-5.4,4-8.9,10.1-14.3,14.2
		c-4.7,3.6-8.7,7.9-13.3,11.7c-1.5,1.3-2.7,3.3-1.2,5.3c1.2,1.6,0.7,2.5-0.5,3.8c-8.3,8.6-16.3,17.6-26.3,24.3
		c-2.2,1.5-5.3,4-5.4,6.9c-0.1,2.5,0.8,4.9-0.9,7.3c-1,1.4-2.3,2.7-3.3,4.2c-2.1,3.1-4.4,6.2-7.2,8.7c-2.9,2.6-5.9,5.1-8.7,7.8
		c-1.2,1.2-2.5,2.5-3.4,4C412.9,231.2,412.3,234.5,412.1,237.7z M127.4,141.4c-0.8-1.8-1.9-3.5-3.2-5.1
		c-13.1-16.1-26.1-32.4-38.9-48.8c-3.7-4.7-7.1-9.7-11.8-13.5c-5.2-0.9-9.8-3.5-13.6-6.6c-7-5.6-14.7-10.2-22-15.4
		c-3.5-2.5-27.4-17.7-31-15.3c-1.4,0.9-1.7,2.8-1.8,4.4c-3.9,41.8,4.8,80.7,14.2,121c5.2,22.4,9.9,45,16.6,67
		c1.9,6.3,3.7,12.8,4.4,19.3c1.3,12.7,3.8,25.2,5.1,37.9c1.9,18.4,7.6,36.3,12.3,54.2c3.6,13.6,7.4,27.1,10.6,40.8
		c-0.4,3.5,1.1,6.7,2.1,9.9c0.6,1.4,1.1,2.8,1.6,4.2c1.5,4.1,2.6,8.4,3,12.9c1.3,1.2,1.1,2.5,0,5.2c-0.2,1.2-0.6,2.2-1.2,3.1
		c0,0.2-0.1,0.4-0.1,0.6c2.5,2.4-0.9,3.3-1.2,5c0.7,5.4-3.1,8.9-5.4,13.1c-0.2,0.4-0.4,0.8-0.5,1.2c-0.4,1-0.9,1.9-1.6,2.7
		c-0.2,0.4-0.4,0.8-0.5,1.2c-1,4.7-3.5,8.7-7.1,11.9c-1.6,1.5-3.5,1.4-5.4,1.6c-0.7,0.4-1.4,0.8-2.1,1.1c-0.3,0.7,0.1,1.4,1,2
		c1.3,0.6,2.8,0.6,4.1,1.3c1.2,0.5,2.4,0.5,3.3-0.4c3.9-4,9-6.9,12.1-11.8c5.4-8.6,12.4-16,19.7-23.1c2.7-3.8,4.9-8.6,11.1-5.9
		c0.7,0.3,1.7-0.1,2.1-1c0.5-1.2-0.3-2-1.1-2.5c-3.5-2-2.9-4.2-0.9-7c3.5-4.8,6.4-10.2,10-14.9c2.2-2.9,1.9-5-0.6-7.4
		c-1.7-1.6-3.3-3.1-4.4-5.3c-2.7-5.5,0.6-9.5,3-13.9c1.1-1.9,3.5-3.4,2.2-6.1c-5.7-0.6-10.1-3.1-12-8.9c-5.3-1.1-4.3,4.9-7.8,7
		c0.3-3.8,1.1-6.7,2.1-9.7c0.7-2,2.2-3.8,0.9-6.1c-3.5-3.9-4.6-8.7-5.2-13.7c-0.5-3.5-0.2-7.2-3.7-9.8c-9.1-6.9-13.4-16.3-14-27.7
		c2.2-0.3,4.9,0.7,5.8-2c1-3-2.5-3.5-3.4-5.5c2.5-2.1,4.7-4.7,8.5-4.4c1.7,0.1,2.5-1.4,2.8-3c0.1-0.5,0.1-1,0.1-1.5c0-1.9-1-3.4-2-5
		c-4.3-7.3-11.4-11.9-16.9-18.1c-1-1.1-2.3-1.3-3.7-0.7c-1.5,0.6-1.6,2-1.5,3.4c0.5,4.8,1.2,9.6,1.9,14.4c0,0.3,0.1,0.5,0.2,0.4
		c0.6-0.3-0.2,0.5-0.4-0.1c-2.8-13-8-25.4-9.9-38.6c-0.1-1-0.6-1.9-0.8-2.9c-2.2-9-4.8-17.9-6-27.2c-0.6-4.8-0.3-10-3.7-14.1
		c0,0-0.1,0-0.1,0.1c1.4-1.8,0.8-4.1,1.1-6.1c0-1.1-0.1-2.1-0.4-3.2c-4-18-11.1-35.2-13.3-53.7c-0.9-8.1,0.3-15.1,6.1-21.2
		c5.9-6.3,14.9-6.2,20.3,0.5c2.2,2.7,4,5.7,5.9,8.6c8.2,12.4,18.1,23.3,30,32.4c2.2,1.1,3.7,3.3,6.1,4.1c4.5,0.9,8.4,2.6,9.5,7.9
		c0.4,2.2,2.5,3.8,4.6,4.9c1.4,0.8,2.2,0.2,2.4-1.3c-0.1-1-0.5-1.8-0.9-2.7c-1-2-2.1-4.1-2.8-6.2c-1-2-2.2-3.9-3.4-5.8
		c-2.1-2.2-4.2-4.4-5.9-7c-0.9-1.3-2-2.4-3.1-3.5c-2.3-2.2-4.5-4.4-6.4-6.9c-4.7-3.2-8.4-7.7-13.5-10.4c-1.1-0.6-1.7-1.3-1.2-2.2
		c1.1,1.3,2.7,2,4.2,2.8c11.4,6.2,21.1,14.6,27.5,25.9c9.2,16.4,22.4,29.9,31.6,46.3c1.3,2.3,3.2,2.6,3.7-0.9
		C139.6,172,134,156.5,127.4,141.4L127.4,141.4z"/>
	<path class="st33" d="M110.3,149.6c-1.1-1.9-2.9-3.6-3-6c-2-2.3-4.1-4.6-6-7c-1.3-0.7-2.3-1.7-3-3c-1.6-2.7-4.3-4.4-6-7
		c-2.1,0.1-3.1-1.8-4.5-2.8c-3.6-2.5-6.5-5.9-10.6-7.9c-0.9-0.4-2.9-1-2.2-2.7c0.5-1,2.1-0.5,3.2-0.6c6.8,4.1,13.4,8.2,19.5,13.6
		c7.1,6.3,12.3,13.8,17,21.7c4.9,8.3,10.9,15.7,16.5,23.5c3.6,5,8.6,9.2,10.3,15.5c0.6,2.2,0.9,2.1,2.7,0.7c4,6.1,5.6,13.2,8.1,19.9
		c2.7,7.4,7.4,14,8.3,22c0.7,6.7,2.9,13.2,2.7,20.1c-3.6-1.6-3.9-5.4-5.1-8.3c-3.9-9.4-8.9-18.2-13.6-27.2
		c-5.9-11.5-15.3-18.9-27.6-22.8c-0.5-0.1-1,0-1.5,0s-1-0.1-1.4-0.3c-0.9-0.6-1.3-1.3-1.4-2.4c2.1-3.5-2.1-6-1.3-9.3
		c4.3-0.7,8,1.4,11.9,2.5c1.7,0.5,3.2,1.6,5.5,2.1c-3.6-6.6-8.9-11.7-11.8-18.5c-1.1-2.6-2.5-4.9-2.8-7.8c-0.8-0.4-1-1.2-1-2
		C112.5,153.5,111.8,151.3,110.3,149.6z"/>
	<path class="st34" d="M42.4,185.6v-7c1.6-0.3,1.8,1.1,2.4,2c2.8,4.7,4.8,9.9,8.6,13.9c1.6,1.7,0.8,3.8,1.5,5.6
		c0.1,1-0.1,2.1,0.4,2.9c7.5,11.5,9.3,25.2,14.5,37.5c2.2,5.4,3.8,11,7.2,15.9c5.6,8,10.7,10.1,18,6c1.8-1,4.1-1.9,5.6,0.7
		c-0.1,0.7-0.4,1.3-1.1,1.6c-5.6,2.4-10.8,5.5-15.1,9.8c0.7-3.9-2.7-6-4.5-8.4c-3-3.7-5.3-8.6-10.7-9.9c-1.5-0.4-1.9-1.8-2.5-3
		c-0.6-1.3-0.8-3.2-2.9-2.7c-2.4,0.6-1,2.3-0.8,3.6c0.8,6.2,1.5,12.3,1.7,18.6c-4.1-6.6-4.9-14.3-7.6-21.4
		c-3.5-9.3-4.9-19.1-7.3-28.5c-1.8-7.1-4.5-14.4-4.6-22C45.2,195.7,43.9,190.6,42.4,185.6L42.4,185.6z"/>
	<path class="st35" d="M99.3,350.5c2.9-6.2,7.3-11.3,11.4-16.6c6.3-8.2,12.5-16.4,20.1-23.4c1.2-1.1,2.6-3.5,3.8-2.7
		c2.5,1.7,5.7,0.8,7.8,2.3c1.9,1.4,0.1,3.9-0.9,5.3c-4.9,6.9-9.3,14.2-14.1,21.2c-4.7,6.8-7.4,14.5-11.8,21.3
		c-0.6,0.9-1.3,1.8-2.2,2.3c-1.4,0.7-3,0.6-4.5,0.4C105.1,360.1,96.9,355.5,99.3,350.5L99.3,350.5z"/>
	<path class="st36" d="M11.4,41.6c-3.9-4.8-2.6-9.2,3-10.5c4.2-1,7.8-0.2,10.9,2.9c7.9,8.1,17.6,13.7,26.6,20.3
		c7.9,5.7,15.9,11.9,21.5,20.3c-2.1,0.6-3.6,0.1-5.8-1C57.1,68,48.3,60.2,38.5,53.7c-6.8-4.5-15.5-5.9-21.3-12.3
		C16.1,40.2,13.1,38.1,11.4,41.6z"/>
	<path class="st37" d="M84.4,274.7c2.8-7.2,10.1-8.1,15.9-11.2c2.9-2.9,7-3.3,10.4-5.2c7.4-3.1,14.9-5,23-3.8
		c1.1,0.4,2.2,0.9,1.9,2.3c-0.3,1.2-1.2,1.3-2.2,0.8c-12.7,2.4-24.1,8.3-35.8,13.3c-1.8,0.8-3.5,1.7-5.2,2.6c-1.1,2-2.5,3.5-5,2.1
		c-1,0.5-2,0.6-3-0.2L84.4,274.7L84.4,274.7z"/>
	<path class="st38" d="M65.4,439.5c-0.1-1.4,0.4-2.5,1.8-3.1C67.4,437.9,67.5,439.4,65.4,439.5z"/>
	<path class="st39" d="M413.4,227.4c-3.8-0.5-4.8-2.1-2.6-4.7c2.5-2.9,1.1-3.6-1.6-4c-3.7-0.6-7-2-10.2-3.9
		c-0.4-0.3-0.8-0.5-1.3-0.6c-0.4-0.1-2,0.9-2.5,1.1c-0.9,0.3-1.8,0.4-2.8,0.4c-1.9,0.1-3.7-0.3-5.5-0.8c-3.7-1-7.1-3.1-10.7-4.4
		c-2.9-1-5.6-2.1-6.7-5.4c-0.4-1-1.3-1.7-2.3-1.8c-3.6-0.5-5.7-3.1-8.3-5.2c-1.2-0.7-2.4-1.4-3.6-2c-0.6-0.2-1.2-0.4-1.9-0.5
		c-2.6-0.1-4.3-1.7-5.6-3.7c-4.3-2.6-9-4.4-13.6-6.4c-1.4-0.6-2.8-1.2-4.3-1.6c-0.3-0.1-0.5-0.1-0.7-0.1c-1.7,0.1-3.3,0-4.8-1
		c-4.7-3.1-8.9-2.3-13.5,0.9c-3.6,2.5-7.1,5.2-11.5,6.7c-10.6,3.6-21.3,6.9-31.1,12.4c-2.4,1.8-5.4,1-8.1,1.8
		c-3.8,0.8-7.5,1.9-11,3.5c-2,1-3.4,0.8-4.4-1.3c-1.1-0.9-2.1-2.3-3.2,0.2c-1.4,3.2-2.6,6.3-3.4,9.7c-2.9,6.8-2.4,9.5,2.3,14.4
		c1.4,1.4,3,2.5,4.7,3.5c1.4,0.9,2.8,1.8,2,3.9c-2.9,6.4-8.8,10.8-12,17.1c-0.6,2.2-1.5,4.5,2,5.1c8.4-5.1,17.6-8.6,25.7-14
		c2.7-1.8,6.6-3.1,9.4-3.3c5.5-0.4,10.2-2.7,14.8-4.8c9.6-4.4,19-9.4,28.4-14.1c10-5.1,20.9-5.9,31.3-9.1c0.6-0.2,1.4-0.2,1.9,0.1
		c4.3,2.3,10,2.8,10.7,9.5c0.3,2.4,2.3,4.5,1,7.4c-0.6,1.3-0.2,3.5,1.3,3.9c5.2,1.4,9.2,5.1,14,7c1.4,0.6,2.8,0.1,4,0.8
		c1.3,0.7,2.6,1.3,3.8,2.2c0.9,0.7,1.2,1.1,2.5,1.1c3.2-0.1,2.1-2.7,2.3-4.5c0.6-4.5,8.3-10.2,12.4-9.1c6.7,1.7,8.1,4.8,5.2,11.7
		c-1.1,2.5-0.3,5.6,1.7,7.4c0.9,0.9,1.8,1.3,2.7,1.3c1.7,0.1,3.1-1.2,3.9-3.4c0.6-1.7,0.7-3.6,1.2-5.4c0.6-2.5,1.7-4.9,2.4-7.4
		c0.6-2.2,0.7-4.4,1.2-6.7C419.8,227.9,416.2,227.8,413.4,227.4z"/>
	<path class="st40" d="M500.3,241.5c-6.2-0.1-5.7,5.8-7.7,9.1c-3.4,5.9-5.3,12.7-8.5,18.8c-1.8,3.6-4.5,7-7.9,9.3
		c-2.5,1.7-5.5,1.5-7.5-1.4c-6.4-9.3-15.3-16-23.2-23.8c-2.3-2.3,0.7-2.7,0.7-4c13.3-10.4,26.5-20.8,37.9-33.3
		c1.4-1.6,3.4-2.7,5-4.1c2-1.8,3.3-3.5,2.8-6.8c-0.7-4.4,2.5-8,4.9-11.5c7.3-10.8,14-22,20.2-33.4c4.5-8.4,10.2-16.2,14.2-24.7
		c5.9-12.4,14.6-21.9,24.5-30.7c3.6-3.3,3.2-8.3,6.6-11.3c2.9,3.6,4.4,0,5.7-1.4c3.4-3.6,6.8-6.7,12.2-5.6c1.1,2.4-0.1,4.5-1,6.6
		c-3.6,8.1-8.9,15.2-13.3,22.7c-4.8,8.1-9.3,16.4-14.6,24.4c-4.1,6.2-8.3,12.5-12.3,18.7c-9.5,14.7-16,30.7-22.7,46.6
		c-0.9,2.1-2,4.2-3.1,6.3c-0.8,1.5-1.6,2.9-0.6,4.6c0.2,1.6-0.2,3.3-1.3,4.1c-3.8,2.5-4.1,6.5-5.1,10.3
		C505.3,235,502.7,238.2,500.3,241.5L500.3,241.5z"/>
	<path class="st41" d="M506.9,118.8c-9.8,10.7-19.7,21.2-30.7,30.7c-0.4,0.3-0.7,0.7-1.1,1c-5.2,6.7-11.8,12-17.8,17.9
		c-6.8,6.6-13.3,13.5-19.5,20.6c-5.7,6.6-10.5,14.5-17.6,19.8c-1.9,1.5-3.4,3-5.1,4.7c-3.1,2.9-6.1,4.2-10.2,2c-2-1.1-4.2-2-6.6-0.9
		c0,0,2.2,2,2.5,2.2c1,0.6,2.1,1.1,3.2,1.5c2.2,0.8,3.6,0.9,5.7,2.2c0.1,0.1,0.2,0.1,0.2,0.3c0,0.1,0,0.2-0.1,0.3
		c-1,1.7-2.7,2.2-1.9,4.7c0.9,2.7,4.3,3.1,6.8,2.6c0.2,0,0.5-0.1,0.7-0.1c1.2-0.7,2.4-1.3,3-1.8c1.4-1,3.4-3.1,5.2-4.6
		c0.7-1.2,1.5-2.4,2.6-3.3c0.2-0.2,0.3-0.4,0.5-0.7c-0.1,0.3-0.2,0.5-0.4,0.8c2.2-0.1,2.6-2.3,3.7-3.7c4.6-4.7,7.3-11,12.3-15.5
		c1.3-1.2,3.5-1.9,4.3-3.5c1.3-2.5-0.4-6.2,1.5-8c2.6-2.5,5.7-4.6,8.4-7.1c5.1-4.9,9.8-10.3,14.9-15.2c1.7-1.6,4-2.7-0.1-4.2
		c-2-0.8-0.7-2.1,0.2-3.1c2.3-2.7,5.1-4.9,7.6-7.4c4.3-4.2,10.1-6.8,13.3-12.3c0.7-1.2,1.8-2.8,3-3.2c4.3-1.4,6.2-5.6,9.4-8.3
		c2.8-2.3,5.3-6,5.4-10.4C508.3,116.1,507.8,117.8,506.9,118.8z"/>
	<path class="st42" d="M115.3,190.6c4.5-1.4,7.9,1.5,11.4,3.2c13.6,6.6,19.2,19.7,25.8,32.1c4.1,7.7,7,15.9,11,23.6
		c1.1,0.8,0.9,1.9,0.9,3c-5.8-1.5-7.4-6.4-8.8-11.2c-3.8-12.4-11.3-21.6-22.5-28.1c-5.1-3-9.8-6.7-14.6-10.1c-0.6-0.4-1-1.5-2-0.5
		c-5.4-0.2-10-2.8-12.8-6.8c-2-2.9,1.4-5.4,4.2-6.9c1.9,0,3.2,1.1,4.7,2c4.3,2.8,7.7,6.6,11.2,9.3c-1.8-2.1-4.9-3.9-7-6.6
		C116,192.6,114.9,192,115.3,190.6L115.3,190.6z"/>
	<path class="st43" d="M592.3,234.6c-3.1,10.7-7.2,21-10.5,31.6c-1.6,4.9-1.5,10.4-1.8,15.6c-0.1,1.7-0.7,2.7-1.7,3.8
		c-2.5,0.1-3.9-1.7-5.2-3.2c-2.8-3.2-6.1-5.6-9.6-7.7c-1.6-1.2-3.7-0.6-5.4-1.3c-0.5-0.2-0.9-0.5-1.2-0.9c-1.7-3.7,0.3-6.9,1.8-9.9
		c4.2-8.7,7-17.9,10.9-26.7C576.9,231.6,584.4,230.4,592.3,234.6z M512.3,216.6c-2.8-0.5-1.9-2.1-1.1-3.7
		c7.4-15.1,12.9-31.1,21.3-45.6c4.4-7.7,9.3-15.1,14.2-22.6c5.4-8.2,11.6-15.9,15.3-25.2c1.6-4.1,4.4-8.5,7.4-12.1
		c5.3-6.2,8.1-13.5,11-20.9c1.9-1.3,2.7-3.6,4.5-5c1.2-0.9,2.3-2.1,3.5,0c1.4,1.7,3.3,0.8,5,1c0.2,0.7-0.1,1.4-0.8,1.6
		c-6.5,1.3-9,6.5-11.5,11.7c-7.6,15.1-16.2,29.6-25.1,44c-3.9,5-6.3,10.9-9.2,16.5c-4.6,8.8-11,16.7-14.5,26.1
		c-3.5,9.5-9.7,17.4-13.9,26.4c-1.3,1.3-2.8,2.4-3.3,4.2C514.2,214.3,514.7,216.6,512.3,216.6L512.3,216.6z"/>
	<path class="st44" d="M580.3,95.5c1.9-6.8,5.8-11.6,13-13c10.6-6.9,20.2,3.7,20.8,13.2c0.4,7.4-1.1,14.9-3.2,22.2
		c-1.2,4-1.1,8.5-2.6,12.5c-2.9,3.9-1.6,9-4,13c-3.7-4.1-2.9-9-2-13.7c1.6-8.7,0.3-17.5,1.4-26.3c0.6-5-3.6-8.4-6.7-11.8
		c-2-2.3-6.9-1.4-9.5,0.7C585.4,94.2,583.7,97,580.3,95.5L580.3,95.5z"/>
	<path class="st45" d="M638.2,306.8c-4.9-2.3-10.5-3.7-15.5-5.3c-3.7-1.2-7.5-2.3-11.4-3c-3.4-0.6-6.8-0.6-10.1-1.6
		c-0.2,0-0.3-0.1-0.4-0.2c-1.1-0.1-2.3-0.5-3.5-1.2c-7.2-1.6-13.7-4.8-19-10.1c-4.6-4-8.4-9-14-11.9c-1.8-1.4-4.2,0.2-6-1h-0.9
		c-3.5-1.9-6.6,0.2-9.9,0.8c-0.5,0.2-1,0.4-1.4,0.7c-1.1,1.1-2.7,2-1.5,3.9c2.2,1.2,4.5,0.8,6.8,0.9c7,0.1,12.9,2,17.3,8
		c2.7,3.8,6.3,6.8,10.7,8.6c5.8,3.7,12.6,4.9,18.9,7c1.1,0.4,2.5,0.2,3.7,0.5c0.9,0.2,1.6,0.7,2.4,1c0.4,0.1,0.8,0.3,1.2,0.4
		c2.7,0.7,5.8,0.9,8.5,1.4c6.5,1.3,12.9,2.7,19.3,4.5c1.8,0.5,3.5,1,5.4,1.1c0.3-1.2,0.5-2.4,0.7-3.6
		C639,307.5,638.6,307.2,638.2,306.8L638.2,306.8z"/>
	<path class="st46" d="M608.3,130.5"/>
	<path class="st43" d="M608.3,130.5c-2.7,0.3-2.7,2.6-3.1,4.2c-0.7,2.8-1.1,5.7-1.8,8.5c-5,18.2-11.7,35.8-19.1,53.2
		c-1.7,3.4-3.2,6.8-4.3,10.5c-1.4,5-0.5,6.4,4.5,6.8h5.7c2-0.1,4.1,0.5,6.1-0.3c5.7-8.3,4.1-18.7,7.7-27.8
		c2.7-6.6,1.2-14.5,2.1-21.8C607.5,152.8,608.8,141.7,608.3,130.5L608.3,130.5z M585.5,214.5c-2.8,0.9-5.9,0.6-8.3,2.7
		c-2,3.8-3.9,7.6-5,11.8c-0.5,1.7-1.5,3.8,1,5.1c4-0.9,7.9-1.9,12-1.6c1.7,0.1,3.6,0.7,5.1-0.8c1.9-5.6,4.7-10.9,4-17.1
		C591.3,213.3,588.4,214.5,585.5,214.5L585.5,214.5z"/>
	<path class="st47" d="M588.3,81.5c-2.1-1.2-2.8,0.7-4.1,1.6c-1.4,1-1.7,3.4-3.9,3.4c8.3-11.6,15.4-24.1,26-34
		c-0.8,4.5-2.9,8.6-5.6,11.9C596.2,69.9,594.3,77.2,588.3,81.5z"/>
	<path class="st48" d="M572.3,233.5c5.8-1.9,11.8-2.3,17.9-1.8c2,2,5.3-0.2,7.5,2.9h-5.4c-7.8-1.6-15.5-1.5-22.9,2
		c-0.5,0.5,0.2,0-0.2,0.4c-1.6,1.8-3.4,3-6,2.4c-0.5-0.1-0.9-0.7-0.8-1.1c0.4-2.6,2.8-3,4.6-3.9
		C568.5,233.6,570.2,232.1,572.3,233.5L572.3,233.5z"/>
	<path class="st49" d="M594.3,214.6c-3,1-6,1.2-9.1,1c0.3-3.3,3.9-0.9,5-2.9c2.1-0.5,4.1,0.6,6.1,0.9
		C596.4,215.6,594.9,214.1,594.3,214.6z"/>
	<path class="st43" d="M544.3,277.5c1.4,0.1,2.8,0.2,4.3,0.2c3.2,0.1,6.4,0,9.5,0.5c3.4,0.5,6.3,1.8,8.1,4.1
		c4,4.9,8.9,8.7,13.2,13.2c-2.3,0.8-2.5,3.1-2.8,4.9c-1.1,5.3-3,9.8-8.2,12.2c-3.6-0.3-5.1-3.3-6.8-5.7c-2.1-3-4.5-5.7-6.8-8.4
		c-3.1-3.8-3.3-3.7-6.1,0.2c-0.4,0.5-0.9,1-1.4,1.3c-1.1,0.1-2.1-0.3-2.6-1c-4.7-6.1-11.5-9-18.3-11.8c-0.8-0.3-1.5-0.7-2-1.4
		c-1.4-1.7-3.3-0.7-5-1c-0.7-2.5,0.6-4.2,2-6v-0.1c0-0.8,4.4-0.5,4.9-0.4c1.6,0.3,3.1,1.1,4.7,1.4c2.7,0.5,5.9-1.6,8.6-2
		C541.2,277.4,542.7,277.4,544.3,277.5L544.3,277.5z"/>
	<path class="st50" d="M568.3,312.5c-4.8-4-7.9-9.5-11.8-14.3c-5.4-6.6-5.9-6.6-9.2,1.3c-0.9,2,0.1,3.6,1,5.2
		c1.4,2.4,2.3,5.1,1.6,7.9c-0.6,2.5-2.4,2.9-4.2,4.1c-3-2.8-5.9-5.7-8.8-8.7c1.5,1.4,3.3,2.2,5.2,2.8c1.1,0.1,2.4,0.7,3.1-0.6
		c0.8-1.5-0.2-2.9-1.2-4c-4.5-4.8-9.3-9.4-15.2-12.5c-1.7-0.8-3.5-2-5.6-1.2c-1.3,0-2.8,0.3-3.9-0.2c-6.7-3.4-13-1.5-19.4,1.2
		c-1.4,0.6-3.1,1.3-3.1,2.8c0,1.9,2.2,1.7,3.5,2.1c10.8,3.3,19.8,9.4,28.2,16.8c5.8,5.1,9.6,11.7,14,17.9c2.3,3.2,4,6.9,3.8,11
		c-0.1,2.2-0.9,2.7-2.7,1.2c-3.6-3.1-7.5-6-10.6-9.7c-6.5-7.6-13.7-14.3-21.1-20.8c-3.6-3.1-7.6-5.9-12.8-8c0.4,1.3,0.4,1.9,0.7,2.2
		c7.7,6.9,13.9,14.9,19.1,23.9c2.4,4.2,3.4,9.3,7.4,12.6c2.1,0.2,3.6,1.5,5.2,2.6c4.3,3.1,8.3,6.3,13.6,8
		c14.5,4.6,25.8-4.8,23.2-19.7c-0.1-0.1-0.1-0.3-0.2-0.4c0.3-1.1,0.6-2.2,0.7-2.5c0.5-1.8,0.9-3.6,1.2-5.4c0.5-3.5,1.4-7,1.8-10.6
		C572,315,571.9,312.5,568.3,312.5L568.3,312.5z"/>
	<path class="st51" d="M549.1,314.6c6.7,4.5,12.6,10.5,21.1,12c1.6,1.1,3.2,2.3,4.9,3.5c-0.6,0.7-4.5,0.5-1,3.1c2.7,2,5.4,4.2,7,7.5
		c-5.4,1.1-8.7-2.7-12.8-4.3c-4.1-3.9-8-8.1-12.9-10.7c-9.4-4.9-15.2-13.5-23.6-20.9c4.8,0.3,6.6,4.5,10.4,4.8
		C544.3,311.6,547.9,311.5,549.1,314.6L549.1,314.6z"/>
	<path class="st52" d="M597.8,474.5c-2.7-3.4-1-7.7-1.5-11.7c0-2.3-0.6-4.2-0.8-6.5c-2.4-5.8-1.9-13-7.2-17.8c0.1-2.8-1.3-4.1-4-4
		c-0.6-1.8-2.7-3.5-1.8-5.5c-16.1-13.6-28-31.7-42.7-46.9c-1.8-2-3.1-6-6.1-5.1c-2.9,0.9,0.4,7.8-2.8,9.3c-5.6-0.9-5.8-9.5-6.6-14
		c-0.6-13.5-16.5-8.8-14.4-0.2c1.3,3.8,4,6.9,5.2,10.6c3,9.1,7.2,17.6,10.9,26.4c0.5,1.3,2.2,3.1,0.4,3.9c-2.5,1.2-2.2-1.8-2.8-3
		c-7.2-9.9-11.1-36.4-27.1-32c-4.1,2.8-12.3,4-12.3,10c1,6.2-2.1,17.4,1.7,21.8c2.5,2.2,11,19.5,4.4,19.3
		c-10.3-0.1,1.1,20.5-2.4,27.4c-1.7,7.1-3.6,14.2-5.9,21.1c-3.1,14.1-16.1,9.1-15.7,25.3c-0.4,15,9.1,0.7,16.4,2.3
		c2.9,1.7,16.4-0.2,18.2-2.4c11.1-12.9,31.1-8,45.6-4.6c1.2,0.1,1.8,1.4,2.4,2.4c8.5,11.8-10,18.4-12.5,28.9
		c-2.1,8-11.3-0.5-23.8,15.3c-9.5,12.7-21,13.9-34.2,19.1c-1.8,0.7-3.6,2.8-5.3,3.8c-2.1,1.3-4.4,2.4-6.7,3.2
		c-1.9,0.7-4.4,0.7-6.1,1.7c-0.7,0.4-1.4,0.9-2,1.5c-5.4,1.2-10.9,4.1-15.7,6.7c-6.2,3.4-10.8,10.5-19.3,8.8
		c2.9,4.6,1.3,8.1-4.4,8.8c-4.1,0.5-5.8,2.5-6.5,6.2c3.9,1,7.8,1.4,11.5-0.8c5.7-3.3,11.8-6,17.2-10c2.5-2,5.5-3.7,9.1-4.6
		c1-0.6,2-1.1,3-1.7c0.1-0.1,0.2-0.1,0.2-0.1c0.4-0.3,0.7-0.5,1.1-0.6c0.6-0.4,1.3-0.8,1.9-1.2c0.3-0.2,0.6-0.4,1-0.6
		c1.4-0.7,3-2,4.5-3.3c0.2-0.1,0.3-0.1,0.5-0.2c9.2-4,17.5-9.6,26.8-13.3c1-0.4,1.7-1,2.1-2c1.3-3.6,5.2-3.1,7.7-4.7
		c7.5-4.5,15.9-7.6,23.3-12.4c8.6-6.5,14.7-16.1,24-22c0.5-0.8,2.6,0,2-2c0-1.5,0.7-2.4,2-3c5.7-1.1,5.5-9.2,10-13
		c4.7-2,1.2-8.2,4.8-9.6c3.1-0.7,6.2,13.5,11.1,11c1-0.6,1.9-1.4,1.4-2.8c-2.9-9.4-2.2-19.7-7.1-28.7c-1-1.8-2-4.2-0.9-6.2
		c3-5.6,1-10.9-0.6-16.3c-0.3-0.9-1-2-0.1-2.7c1-0.8,1.9,0.2,2.4,1c5.8,8.9,15.4,14.1,21.9,22.2c0.7,0.9,1.5,2.5,3.2,1.3
		C597.6,477.4,598.8,476,597.8,474.5z"/>
	<path class="st53" d="M236.3,460.5c4,3,5.9-0.3,6.6-2.9c0.9-3.3,3-3.5,5.4-4c3.1-0.6,2.5,2.2,3.5,3.7c1.2,1.8,1.8,4.7,4.9,4.1
		c3.4-0.6,2.5-3.5,2.4-5.7c0-2.7,0.4-5,3.1-6.2c4.8-1.3,4.7,3.6,7.1,5.5c1.6-1.2,1.3-3.2,2-4.8c1.1-2.7,2.4-5.4,5.7-5.4
		c3.3-0.1,4.7,2.6,5.3,5.1c1.2,4.8,3.1,9.5,3.1,14.5c0,4.3,1,8.2,3.1,11.9c1.2-3.1,1.3-3.1,1-5.7c-0.1-1.3-0.5-2.6-0.1-4
		c0.7-2.6,2.3-4.6,4.9-5.1c2.5-0.5,3.8,1.7,5,3.4c1.3,1.8,1.5,4,2,6.1c0.3,1.2,0.8,2.2,2.3,2.1c1.3-0.2,2-1.1,2.2-2.4
		c0.3-1.8,0-3.6,0.1-5.5c0.2-2.1,0.9-3.9,3.2-4.6c2.4-0.6,5.1-0.6,6.2,1.7c1.6,3.2,3.4,5.2,7.3,5.1c1,0,1.9,1.2,2.6,2.1
		c1.3,1.4,1.8,4.1,4.7,2c1-0.7,1.6,0.5,1.6,1.6c-3.7,4.6-2.4,9.7-1.3,14.7c0.4,1.8,0.9,3.5,0.8,5.4c-0.7,2.9-2.3,5.5-3.6,8.1
		c-1.3,2.8-1.2,4.9-0.2,7.4c2.9,7.5,6.1,14.5,13.7,19c4,2.4,7.7,5.8,9.6,10.5c-1,3.2-3.6,2.4-6,2.4c-4.6-0.8-8.3-3.7-12.6-5.2
		c-1.8-0.8-3.6-1.5-5.6-1.6c-1.8-0.1-3.6-0.3-5.2-1.2c-1.7-1-3.5-1-5.3-0.8c-8.6,1-17.3,0.2-25.7,2.2c-2.1,0.5-3.5-0.3-4.9-1.7
		c-1.6-1.7-3.6-3-5.6-4c-2.9-1.5-5.6-1.5-8.4,0.4c-3.4,2.4-7,4.6-11,5.8c-4.6,1.4-9,1.4-12.9-2.1c-0.4-1.7,0.4-3.2,0.7-4.8
		c0.3-1.7-0.1-3.3-1.4-4.5c-1.6-1.5-2.7,0.1-3.8,0.9c-1.5,1.2-3,1.1-4.5,0c-0.6-0.5-0.9-1.1-1-1.9c3-4.6,5.3-9.7,8.4-14.3
		c1.4-5.6,3.5-11.2-1.6-16.2c-1.8-1.7-1.3-4.4-1.9-6.6c-1.5-6.3-4.1-12.3-5.8-18.5c-0.5-1.8-1.5-3.3-3.4-3.9
		c-1.1-0.4-2.8-0.6-1.9-2.6C233.3,459.2,234.9,459.1,236.3,460.5L236.3,460.5z"/>
	<path class="st54" d="M325.3,470.5c-2.1-1.2-3.5-4.2-6.8-1.4c-1.4,1.2-2.1-0.7-2.2-2.1c-0.1-2.1-0.7-4.1-2.6-5
		c-1.5-0.8-3.3-0.8-4.8,0.1c-2.2,1.2-1.6,3.5-1.5,5.4c0.3,3.2,0.9,6-3.5,7.3c-2.8,0.8-3.2-0.1-3.6-2.2c-0.4-2-0.5-4-1.2-5.8
		c-0.9-2.1-2.4-5-4.7-4.2c-2.4,0.8-5.1,3.2-3.7,6.6c1.6,3.9-0.5,7.3-1.1,10.9c-2.9-4.9-5.6-9.6-5.3-15.6c0.2-5.3-2-10.3-3.4-15.4
		c-0.4-1.5-1.4-3.6-3.7-3.5c-2.4,0.1-3.4,1.9-4.2,3.8c-1.2,2.8-1,6.2-3.5,8.9c-2.8-2.7-2.3-8-7.2-8.7c4.6-3,4.7-8.6,6.5-12.9
		c3.1-7.5,3.3-15.7,1.7-24c-1.3-6.8,1-13.5,1.1-20.3c0-2.2,0.8-4.6,0.6-6.9c-0.5-6.4,2.4-11.9,4.9-17.2c3.1-6.7,3.9-14,7.1-20.6
		c0.9-1.8,1.3-3.8,1.8-5.7c0.4-1.7,1.4-2.9,3-2.9c1.8,0.1,2.2,2,2.2,3.4c-0.2,8.6,1.1,17.2-0.6,25.8c-0.2,0.8-0.2,1.6-0.3,2.5
		c-0.3,12.3-1,24.6-0.9,36.8c0.1,10.2,1.2,20.5,1.9,30.7c0.1,1.2,0.2,2.5,1.6,2.8s1.3-1.2,1.7-2c2.3-3.7,2.6-8.1,3.7-12.2
		c3.7-13.9,9.6-26.8,16.5-39.4c2-3.6,3.9-7.1,6.8-10.1c1.4-1.5,2.8-3.7,2.5-5.8c-0.6-4.9,3.4-7.7,4.6-11.7c0.3-0.9,1.6-1.7,2.5-2.3
		c8.8-4.9,24.3,0.8,26.3,10.4c1.1,5.1-0.7,10.9-3.5,15.6c-3,5-6.3,9.5-11.2,13.5c-7.7,6.3-13.6,14.8-16.6,24.8
		c-1.5,4.9-3.5,9.7-5.1,14.5c-1.4,4.2-1.7,8.5,0.3,12.6c0.7,1.4,1,2.8,0.4,4.3c-0.9,2.3,0.5,3,2.4,3.3c9.9,3.3,10,3.5,3.7,11.3
		C327.2,468.8,326.7,470.2,325.3,470.5L325.3,470.5z"/>
	<path class="st55" d="M484.3,405.5c4.1,5.8,9.3,11.1,9,19c0.8,5.3,0.8,5.3-4.1,5.5c-5.4,0.2-6.3,1-6.8,6.3c-0.3,2.5,0,5-0.9,7.4
		c-0.3,0.9-0.7,1.9-1.8,2.2c-1.4,0.3-2.1-0.7-2.7-1.7c-1.2-2-1.3-4.5-2.6-6.4c-1-1.6-2.1-4.1-4.3-1c-1.2,1.7-2.6,0.9-4,0.5
		c-1.8-0.5-3.4-1.2-4.8-2.5c-1.4-1.2-2.5-2.5-4.1-3.8c-0.3,2.9,2.7,5.8-0.6,8.2c-1,0.2-1.9,0-2.6-0.8c-1-2.3-2.1-4.6-4.5-5.9
		c-4-3.9-8-7.9-12.2-11.7c-5.3-4.8-11.4-7.2-18.5-7c-3.8,0.1-5.8,1.5-5.6,5.4c-2.3,2.1-5.2,1.6-8,1.9c-6.6,2.1-13.1,4.3-19,8.1
		c-2.1,1.4-4.4,2.4-6.3,4.1c-3.3,2-5.7,5-8.9,7.1c-2.3,1.7-4.6,3.5-6.9,5.2c-1.9,1.2-3.7,2.4-5.4,3.9c-0.8,0.6-1.6,1-2.6,1
		c-1.3-0.2-2.4-0.7-1.4-2.3c0.7-1.1,1.8-2,2.8-2.8c7.6-5.8,12.9-13.8,19-21c1.1-0.8,2.8-0.8,3.4-2.3l0.4-0.4
		c4.3,0.1,7.1-1.7,8.1-6.2c0.8-3.5,8.1-8.3,11.2-6.7c2.8,1.4,3.9,0.1,5.5-1.4c9.6-8.9,20.2-16.4,31.3-23.5c8-5.1,15.3-5.5,23.4-1
		c4.7,2.6,8.4,5.3,11.3,10.3C474.1,398,479.8,401.4,484.3,405.5L484.3,405.5z"/>
	<path class="st56" d="M231.3,460.5c5.9,0.9,6.9,5.2,8.2,10.1c1.7,6.3,4.7,12.3,5.1,19c0.1,0.8,1,1.8,1.7,2.3
		c3.3,2.5,3.8,5.9,2.4,9.4c-1,2.7,0.7,5.7-1.5,8.1c-0.1-0.1-0.3-0.3-0.3-0.4c-0.2-12.3-9.7-19.4-16.1-28.2c-5-7-10.8-13.4-16.5-19.9
		c-2.9-3.2-5.8-5.3-10.2-3.5c-0.7-0.8-0.8-1.7-0.8-2.7c0.8-3.4-1.2-5.2-3.8-6.8c-3.7-2.3-7.9-3.6-11.2-6.4c-1.4-1.2-3-2.1-3.9-3.8
		c1.4-6-3.3-7.6-7.1-9.8c-4.3-2.5-8.6-4.8-13.5-6.1c-8.7-3.4-20.2,1.6-25.8,11.2c-7.4,12.5-9.7,26-7.7,40.3c0.3,2,0.5,4,0.4,6
		c-1.2,4.4,0.9,8.4,2,12.5c1.3,4.6,1.5,9.1,0.9,13.8c-0.2,1.3-0.4,2.7-2,3.1c-1.3,0.2-2.2-0.6-3-1.5c-1.5-1.7-3.4-3.5-3.7-5.8
		c-0.7-5.4-4-9.9-4.4-15.6c-0.4-4.9-4.1-9.3-4-14.6c-0.6-6.6,1.1-13.4-1.8-20c-1.1-2.5-0.8-6,1-9.1c2-3.3,2.8-7.1,0.7-10.9
		c-1.1-2.1,0.4-3.4,1-5.1c9.5-13.7,21.5-23.5,39.1-20.6c6.4,1,13.2,4.1,18.8,8.3c2.1,1.6,4.3,3.2,6.8,4.1c0.8,0.3,3.5,4.3,3.2-1
		c-0.1-1.2,1.6-0.6,2.3,0c1.7,1.4,3.2,2.8,4.9,4.3c5.7,3.1,9.5,8.2,13.7,12.8c7.6,8.1,14.3,17.1,23.6,23.4
		C230.6,458.4,231.8,459,231.3,460.5L231.3,460.5z"/>
	<path class="st57" d="M377.3,424.5c-5.9,8.9-13.1,16.6-21.2,23.5c-0.9,0.8-1.7,1.3,0.2,1.5c0.3,1.6-1,2-2,2.6
		c-1.3,0.5-2.7,0.7-4,1.3c-3.5,1.8-6.5,4.4-9.8,6.5c-3.1,6.3-3.5,13-2.4,19.8c0.4,2.3,0.9,4.6-0.6,6.7c-3.4,0-2.2-2.9-2.8-4.6
		c-1.2-3,0.5-7.1-3.3-9.2c-2.5-1.5-2.3,2.2-4.5,1.8c0.2-1.3-1.5-2.3-1.7-3.9c1.1-2.1,1.8-4.2,4-5.9c1.7-1.3,4.1-4.4-1.1-5.3
		c-1.5-0.3-3.1-1.1-3.8-2.8c-1.6-9,4.1-16.1,6.7-24c3.1-9.3,8.8-18,11.3-27.3c2.5-9.2,8-11.6,15.5-13.4c5.3-1.3,9.7,1.4,14.5,2.4
		c2.6,0.5,1.8,2.4,0.2,3.5c-1.2,0.9-2.8,1.2-3.8,2.2c-1.6,1.5-2.1,3.3,1,3.6c1.9,0.2,3.8,0.6,5,2c1.8,2.1,3.7,1.6,5.8,0.9
		c1.7-0.6,3.4-1.7,4.9,0.4c1.3,1.8,0.4,3.2-0.4,5c-1.6,3.2-4.4,5.9-4.6,9.8C379.6,422.8,378.6,423.8,377.3,424.5L377.3,424.5z"/>
	<path class="st58" d="M517.3,208.6c2.6-5.1,5-10.3,8.4-15c4-5.6,5-12.7,8.6-18.5c4.1-6.5,8.1-13.2,11.8-19.9c2.1-3.9,3.8-8,6-11.9
		c0.9-1.5,1.6-2.9,3.1-3.7c3.2,1.6,2.3,3.7,1.1,6.2c-2.1,4.1-5.4,7.4-7.4,11.6c-0.7,1.1-1.5,2.2-2.1,3.4c-1.2,1.6-2.4,3.3-3,5.2
		c-3.4,5.7-5.1,12.1-8.9,17.7c-3.3,4.9-1.5,8.2,4.2,9.6c5.5,1.4,6.8,6,8.1,10.4c1.1,3.5-2.2,5.2-4.4,7.1c-2,1.7-4.5,2.9-6.6,5.3
		c5-1.9,9.5-3.1,14,0.1c0.5,2.9-2,3-3.6,3.7c-7.3,3.4-13,8.8-18.7,14.3c-1,1-1.6,2.1-1.2,3.5c-1.6,2.7-4.9,3.8-6,5.9
		c4.1-3.1,7.6-8.3,13.8-9.8c4.6,0.9,8.6-1.9,13.1-2.2c2.6-0.1,6-1.5,7,1.7c0.9,2.8-1.8,5.2-4.2,6.1c-5.1,1.8-9.5,5.4-15.5,5.1
		c-2.8-0.1-5.4,1.5-6.6,4.4c-3.7,3.3-7.2,7.1-12.9,6.6c-2.2-0.3-4.3,0.3-6.5-1.4c-3.4-2.6-4.5-4.9-1.6-8.6c0.9-1.1,3-2.6,1.6-4.2
		c-1.6-1.9-2.9,0.2-4,1.2c-2.1,1.9-3.2,0.2-4.5-1c0.1-1.3-0.4-2.9,0.8-3.7c3.9-2.6,4.6-7.3,4.8-10.8c0.2-3.7,1.4-4.8,4-6.3
		c1.2-0.7,1.6-2.8,2.4-4.2c1.6-0.9,0.4-3.1,2-4C515.2,211.2,516.4,210,517.3,208.6L517.3,208.6z"/>
	<path class="st59" d="M246.4,233.8c-3.4-1.8-5.6-4.4-7.9-7.3c-3.2-4,0.5-6.7,0.8-9.9c-1.6,0.9-2.9,2.7-5,1
		c-2.2-0.4-4.4-1.9-5.9-3.5c-0.9-1-1.5-2.2-2.4-3.2l-2.7-2.7c-1.8-1.8-3.5-3.7-5.2-5.7c-1.3-1.6-3.1-3.2-3.5-5.2
		c-0.3-1.7-3.6-2-5.2-3.1c-1.9-1.3-5.7-2.7-3.2-6.5c-3.1-1.9-4.9-4.6-7.4-7.2c-2.4-2.5-4.9-4.8-7.5-7.1c-5.2-4.5-10.7-8.8-15.6-13.7
		c-2.1-2.1-4.7-4.5-7.5-5.6c-2.5-1-4.9-1.5-6.8-3.8c-0.4-0.5-0.8-1.1-1.1-1.6c-1.7-2.6-4.3-4.5-6.5-6.7c-2.4-2.4-4.7-5-7-7.5
		c-1.9-2.1-3.8-3.5-5.2-6s-3.9-4.6-6-6.6c-4-3.7-7.9-7.4-11.9-11.1c-1.7-1.6-3.7-4.3-5.8-5.4c-2.4-1.2-0.6,2.5,0.1,3.4
		c7.4,10,12.8,21.2,18.6,32.2c1.3,2.5,4.7,4.4,1.9,8c-0.2,0.3,0.5,1.5,0.9,2.2c5.9,9.5,11.1,19.5,14.9,30.1
		c4.5,12.2,9.2,24.4,13.2,36.8c3.5,11,6.4,22.2,9.1,33.4c2,8.6,3,17.5,5.6,26c3.9,3.7,7.2,8.2,5.7,13.6c-1.3,4.7,1,6.7,3.7,9.2
		c2.3,2.1,4.1,0.9,4.2-1.4c0.3-7.6,7.6-11.5,8.5-19c0.7-5.5,2.7-8.1,6.6-11.5c1.4-1.2,2.2-2.6,2.8-4.1c0.6,1.7,1.2,3.3,2,4.9
		c0.4,0.9,0.9,1.7,1.6,2.3c3,2.5,6.2-2,8.3-3.6c5.2-4,13-5.8,15.9-12c0.9-1.9,1.5-4,2.5-5.8c0.6-1.2,1.4-2.3,2-3.5
		c1.4-2.6,1.5-5.3,2.2-8.1C248.9,235.8,249.4,235.4,246.4,233.8z"/>
	<path class="st60" d="M231.3,460.5c-15.4-10.6-25.8-26.1-39-39c-1.3-3.4-0.9-5.8,3.4-6.1c2.1-0.2,2.6-1.7,2.7-3.5
		c0.2-4.8,3-4.7,5.9-2.7c3.3,2.3,7,3.9,9.2,7.7c1.1,1.8,3.4,3.1,5.4,4.3c6.2,3.5,11.4,8.1,13.5,15c2.4,7.8,6,15.6,3.9,24.2
		C234.7,460.5,233,460.5,231.3,460.5L231.3,460.5z"/>
	<path class="st61" d="M515.3,255.6c4.4-1.7,8.4-4,12-7c2-1.8,4.3-3.2,7-3.7c2.5-0.4,4,0.3,3.2,3.2c-1.3,4.5-0.2,7.5,3.8,10.6
		c3.6,2.8,5.9,7.5,7.6,12c0.6,1.6,0,2.9-1.6,3.7c-0.3,0-0.6,0.1-0.9,0.1c-0.8,0-2.7,1.8-3.6,2.2c-1.2,0.6-2.5,1-3.8,1.3
		c-2.6,0.5-5.4,0.3-7.8-0.6c-5.3-2-11.4-3.7-17.1-4c-5.7-0.4-11.4,0.8-17,1.4c-1,0.1-2,0.9-2.7-0.1c-1-1.4,0.5-2.1,1.2-2.8
		C502.1,266.5,507.9,260,515.3,255.6L515.3,255.6z"/>
	<path class="st35" d="M133.4,257.6c0.5-0.3,1.4-0.5,1.4-0.9c0.2-1.1-0.8-1-1.5-1.2c-2.1-1.2-4.6,0.1-7.1-0.9
		c2.6-4,1.3-8.1,0.1-12.1c-0.5-1.9-0.9-3.8-1.2-5.8c-0.3-1.7-0.5-3.3,1.4-4.2c1.8-0.9,3.2-0.2,4.5,1c1.4,1.2,2.5,2.6,3.8,3.9
		c-2.3-2.8-4.8-5.2-8.2-6.7c-2.1-2.2-5.4-3.2-6.9-6.1c0.3-1.8,0.3-3.6,0.5-5.4c0.2-1.8,0.4-3.8,3-3.5c9.9,5.7,18.3,12.9,24.2,22.8
		c0.7,1.3,1.4,2.9,0.4,3.7c-3.3,2.7-0.8,4.2,1,5.5c4,3.2,5.3,7.8,6.9,12.2c1.1,2.9-1.2,5.6-3.6,4.5c-5-2.3-10.2-3.4-15.6-4.2
		C135.3,259.9,133.4,259.7,133.4,257.6L133.4,257.6z"/>
	<path class="st62" d="M108.4,189.5c-5.5,4.3-5.4,6.2,0.3,9c2.6,1.3,5.1,2.7,7.6,4v8c-4.2,0.9-7.4-1.8-10.8-3.4
		c-1.6-0.7-2.8-2.3-5.8-2.3c3.2,4.7,2.3,10.8,7.7,14c0.3,0.2,0,0.9-0.3,1.3c-5.1,1.5-9.9,1.4-14.2-2.3c-2.7-2.4-6.5-3-9.3-5.3
		c-1.6-3.7-0.8-7.7-2-11.6c-1-3-1.3-6-4.9-7.2c-0.7-0.2-0.5-1.1-0.2-1.8c9.7-8.9,18.7-10.8,28.6-6.1
		C106.6,186.6,108.6,187.1,108.4,189.5L108.4,189.5z"/>
	<path class="st63" d="M521.3,278.6c0.3,2.3-1.1,4.1-2,6c-9.4-0.7-18,1.2-25.6,7.3c-6.9,5.6-7,5.5-8.8-3.1
		c-1.2-5.7,2.2-10.1,8.1-10.2C502.4,278.4,511.8,278.5,521.3,278.6L521.3,278.6z"/>
	<path class="st64" d="M549.1,314.6c-2.6-1.3-5.3-2.4-6.9-5.1c0.6,0.2,1.4,0.8,1.8,0.6c1.5-0.8,0.2-1.8-0.2-2.3
		c-4.8-5.2-9.7-10.1-16.1-13.3c-1.5-0.7-3-1.4-4.5-2c-1.5-1.7-6.3-0.5-4.1-5.3c1.2-2.6,3.3-1.4,5.1-1.7c7.7,2,14.9,4.9,20,11.4
		c0.8,1,2,1.7,3,2.6c0.8,3.6,3.7,6.3,4.3,10.3C551.9,312.6,550.8,313.5,549.1,314.6L549.1,314.6z"/>
	<path class="st65" d="M525.3,274.5c1.4,0.3,2.9,0.5,4.3,0.9c5.7,1.9,11.3,2.6,16.7-0.9l-2.1,3c-2.6,2.5-0.5,3.1,1.5,3.9
		c3.8,1.5,6.8,3.9,8.9,7.3c-4.7,4.2-8.3-0.1-11.3-2c-6.9-4.4-14.2-6.8-22.1-8.2C522.3,276.8,522.7,274.6,525.3,274.5L525.3,274.5z"
		/>
	<path class="st66" d="M87.4,275.7c1.9,0,3.5-1.1,5-2.1c1.7,2.1-2.2,3-1,5C89.9,277.7,88.1,277.4,87.4,275.7z"/>
	<path class="st67" d="M215.3,237.5c0.5-0.6,0.9-1.3,1.9-2.7c0.1,2.7,0.5,4.6-1.9,5.7V237.5z"/>
	<path class="st66" d="M92.3,284.5l-1.7,1.7c-0.8-1.7-0.5-3.2,0.7-4.7C91.4,282.6,91.2,283.8,92.3,284.5z"/>
	<path class="st68" d="M117.3,568.5c-0.6-5-1.7-9.2-8.3-9.5c-2.7-0.1-4.9-3.4-6.9-5.4c-7.3-6.9-15.9-12-23.5-18.4
		c-3-2.5-4.9-6.2-8.8-7.9c-1.5-0.6-1.5-2.4-1.5-4c0-2.8,0.2-5.7,0-8.5c-0.4-4.2,1.4-5.9,5.5-5.4c2.9,0.3,4.6-0.2,4.7-3.9
		c0.1-4.6,2.4-8.8,2.1-13.6c-0.2-2.5,2.6-4.2,4.7-5.4c5.9-3.5,12.9-0.8,15.5,5.5c1.3,3.2,3.1,6.5,6,8.4c6.9,4.7,10.6,12.2,16.5,17.7
		c0.1,0.1,0.1,0.4,0.2,0.4c5.7,2.6,8.6,9,14.9,10.8c0.9-0.4,1.7-0.1,2.3,0.4c11.1,8.7,24.5,13.4,36,21.4c3.8,2.7,7.9,5.1,11.6,7.7
		c6,4.2,12.2,6.6,19.5,6.6c2.2,0.9,5.1-0.3,6.8,2.1c-2.1,3.2-5.2,1.7-8,1.7c-5.9-1.8-11.7,0.1-17.5,0.4c-12.4,2-25,3.2-37.3,5.8
		c-1.1,0.2-2.4-0.1-3.1,1.2c-0.7,1.3-1.7,1.4-3,1.2c-0.7-0.2-1.2-0.7-1.7-1.3c-2.8-3.3-7-3.9-10.7-5.6c-1.6-0.7-3.4-1.2-5.1-1.9
		C124.7,567.8,121.1,567.3,117.3,568.5L117.3,568.5z"/>
	<path class="st69" d="M207.5,566.6c-10.1,1.5-17.4-4.5-24.8-9.6c-11-7.7-22.7-14-34.4-20.3c-3.7-2-6.6-4.9-10-7.2
		c-2.1-5.8-7.1-9.7-9.9-15.2c-2.1-4.1-4.5-8-5.2-12.7c-0.9-5.7-3.6-10.8-5.1-16.4c-1.2-4.5-2.2-9-1.8-13.6c0.8,4.7,4.4,8.6,5.2,13
		c0.8,4.7,2.4,9.2,3.5,13.8c1,4.2,3.3,7,6.1,9.8c2.4-3.2,1-6.8,1.3-10.2c0.3-4-1.6-7.5-2.6-11c-0.8-2.7-0.4-5-0.4-7.4
		c0.5-0.3,0.9-0.3,1.4,0.1c2.5,3.2,2.6,7.1,3.6,10.8c2.9,11.4,7.4,22.1,14.5,31.5c9.3,9.6,18.9,18.8,32.1,23.1
		c5.2,2.4,10.9,2.5,16.4,3.2c5.2,0.2,10.1-1.2,15.1-2.5c1.8,0.1,4.1-0.9,3.7,2.7c-0.4,3.1,1.4,4.2,4.5,2.8c2.7-1.2,5-3.1,7.3-5
		c3.2-2.8,6.8-5.2,10.9-6.5c3.6,0,4.6,1.8,3.5,5.1c-0.9,2.7-1.3,5.8-4.3,7.3c-4.9,2.2-8.8,5.7-12,10c-2,2.8-4.5,4.8-7.9,5.4
		C214.7,567.3,211.1,567.1,207.5,566.6L207.5,566.6z"/>
	<path class="st70" d="M127.3,578.9c-2.8-0.1-3.7-1.3-3.2-4.1s2-4.7,4.2-6.3c-3.7-1.6-7.3-4.3-11,0l0,0c-2.5,4-5.8,6.5-10.2,7.1
		c-9.3-2.4-16.9-7.3-22.5-15.2c-2.7-3.8-3.9-3.5-6.6,0.6c-1.7,2.6-2.3,5.4-2.6,8.4c-0.1,0.8,12.7,3.9,22,6.1c2.2,0.5,4.2,1,5.8,1.3
		c0.1,0.2,0.2,0.5,0.2,0.7c5.7,1.3,11.5,2.6,17.2,3.9c0.5,1.1,1.5,1.7,2.3,2.5c1.3,1.2,2.7,1.9,4.5,1c1-1.5,3-2.3,3-4.5
		C129.6,579.5,128.5,579.2,127.3,578.9z"/>
	<path class="st71" d="M137.5,524.8L137.5,524.8c-8.4-9.5-12.7-21-15.9-32.9c-1.8-6.8-5-13.5-3.8-20.9c-0.1-6.8,0.7-13.6-1.7-20.2
		c-0.7-1.9-0.6-4.2,0.3-5.9c3.2-6,2-12.2,1-18.4c0-0.5,0.1-1,0-1.5c-0.4-2.2,1.2-5.6-2.3-6.2c-2.7-0.4-3.9,2-5.3,4.3
		c-2.8,4.8-3,10.4-5.4,15.2c-0.6,1.1-0.3,3.1-2.1,2.6c-1.7-0.5-0.7-2.2-0.5-3.4c1.4-7.2-5-14.9-12.5-15c-6.9,6.1-13.1,13-18.2,20.8
		c-4,6-8.9,10.8-15.1,14.3c-0.8-0.2-1.2,0.4-1.6,0.9c-1.2,0.8-1.4,2.3-1.1,3.1c1.8,5-0.8,8.8-3,12.8c-0.8,1.6-2.8,1.8-3.7,3.2
		c-4.8,7-9.6,14-13.6,21.5c-2.1,3.9-4,8.1-4.6,12.6c-0.2,1.7-0.4,3.6,1,4.7c1.5,1.2,3.1,0,4.6-0.7c4.4-2,7.4-5.7,10.4-9.2
		c1.1-1.3,2.2-2.6,3-3.8c-1,2.5-1.9,5.5-1.7,8.7c-1.3,0-1.6,1.4-2.2,2.2c-0.3,4.4-2.1,8.2-4.3,11.9c-2,8.6-4.4,17.1-0.8,25.9
		c1.8,1.8,3.2,2.4,5.5,0.3c3.6-3.4,5.5-7.9,9.8-12.2c-2,5.8-2.5,10.8-3,15.6c-0.4,0.3-0.8,0.7-1.2,1.2c-1.6,2.2-1.5,4.4,0.1,6.5
		c0.6,0.6,1.2,1.1,1.9,1.4c0.1,0,0.2,0.1,0.2,0.1c0.9,2.1,1.4,4.5,3.4,6.2c5.7,5,11.4,4.8,18.5-1.1c0.7,0.3,1.3,0.4,2,0.1
		c1.9-2.2,1.8-5.3,3.3-7.7c1.6-2.6,3.1-2.8,4.9-0.4c3.8,5.1,8.4,9.2,13.7,12.6c1.3,0.8-0.5,1.2-0.3,1.9c1.3,2.2,3.5,2.2,5.7,2.1
		c2.5-1.1,5.3-1.1,7.9-2.5c3.4-1.8,6.6-3.3,7.5-7.4c0-5.5-2-9.4-7.9-10.3c-1.4-0.2-2.4-1.2-3.4-2.1c-8.5-7.6-18.2-13.8-26.8-21.3
		c-5.2-4.5-12.4-8.2-10.7-17.5c0.7-3.8,1-6.4,5.6-6.2c2.7,0.1,4.3-1.4,4.6-4.2c0.5-4.2,1.9-8.1,2.2-12.3c0.3-4.4,3.1-6.4,7-7.2
		c5.5-1,8.6,0.3,10.4,4.5c1.5,3.6,3.2,7.1,6.2,9.5c4.4,3.4,7.6,7.9,11.3,11.9c3.2,3.4,5.5,7.7,9.8,9.9c2.3,1.2,4.1,2.4,5.5,4.7
		c1.5,2.3,3.7,3.9,6.7,1.9C139.5,527.5,138.6,526,137.5,524.8z"/>
	<path class="st72" d="M42.3,175.6c-5.4-20.2-13.6-39.8-13.9-61.1c-0.1-8,4.9-13.5,10.6-18c4.2-3.3,14.9-1.6,18.3,3.9
		c8.5,13.7,18.5,26.3,30.5,37.1c1.7,1.6,3.4,3.2,5.6,4.1c4,3.2,2.3,6.6,0.2,9.9c-1,1.7-2.6,2.9-4.1,4.2c-2,0-2.4-1.7-2.7-3
		c-3.8-16.8-16.1-23.3-31.4-26.3c-0.9-0.2-1.9-0.1-2.3-0.4c5.2,0.7,10.6,2.4,15.9,4.7c8.4,3.6,14,9.9,16.6,18.7
		c0.3,1.1,0.7,2.2,0.1,3.4c-2.6,2.3-5.6,4.1-8.5,6c-4.3,2.8-7.2,6.9-9.5,11.3c-2.5,4.7-6.6,6.8-11.2,7.3
		C51.7,177.8,46.8,177.6,42.3,175.6L42.3,175.6z"/>
	<path class="st73" d="M42.3,175.6c3.8,0.1,7.5,0.3,11.3,0.7c7.5,0.8,11.8-4.2,15.1-10.3c3.6-6.7,9.9-10.4,16.6-13.3
		c2.3,2.1,4,4.4,3.6,7.8c-1.1,3.1-2.3,6.1-4.7,8.5c-1.7,1.8-2.2,4.2-2.2,6.5c0.1,3.2-2.3,6-1.6,9.2c-0.3,2.3-2.4,2.3-4,3.3
		c-2.7,1.7-2.2,1.6-0.2,3c3.9,2.5,5.1,5,6.1,9.6c0.8,3.7,2,7.2,0.9,11.1c-1.8,1.7-3.7,0.6-5.6,0.3c-8.5-1.6-15.3-6.5-22.3-11.2
		c-0.4-0.3-0.8-0.6-1.1-1l-12-21C42.4,177.6,42.3,176.6,42.3,175.6z"/>
	<path class="st74" d="M80.2,184.5c-0.6-0.4-2.7,0.5-1.6-1c1.6-2.2,1.5-4.6,1.8-7c0.5-3.9,1.1-8.2,4.4-10.4c2.3-1.6,0.1-5.2,3.5-5.5
		c2.7,3.5,4.2,7.9,7,10c-2.7-4-6.8-8.5-6-15c-0.5-2.4,1.9-2.6,2.8-4c1.9-3,3.8-6.3,1.2-10c1.7,1.3,3.4,2.6,5.1,4
		c4,3.6,7,7.5,7.5,13.3c0.7,7.1,0.3,14.7,5.5,20.7c1.4,2.9,6,5.1,1.9,9.2c-1.7,0.5-2.9-0.4-4.1-1.3c-8.2-6.3-17-7.8-26.5-3.3
		C81.9,184.5,81.1,184.6,80.2,184.5z"/>
	<path class="st66" d="M111.4,179.6c-6.6-0.8-4.4-6.8-5.7-10.4c-1.4-3.9-0.8-8.5-1.3-12.7c-0.5-4.4-4.9-6.7-6-10.9
		c4.8,1,9.9,1.4,10.5,8.3c0.1,1.4,1.6,5.5,5.5,3.8c4.5,8.8,9.3,17.3,15.6,25c0.7,0.9,1.9,1.9,1.1,3c-1,1.5-1.9-0.1-2.9-0.6
		C122.7,182.7,117.2,180.7,111.4,179.6L111.4,179.6z M101.3,136.6c2.7,1.7,4.8,4,6,7C104.5,142,102.4,139.7,101.3,136.6z
		 M92.3,126.6c2.4,2,5.3,3.6,6,7C95.9,131.6,93.1,130,92.3,126.6z M110.3,149.6c2.3,1.3,3,3.5,3,6
		C111.7,153.9,110.8,151.9,110.3,149.6z"/>
	<path class="st75" d="M80.2,184.5c9.1-6,19.6-5.6,28.6,1.1c1.5,1.1,3,2.1,4.5,3.1c0.4,0.6,0.7,1.2,1.1,1.8c-0.4,0.9-0.9,1.5-2,1
		c-1.7,0.1-2.5-1.5-3.9-2.1c-6.7-4.8-13.8-7.1-21.6-2.7c-3.5,1.9-6.9,3.9-10.4,5.9c-1.6-0.5-4,1-4.7-1.3s1.9-2.8,3.2-3.7
		C76.5,186.4,78.4,185.5,80.2,184.5L80.2,184.5z"/>
	<path class="st76" d="M112.3,191.6c0.7-0.3,1.4-0.7,2-1c0.3,0,0.6,0,0.9,0.1c3.9,4,8.2,7.6,10.9,12.8
		C121.5,199.5,116.9,195.6,112.3,191.6L112.3,191.6z"/>
	<path class="st77" d="M54.3,199.6h1.1c8.2,7.6,17.5,12.9,28.6,15.2c3.7,0.7,7.9,1.9,8.9,6.7c7.5,3,9.3,11.5,15.3,15.9
		c0.9,0.7,1.5,1.8,1.6,3c1.4,6.4-1.2,12.9,0.5,19.3c-3.2,1.7-6.5,3.3-10.1,3.9c-1.7-1.8-3.4-0.7-5,0.1c-7.9,4-14.3,1.9-19.1-5.7
		c-5.1-8.2-7.5-17.4-10.9-26.3c-2.7-7.2-4.9-14.6-7.5-21.9c-0.7-2-1.4-4.4-3.4-5.4C51.2,202.7,54.5,201.1,54.3,199.6L54.3,199.6z"/>
	<path class="st78" d="M102.2,218.2c1.6,0.8,3.8-0.5,5.1,1.3c0.5,2.1,2.2,2.8,4,3.1c3.1-0.1,5.5,3.5,9,1.9c1.3-1,1.3-2.3,1.1-3.9
		c-0.3-1.9-0.5-4,1.9-5.1c-1.6-2.7-4.7-3.3-7-5c-6.6-1.3-11.5-7.1-18.8-7.7C99.3,208.2,103.6,212.3,102.2,218.2z"/>
	<path class="st78" d="M127.2,233.2c2-0.8,2.7,0.6,3.8,1.5c2.1,1.7,3.5,4.5,7.6,5.6c-3.6-4.8-6.9-8.2-11.1-10.7
		c-6.6-3-13-6.4-20.2-7.8c-0.5-0.2-1-0.3-1.5-0.3c-2-0.1-4.3-0.7-5.5,1.3c-1.2,2.1,0.8,3.7,1.9,5.2c4.6,6.3,9.9,12.1,15.9,17.1
		c0.3,0.3,0.7,0.5,1,0.9c-0.6,0.4-0.9-0.2-1.4-0.3c-3.1-1.3-5.3-4-8.5-5.1c-0.3,6.1-0.7,12.3-1,18.4c0,0.2,1.4,0.4,2.2,0.6
		c7.4-2.5,14.9-4.6,23-4.1c-1.7-1.9-4.2-0.2-6.2-1.4c2.4-1,2.2-2.8,2-4.9c-0.4-4.2-2.8-8-2.5-12.4
		C126.8,235.6,124.7,234.2,127.2,233.2L127.2,233.2z"/>
	<path class="st79" d="M382.9,207.8c5,2,10.4,4.7,15.6,6c0.2,0.7-0.1,1.4-0.7,1.8c-3.5,2.6-13.1,5.7-17.4,3.1
		c-2.2-1.3-1.2-3.2-2.3-5.1c-1.2-2-3.3-2.7-5.4-3.3c-1.9-0.6-4.2-1.5-4.1-4.3c0.1-1.4-1-1.9-1.8-1.9c-4.4,0.1-6.4-3.4-9-5.9
		c2.6-2.7,4.7,0.8,7.1,0.6c1.5,0.6,2.9,1.3,4.4,1.9c1,0.4,1.7,1.3,2.6,1.9c1.1,0.7,2.4,1.3,3.6,1.9
		C377.9,205.7,380.4,206.8,382.9,207.8L382.9,207.8z"/>
	<path class="st49" d="M547.3,274.5c0.9-1.5,1.3-2.9,0-4.5c-3.2-4.2-4.6-9.4-9.9-12.5c-3.6-2.1-2.5-7.2-0.5-11.3
		c-3.8-1.2-6.2,2.7-9.5,2.4c1.3-4.1,4.5-5,8.4-5.4c6.3-0.6,11.9-3,16.7-7.1c0.7-0.6,1.4-1.8,1.2-2.5c-0.3-1.5-2-1.1-3-0.9
		c-3.8,0.8-7.8,0.1-11.3,2.9c-0.9,0.7-3.5-0.7-5.3-1.1c1.1-3.7,4.8-4.5,7.6-5.7c9.7-4.2,19-9.3,29.5-11.6c2.1-0.5,4.2-1.4,6,0.5
		c-0.5,5.7-4.7,10.1-5,15.9l-9.6,4.2c2.7,1.2,4.5-0.7,6.6-1.1c0.5,1.2,1.3,2.3,0.5,3.7c-5.1,7.9-6.5,17.5-11.2,25.5
		c-1.2,2.1-1.5,4.3-1.3,6.7C553.9,273.2,550.6,273.8,547.3,274.5L547.3,274.5z M564.3,273.6c-2-0.4-4.2,0.6-6-1
		C560.2,272.8,562.5,271.7,564.3,273.6z"/>
	<path class="st80" d="M548.3,157.6c-0.2-5.1,4.7-7.4,6.5-11.5c1-2.4,2.4-4.1,0.5-6.5c4.4-7.8,8.5-15.8,13.4-23.4
		c4.3-6.7,7.2-14.1,11.6-20.6c2.2-0.1,4.4-1.4,5-2.8c2.8-5.7,7.5-3.2,11.6-3.1c0.5,0,1.3,0.1,1.4,0.3c2.5,5.8,9.2,10.1,6.7,17.7
		c-0.8,2.5-1,4.9-0.7,7.4c0.9,7.6-1.7,15.1-1,22.6c0.2,2,0.6,3.9,1,5.9c-0.4,5.8-2.8,11.2-4.5,16.6c-3.9,11.8-8.6,23.4-13,35.1
		c-0.2,0.5-0.9,0.9-1.4,1.3c-0.5,0.4,0.2,0-0.4,0.3c-8,3.9-15.9,8.1-23.4,12.9c-1.5,1-9.2-2.5-10-4.2c-0.7-1.4,0.3-2.2,1.2-2.9
		c2-1.5,4.3-2.6,6.4-3.9c3.6-2.1,4.5-5.1,3.3-8.9c-1.3-4.2-5.5-7.5-8.9-7.5c-3.1,0-7,3.1-9.1-2c-0.2-0.5-1.1,0.4-1.6,0.7
		c-1.2,0.7-2.4,1.6-3.6,0.4c-1.1-1.1-0.9-2.5-0.2-3.7c2.1-3.8,2.2-8.3,4.2-12.2c-0.2-2.4,1-4,3-5
		C547.1,159.7,547.3,158.3,548.3,157.6L548.3,157.6z"/>
	<path class="st81" d="M543.3,165.6c0.2,5.4-2.2,10.3-4.1,15.5c3.2,0.1,4-2.9,6.7-2.8c-1.3,4.8,1.3,4,4.5,3.4
		c8.2-1.5,14,3.8,14,11.9c0,2.5-0.9,4.1-2.9,5.3c-3.1,1.9-6.2,3.8-9.5,5.7c0.4,1.6,2.2,0.6,2.8,1.4c4.8,6.4,9.3,1.7,12.7-1.1
		c5.3-4.4,11.7-5.8,17.8-8.2c-1.3,3.5-2.5,7-3.9,10.5c-1.9,5-1.7,5.3,3.4,5.4c0.8,0,1.6,0.1,2.5,0.1c-0.7,2.2-2.9,2-4.4,2.1
		c-8.6,0.3-16.7,2.5-24.6,5.9c-1.2,0.5-2.5,0.9-3.9,0.7c-2.6-0.6-0.8-4.9-4.2-4.8c-5.4-1.4-10.8-2.4-15.3,2.6
		c-1.5-2.7,0.1-4.1,1.6-5.4c1.4-1.2,3-2.1,4.4-3.2c2.3-1.8,5.6-3,5.4-6.4c-0.3-5.1-4.1-8.8-8.8-9.8c-5.1-1-8.1-6-4.5-10.4
		C537.7,178.4,538.5,171,543.3,165.6z"/>
	<path class="st82" d="M553.3,220.6c7.5-1.7,14.3-5.4,22-6.7c4-0.6,8.2,0.9,12-1.3h2.9c0.5,1,0.8,1.8-0.8,2c-1.4,0.1-3-0.4-4.1,0.9
		c-2.6,0.7-5.3,1.4-7.9,2.1c-6.4,0.4-12.4,2.3-18.1,4.8c-8.4,3.8-17.3,6.7-25,12c-5.8,3.2-10.8,7.5-16.3,11.4
		c2.7-2.8,5.5-5.6,8.2-8.4c0.9-4,4.4-5.7,7.3-7.4c5.7-3.3,11.4-6.7,17.4-9.3C551.7,220.4,552.5,220.1,553.3,220.6L553.3,220.6z"/>
	<path class="st40" d="M517.3,208.6c-0.1,2-1.4,3.1-3,4C514.4,210.5,515.7,209.4,517.3,208.6z"/>
	<path class="st83" d="M423.3,588.5c-14.9-6.8-32.2-5.7-47.4-12.1c-7-4.6-10.6-7.1-16.6,0.6c-2.4,2.6-5.3,4.5-4.9,6.5
		c-0.4,0.2-0.7,0.5-1.2,0.6c-0.7,0.2-1.3-0.1-1.9,0.1c-1.6,0.4-3.3,2-4.8,2.8c-3.4,1.8-7.1,3.2-10.8,4.2c-7.4,2.1-15.2,2.9-22.9,3.1
		c-4.9-0.3-22.4,0.6-18.5,8.4c8.2,3.5,16.9,4.8,25.6,3.7c11.6-0.7,23.1-0.6,34.3-3.8c1.6-0.5,4.3,0.2,6,0.3c2.1,0.2,4.2,0.4,6.3,0.7
		c4.1,0.5,8.2,1.2,12.2,1.7c3.9,0.5,7.6,0.6,11.5,0.5c3.4-0.1,7.2,1.6,10.6,2.3c1.9,1.2,3.9,2.3,6.5,1.4c1.5-1.9,4.9-1.8,5.1-5
		c2.2-2.8,4.9-4.5,8.4-5.6C426.5,597.2,427.3,593,423.3,588.5L423.3,588.5z"/>
	<g>
		<path class="st60" d="M356.3,581.5c4.9-5.3,6.1-11.5,4.5-18.5c-0.2-1.2-0.8-2.4-1.1-3.6c-0.3-1.1-0.1-2.2-0.4-3.2
			c-0.5-1.9-2.2-4.5-3.5-5.8c-3.9-3.6-7.7-7.3-11.5-10.9c-4.2-1.1-7.6-4.3-11.9-5c-1.7-0.7-3.6-0.6-5-2c-1.7-0.3-3.6,0.6-5-1
			c-7.3-1.2-12.9,2.2-13.8,8.3c-1.4,9.4-3.9,12.1-13.2,14.4c-1.6,0.4-3.4,0.7-4,2.5c-1.7,5.3-6,8.3-9.5,12c-1.7,2.7-6,2.8-6.8,6.6
			c1.7,3.3,5.3,4.3,8,6.5c10.4,8.4,21.9,14.1,35.9,12c3.1-0.5,6.2-0.6,9.3-0.3c1,0.2,1.7,2.7,2.6,1.1c1.7-3.1,4.7-2.6,7.2-3.1
			c3.6-0.7,7.4-1.7,10-3.8c3-2.5,5.7-3.3,9.2-2.2C357.8,584,352.6,583.8,356.3,581.5z"/>
		<path class="st60" d="M543.3,496.5c-2.1-0.1-3.8-1-5.6-1.9c-1.8-1-3.6-1.6-5.7-0.6c-2.3,1.1-4.5,0.5-6.8,0c-4.7-1-10.2-2.3-14,0.5
			c-3.8,2.9-10.8,1.6-11.8,8.4c0,0.2-1.2,0.5-1.8,0.4c-5.1-0.6-10.1,3.7-15.3,0.2c-1-0.7-2.6,0.2-3.8,0.8c-2.5,1.4-5.1,2.5-7.5,4
			c-2.9,1.8-3.6,0.5-3.4-2.2c0.1-0.9,0.8-1.8-0.3-2.6c-7.4,5.7-13.8,12.4-20.8,18.5c-8.6,7.4-17.1,14.8-28.6,17.5
			c-6.6,1.5-13.1,3.8-19.5,6.1c-3.5,1.3-6.3,3.7-8,6.9c-0.9,1.7-1.1,3.5-1.8,5.3c-0.7,1.8-2,2.8-3,4.5c-2.6,3.5-5.7,6.5-9.2,9.3
			c-1.9,1.3-3,3.6-1.1,6c8.5,3.8,17.7,4.9,26.7,6.9c7.1,1.6,14.4,2.4,21.3,5.1c4,2,7.8,1.5,11.4-1c1.6-1.2,2-3.3,4-4.3
			c5-2.5,9.7-5.2,14.6-7.8c-0.2-0.1-0.4-0.2-0.6-0.4c0.1,0,0.1,0,0.2,0c4.5-0.4,7.5-2.3,11.7-2.6c4.5-0.4,8.5-3,11.7-6
			c6.5-6,15.5-4.7,22.3-9.6c2.1-1.6,5.6-1.4,7-4.8c0.5-1.1,1.8-2.1,2.9-2.6c2.8-1.2,4.2-3.5,5.9-5.8c3.4-4.6,9.1-6.2,13.4-9.8
			c1-0.8,2.2,0.2,3.3,0.4c2.5,0.5,4.1,0.1,5.5-2.7c2.2-4.4,2.7-9.9,7.8-12.6c4.5-2.3,6.5-6.7,7.9-11.1
			C553.9,503.5,549,496.7,543.3,496.5z"/>
	</g>
	<path class="st84" d="M493.1,424.6c0.5,3.7-0.8,5.6-4.9,5c-4.8-0.7-7.8,0.2-7.4,6.3c0.2,2.8,0.7,6.4-1.8,9.5
		c-2.1-2.4-2.1-5.3-3.1-7.8c-0.8-2.3-2.6-4.6-5.2-4.8c-2.4-0.2-0.9,2.7-1.7,3.6c-5.4,0-8.2-4-11.5-7.1c-0.8-0.7-1.5-2.2-2.8-1.1
		c-0.9,0.8,0,1.8,0.4,2.7c0.9,2.5,2.9,4.8,1,7.7c-1,1.3-0.4,2.6,0.4,3.6c6.3,8.3,6.6,18,6.8,27.7c-0.1,0.5-0.2,1-0.2,1.5
		c-0.2,4-0.6,8-1.9,11.8c-1.6,3-0.7,6.9-3,9.8c-5.1,8-10,15.9-15.8,23.5c-15.6,20.4-48.1,28-72.8,17.2c-6.6-2.9-13.4-5.6-20.1-8.6
		c-2.6,0.9-1.6,2.3-0.3,3.5c1.4,1.4,3.3,2.1,4.7,3.5c2.3,2.2,1.8,4-1.3,4.7c-0.7,0.2-1.6,0-2.2,0.7c-1,3.6-4,1.3-6,2
		c-0.5,2,1.1,2.6,2.1,3.6c4,4.2,8.6,7.7,12,12.4c0.8,0.1,1.6,0.3,2.4,0.5c-0.5,0.1-1.1,0.3-1.6,0.5c-0.7,0.4-3.6-0.8-1.6,1.8
		c1,1.4,1.2,2.9,1.7,4.4c2.2,6.9-0.3,12.8-3.1,18.8c1.5-1.3,3.2-2.5,4.4-4c4.2-5.5,7.8-5.7,12.3-0.6c0.4,0.5,1.5,0.4,2.3,0.6
		c-0.6-3.3,1.2-6,3.7-6.9c4.5-1.6,5.8-5.2,7.2-9l0,0c-0.3-0.3-0.7-0.6-1.1-0.9c-1.2-0.6-2.3-1-3.5-1.4c1.3,0.1,2.6,0.2,3.8,0.2h3
		c-0.1-2.2,2.8-2.3,2.9-4.4c0.3-5.3,4.3-7.2,8.5-8.6c8.2-2.7,16.5-5.2,24.6-8c2.9-1,6.1-1.4,8.6-3.5c3.6-2.9,7.4-5.6,10.7-8.8
		c7.8-7.7,17.1-13.7,23.6-22.7l0,0c1.2-5.5,0.1-12.5,8.4-13.3c0.6-0.1,1.1-1.2,1.6-1.8c4.5-5.2,5.8-11.8,8.2-17.9
		c4.7-12,4.6-23.9,1.6-36.1c-0.7-2.8-0.5-3.8,2.7-3.8C495.2,430.6,495.2,430.4,493.1,424.6z"/>
	<path class="st85" d="M385.1,560.7c-8.6-1.3-17-4.2-25.8-4.2c-7.4-2.1-14.6-0.8-21.9,0.9c-2.2,0.5-4.3,1.2-6.5,1.5
		c8.1-5.5,17.5-4,26.5-4.5c9.3,1.7,18.9,2,27.9,5.2C385.2,559.9,385.2,560.3,385.1,560.7z"/>
	<path class="st86" d="M204.1,457.1c1.1-0.5,1.9-1.3,3-1.8c2.5-1.1,4.9,1.3,6.4,2.9c4.8,5.2,9.7,10.3,13.8,16
		c4.7,6.5,9.6,12.9,14.8,18.9c4.5,5.2,5.5,10.2,5.2,16.3c-0.8,0.1-1.8,0.3-2,1.2c-0.9,4.9-4.3,8.3-7.1,12.1c-0.6,0.4-1.3,0.4-2,0.2
		c-3.3-2.9-2.9,0.3-3.4,2c-0.2,0.4-0.4,0.8-0.8,1c-1.8,0.6-3.7,0.8-4.5,3c-6.3,5.6-13.7,7.4-21.9,7c-2.8-0.2-5.6,0-8.4-0.1
		c-5.2-0.2-10.3-0.8-15.4-2.2c-2.8-1.3-5.5-2.6-8.1-4.3c-9.8-6.2-18.7-13.5-24.6-23.7c-0.8-1.4-1.7-2.8-2.1-4.4
		c-3.6-8.8-6.7-17.7-7.9-27.2c0.9-2.5,0.1-4.8-0.9-7c-0.4-1.8-0.5-3.5,0-5.3c3.6-2.7,11.5-1.9,13.9,1.7c0.8,1.2,2,2.7,3.6,1.6
		c0.4-0.3,0.6-0.7,0.9-1.2c0.9-1.4,2.6-2.2,3.8-3.4c0.8-0.8,1.4-1.5,2.2-2.4c0.5-0.6,1.4-1,2.2-1c2,0.1,4.4,2.2,6,3.2
		c4.2,2.5,9,3.5,13.6,4.6c3.6,0.9,6.3-1.3,7.8-4.7c2.4-0.8,5-1.1,7.5-1.6C201.2,458.2,202.6,457.6,204.1,457.1
		C204,457.2,204,457.2,204.1,457.1L204.1,457.1z"/>
	<path class="st87" d="M322.3,531.5c-7.8,0-11.4,2.9-12.6,10.2c-1.4,8.1-5.9,12.5-14,13.7c-1.5,0.2-3-0.1-3.5,2
		c-1.3,5.6-6,8.5-9.8,12.1c-2.6,0.3-6.9-0.5-9.1-2c-2-1.4-1.7-2.3-1.5-4.7c0.3-3.6-3.6-4.2-6.1-5.6c-3.1-1.7-6.2-3.5-9.4-5.1
		c-1.6-0.8-3.5-2-5-0.4c-4.9,5.3-9.5,2.8-14.1-0.3c3.7-1.7,3-5.9,4.4-8.8c0.9-1.9-1.8-2.1-3.4-2.2c2.1-4.4,5.7-7.1,10-9
		c3.1,2.3,6.5,3.4,10.4,2.3c3.9-1.1,7.3-3.2,10.7-5.3c6.4-4,11.4-3.5,16.5,2.2c2,2.2,3.3,1.6,6,1.5
		C302,531.9,312.1,528.8,322.3,531.5z"/>
	<path class="st88" d="M236.3,522.5c0.6,0.1,1.3,0.2,1.9,0.3c0.3,0.3,0.6,0.6,0.8,1c2.2,1.6,1.6,3.2,0.2,5c-2.2,2.5-5,4.4-7.2,6.8
		c-2.4,2.5-4.9,4.5-7.8,6.4c-1.4,0.9-2.8,1.8-4.1,2.7c-1,0.6-2,1.3-3.1,1.5c-3.2,0.7-6.3,1.8-9.6,2.4c-3.5,0.7-7.4,1.9-11,1.1
		c-2.6-0.6-5.1-1.7-7.7-2.4c-6-1.6-11.4-2-17.1-5c-5.4-2.9-10.2-6.8-14.8-10.9c-3-2.7-5.8-5.8-8.7-8.7c-1.3-2.9-3.3-5.3-4.9-8
		c-0.9-1.4-2.5-3.1-0.4-4.8c1.7-1.4,3.7-1.4,5.5-0.2c3,1.9,5.6,4.2,8,6.7c5.2,5.3,11.2,9.2,17.9,12.3c3.4,1.6,6.3,3.9,10,4.4
		c4.2,0.7,8.4,1.3,12.7,1.7c4.5,0.4,9.3,0,13.8-0.1c6.8-0.1,12.3-3.3,17.5-7.1c1-1.4,2.8-1,4-2C233.4,524.2,233.8,521.8,236.3,522.5
		L236.3,522.5z"/>
	<path class="st89" d="M349.2,525.5c-0.8,3.5,2.7,3.4,4.3,4.6c2.6,1.8,4.2,3.5,2.7,6.7c-1.6,3.6-4,0.4-5.9,0.7
		c-5.4-6.5-13.7-9.7-18.4-16.9c-3.3-5-6.7-10.5-6.4-16.4c0.2-3.4,1.3-8,4.9-10.7c2.7,0.4,2.6,2.9,2.8,4.5c1.1,6.6,4.3,12,8.8,16.8
		c1.4,2.4,3.1,4.6,5.3,6.5C348.4,522.4,350,523.5,349.2,525.5L349.2,525.5z"/>
	<path class="st90" d="M231.3,534.5c2.2-2.1,4.4-4.2,6.8-6.1c1.6-1.4,2-2.8,1-4.7c1.2,0.1,2.3,1,3.6-0.4c1.1-1.2,2.4-4.1,4.6-2
		c1.7,1.7,3.7,3.9,2.3,7c-0.5,1-0.8,2.1-1.2,3.2c-3.3,3-6.6,6-10,9c-5.1,3.6-10.2,7.2-15.3,10.7c-0.9,0.7-1.9,1.3-3,1.8
		c-2.1,0.9-4-0.1-5.5-1.2c-1.6-1.1-0.3-2.7,0.3-3.9c1.3-2.5-1.1-0.8-1.5-1.4c0.9-1.4,2.7-1.2,3.9-2.1
		C222.5,541.9,227.7,539.3,231.3,534.5L231.3,534.5z"/>
	<path class="st91" d="M341.3,515.6c-7.2-5.6-8.1-14.3-10.8-22c-0.4-2.4-0.6-4.9-1.3-7.2c-1.7-5.1-2.2-9.8,2.4-13.7
		c2.6-1.1,4.2-1,3.9,2.6c-0.3,3.9,0.6,7.7,1.8,11.3c0.4,0.3,0.8,0.6,1,1.1c2.3,7.7,4.4,15.5,8.4,22.6
		C343.9,511.1,341.9,512.7,341.3,515.6z"/>
	<path class="st87" d="M332.3,534.5c-1.9,0-4,0.3-5-2C329.1,532.9,330.9,533.1,332.3,534.5z"/>
	<path class="st92" d="M456.2,438.6c2.5,5.7,7.1,10.4,7.6,16.9c0.4,5,1.1,9.9,0.4,14.9c-2.3-1.6-2-3.9-1.8-6.2
		c-0.5,3.6-2.8,5-6.1,5.2c-1.8,0.1-3.6,0.2-5.1,1.3c-3-0.8-2.6-3.6-3.1-5.7c-3.2-12.1-8.6-23-18.1-31.5c-4.7-5.1-10-9.5-15.8-13.3
		c-0.5-0.5-0.9-1.1-1-1.8c-0.9-1-1.7-1.9-2.6-2.9c7.7-5.4,18.8-3.8,27.2,3.9c4.2,3.9,8.3,8,12.4,12c1.4,1.9,3.4,3.5,4.1,6
		C454.7,438.3,455.4,438.5,456.2,438.6z"/>
	<path class="st93" d="M413.3,418.5c0.3,0.3,0.7,0.6,1,0.9c-0.1,2.8,2.9,4.2,3.2,6.9c0.7,3.1,1.3,6.2,1.1,9.4
		c-0.1,1.5,0,3.3-1.2,4.2c-4.2,3.2-5.4,8.2-8,12.3c-3.7,5.7-10,8.2-16.2,10.1c-4.3,1.3-8.9,2.5-13.7,1.8c-4.3-0.6-5.3,0.9-4.9,5.6
		c0.3,3.9-1.2,7-4.8,8.5s-5.9-0.9-7.8-3.7c-3.9-5.7-3.9-5.7-10.7-4c-4.1,1-7.4-0.8-10.6-3.1c-2-2.9-1.7-5.8-0.4-8.8
		c3.6-1.5,6-5.1,9.9-6c0.8,2.7-1.1,3.9-3,5.1c-1.4,0.9-2.8,1.8-3.6,3.4c-0.6,1.1-0.7,2.3,0.5,3.1c1,0.7,2,0.5,2.7-0.4
		c2.5-3.7,7.1-3.3,10.4-5.5c1.8-1.2,3.8-0.2,5.7,0.5c3.4,1.2,6.8,2.1,9.7-1c0.3-0.4,0.9-0.5,1.3-0.7c3.3-1.5,7,2.7,9.4,0.5
		c2.6-2.5,5-3.8,8.6-4c4.5-0.2,5.3-2.1,3.7-6.8c-0.6-1.2-0.8-2.7-1.7-3.8c-0.8-1.3-1-2.7-0.9-4.2c0.3-2.2,1.6-2.7,3.6-3.2
		c5-1.2,9.8-3.1,13.6-6.8c2.9-2.9,2.6-4.1-1.1-6.2c-1.7-0.9-4.5,0-5.1-2.9C407.3,419.6,410.3,419.6,413.3,418.5L413.3,418.5z"/>
	<path class="st94" d="M370.3,439.5c2.9-2.4,5.9-4.8,8.8-7.2c2.5,1.5,5,2.1,8,1.6c1.9-0.3,3.9,0.5,5.6,1.5c0.8,1,1,2.3,1.1,3.5
		c0,6.1-7.5,11-14.9,9.9c-1.8-0.3-3.5-0.8-5.3-1.3C368.3,446.2,367.7,444.7,370.3,439.5L370.3,439.5z"/>
	<path class="st95" d="M393.3,438.5c-0.3-1-0.7-2-1-3c-2.8-2.4-1.3-3.3,1.3-3.9c2.1,0.2,4.3,0.7,5.9-1.4c0.5-0.7,1.2-1.4,0.7-2.2
		c-0.7-1.1-1.8-0.5-2.7-0.4c-2.7,0.5-5.5,0.1-8.2,1.5c-1.3,0.7-2.9,0.8-4-0.7c5.6-4.5,12.7-5.8,19-8.8c2.9,1.5,6.5,1.1,8.8,4.1
		c1.4,1.8,2.1,2-0.1,4.6c-3.8,4.5-9.8,4.6-13.6,8.8c-0.9,1-4.2-2.3-5,1.5C394,439,393.6,439,393.3,438.5L393.3,438.5z"/>
	<path class="st96" d="M393.3,438.5h1c0.2,1.4-0.4,3,1,4c0.8,3.5-1.2,5-4,6.3c-5,2.2-10.6,2.7-15.5,5.4c-7,2.5-13.8,0.2-20.7-1.2
		c-0.7-0.1-1-0.7-0.8-1.5c0.7-0.7,1.4-1.3,2-2c0.7-0.4,1.3-0.7,2-1.1c1.9-1,4.2-1.6,5.1-3.9l6.9-5.1c-0.7,5.8,2.3,8.5,9.9,8.4
		c4-0.1,7.6-1.8,11.1-3.7C393.8,442.8,393.2,440.6,393.3,438.5L393.3,438.5z"/>
	<path class="st97" d="M394.3,432.5c-2.3-0.1-3.5,0.5-2.1,3h-9.9c-2.1,0-2.5-1.9-3.3-3.2c2-1.3,4.1-2.6,6.1-3.9
		c1.1-0.1,2.6,0.3,3.3-0.2c2.7-2,5.7-2,8.7-1.6C397.7,429.2,395.6,430.6,394.3,432.5L394.3,432.5z"/>
	<path class="st98" d="M454.3,437.5c-1.4-2-3.6-3.4-4.1-6C452.5,432.9,454.5,434.4,454.3,437.5z"/>
	<path class="st4" d="M377.3,424.5c0.7-1.3,1-3,3-3C381.7,424.9,379.1,424.3,377.3,424.5z"/>
	<path class="st99" d="M185.3,437.6c3.8,4.3,9.1,6.2,13.9,9c2.8,1.6,7.2,2.9,5.1,7.9c-3.9,6.6-5.1,7-11.8,3.3
		c-2.5-1.4-5.1-2.4-7.5-3.8c-4.7-2.8-9.2-3.8-14.3-0.3c-3.3,2.2-7.4,1.7-10.6-1.2c-4.7-4.1-9.5-7.5-16.1-4.1c-1.7,0.9-2.4-0.5-2.4-2
		c0-1.7,0.4-3.3,0.7-4.9c3.6-5.8,8-10.6,15.4-11.2c2.2-0.2,4.4-0.4,6.2-1.7c5-3.4,9.2-1.1,13.3,1.7
		C180.2,432.3,182.8,434.9,185.3,437.6L185.3,437.6z"/>
	<path class="st100" d="M140.3,473.5c1.6,8.1,3.2,16.3,6.9,23.8c0.7,1.3,1.4,2.6,1.2,4.2c-8.6-3-12.8-10-15.7-18
		c-0.5-1.5-0.3-3.4-2.5-3.9c-0.3,0-0.6-0.1-0.9-0.1c-1-9.2-1.9-18.5,0-27.6c3.1-14.5,9.2-26.9,24.4-32.5c4.1-1.5,7.4-0.1,10.6,2.2
		c0.9,4.2-2.7,4-4.8,4.6c-8,2.5-12.9,8.2-16.8,15.1c-0.3,3-2.1,5.7-1.9,8.8c-0.8,3.8-1.6,7.6-1.6,11.5c0,2,0,4,0.1,6.1
		C140.5,469.4,140,471.5,140.3,473.5z"/>
	<path class="st101" d="M140.3,449.4c-1.6-3.2,1.4-5.3,2-7.9c0.3-0.5,0.6-0.5,0.9,0c0.5,2-0.7,3.9-0.9,6.4c7.3-4.9,12.9-1.7,18,3.2
		c3.4,3.3,7.1,3.4,10.8,0.9c3.6-2.3,6.8-3.5,11-0.9s9.1,4.1,13.2,6.7c3.7,2.3,5.7,2.2,6.6-2.3c0.3-1.6,1.5-0.8,2.4-1c0,1,0,2-0.1,3
		c-3.2,3.9-7.7,3-11.9,3.1c-5,0.1-9.2-2.5-13.6-4.3c-2.8-1.1-5.3-1.2-8.1,0.1c-3.5,1.7-7.6,0.7-11.3,2.4c-1.7,0.8-3.2-1-4-2.9
		c-1.9-4.4-2.7-4.6-6.9-2.2C143.1,456.6,140.9,455.4,140.3,449.4L140.3,449.4z"/>
	<path class="st102" d="M143.3,441.5h-0.9c2.5-8.3,8-13.5,16.2-16.3c2.1-0.7,5.2-0.5,5.8-3.7c5.7,0.3,9.9,3.9,14.7,6.3
		c1.1,0.6,2.6,1.1,3.3,1.9c1.4,1.5,7.1,1.9,2.3,6c-0.2,0.1,0.4,1.2,0.6,1.8c-3.1-0.9-5.2-3.4-7.7-5.2c-4-3.1-7.9-6.4-13.4-2.4
		c-1.4,1-3.4,1.6-5.2,1.5C151.5,431.2,147.5,436.5,143.3,441.5L143.3,441.5z"/>
	<path class="st103" d="M354.3,451.5c6.9,1.7,13.8,3.3,21,2c7.7-0.3,14-4.8,21-7c3,2.9,2.5,6.7-1.2,7.8c-1.6,0.5-3.3,1.4-5.3,0.6
		c-1.9-0.9-3.7,0.5-4.1,1.9c-1.2,4.8-3.6,3.4-6.5,1.8c-1.9-1-4.6-1.4-5.8,0.1c-3.8,4.4-7.8,2.4-11.6,0.8c-2.4-1-3.8-0.8-5.8,0.7
		c-3,2.2-7.7,1.4-9.5,6c-0.5,1.2-2.7-0.2-3.9-1c-1.3-0.8-1.5-2.1-0.9-3.5c0.9-2,2.1-4.1,4.2-4.7c2.4-0.8,3.5-2.3,4.3-4.3
		C351.3,451,352.9,451.6,354.3,451.5L354.3,451.5z"/>
	<path class="st53" d="M340.3,458.5c0.6,2.6-0.9,5.5,0.9,8c-1.3,12.2-2,24.4,5,35.4c2,3.2,3.3,6.9,6.5,9.3c1.7,1.3,1,2.6-0.4,3.6
		c-3.1,0.1-5.4-0.9-6.2-4.2c-5.5-7-7.5-15.4-9-24c0.4-5.9-1.6-11.7-0.7-17.6C337.1,465.2,337.7,461.5,340.3,458.5L340.3,458.5z"/>
	<path class="st43" d="M553.3,220.6c-4.9,2.7-9.6,5.8-14.7,8.1c-4.8,2.2-8.6,5.5-12.4,8.8c-3.3-1.1-0.9-2.4,0-3.3
		c6.6-6.5,13.1-13,22.1-16.2c0.7-0.3,1.3-0.9,2-1.4c1-1.2,2.3-1.5,3.4-0.4C555,217.5,553.9,219.1,553.3,220.6L553.3,220.6z"/>
	<path class="st104" d="M127.5,229.5c-0.5,0.8-1.3,1.1-2.1,0.5c-5.4-4-12.1-4.9-18.1-7.4c1-1.5,2.8,0.1,4-1c3.5-0.5,5.9,2.5,9.1,3
		C122.7,226.2,125.1,227.9,127.5,229.5z"/>
	<path class="st105" d="M111.2,221.6c-1.1,1.4-2.6,0.7-4,1c-2.1,0-5.2-1.1-6.1,0.5c-1.2,2.2,1.8,4,3.1,5.6c4.4,5.8,9.4,11.1,15,15.9
		c1,2.2,0.1,2.7-1.9,2c-3-1.6-6.3-2.8-8.1-6c-4.3-5.3-8.6-10.5-12.8-15.8c-0.8-1-2-1.2-2.7-2s-6.7,1.9-2.2-2.9
		c0.5-0.5-1.6-1.4-2.6-1.9c-5-2.8-10.7-3.3-16-5.2c-7.3-2.7-13-7-17.6-13.1c5.3,1.3,8.6,6.1,13.6,7.9c4.7,1.7,9.3,3.5,14.3,4
		c4.5,2,8.9,3.9,12.9,7.1c3,2.4,7.3,0.6,11.1,1C108.7,220.1,109.6,221.6,111.2,221.6L111.2,221.6z"/>
	<path class="st106" d="M206.2,568.4c2.7-0.2,5.6,0.9,8.2-0.8c2.1-1.1,4.4-0.5,6.6-0.6c2.4,5.6,1,10.1-3.3,11c-4.5-3-8.6-6.6-14-7.7
		c-0.9-0.2-1.8-0.8-1.3-2.1C203.7,568,205,567.8,206.2,568.4L206.2,568.4z"/>
	<path class="st60" d="M224.4,562.6c1.2-1.5,2.2-3.1,3.5-4.4c2.7-2.8,5.5-5.5,9.4-6.6c0.5,0,1.1-0.2,1.5,0c4.9,2.6,9.4,3.5,13.2-2
		c0.8-1.3,2.1-0.1,3.1,0.4c5.2,2.8,10.6,5.4,15.6,8.6c3.1,1.9,4.5,1.8,5.7-1.9c1.2-3.8,10.1-6.8,13.7-5.3c2.2,0.9,2.5,1.8,1.2,3.6
		c-1.7,2.6-3.3,5.4-5,8c-2.2,3.3-4.2,6.7-8.7,2.1c-2-2.1-4.6-0.4-6.4,1.5c-4.1,3.9-8.4,1-12.8,0.5c1.3,3.1,3.9,4.5,6.3,6.3
		c1.7,2,0.3,3.5-1.1,4.7c-3.8,3.4-7.2,7.4-12,9.6c-0.9,0.4-1.9,0.8-2.5,1.7c-4.8,7.2-11.5,6.5-18.6,4.8c-4.7-2.3-8.3-5.8-10.6-10.5
		c-0.6-1.1-1.4-2.4-2.4-3.1c-0.7-0.5-1.8-0.5-1.9-1.7c-0.2-1.8,2.2-0.9,3.2-1.3c1-0.5,1.3-1.5,1.4-2.6c0.1-1.6,0.4-3.2,0.5-4.9
		c0.1-1.6,0.3-3.5-1.6-3.5C221.6,565.7,223.1,564.2,224.4,562.6L224.4,562.6z"/>
	<path class="st107" d="M130.2,479.6c1.9-1.1,2.2-1,3,1.3c1.1,3,2.7,5.9,3.6,8.9c1.8,6.2,8.5,7.1,11.5,11.7
		c5.7,11.8,15.5,19.8,25.9,27.1c-7.1-1.5-12.8-5.4-17.7-10.4c-2.7-2.7-5.6-5.1-8.6-7.6c-1.6-1.3-3-1.2-4.5,0
		c-1.9,1.5-0.2,2.8,0.4,3.9c1.5,2.7,4.2,4.8,4.3,8.2c-9.5-11.2-13.5-24.8-16.8-38.7C131,482.5,130.6,481,130.2,479.6L130.2,479.6z"
		/>
	<path class="st108" d="M180.2,545.6c3-2.5,5.5,0.5,8.2,0.9c4.4,0.6,8.5,0.6,12.5-1.3c1.7-0.8,3.5-0.9,5.3-0.7
		c1.3,0.2,4.6,1,5.8,0.5c-2.6,1.2-5.3,2.1-8.1,2.8c-1.2,0.3-2.4,0.3-3.6,0.5c-0.9,0.1-2.1,1.1-2.9,1
		C191.5,549,185.6,548.5,180.2,545.6z"/>
	<path class="st109" d="M89.3,155.6c1.6,6.8,5.1,12.8,9,18.6c-4.3-3.8-9.1-7.2-10.1-13.5c0.1-3.1-2.9-5-3-8
		c-2.7-12.3-10.7-19.4-22.3-23c-4.1-1.2-8.2-2.3-12.1-3.4c9.7-2.2,30.7,5.4,35.4,21.6C87.1,150.4,87.5,153.3,89.3,155.6z"/>
	<path class="st110" d="M230.3,593.5c1.5,0,2.8-0.5,4.6,0.2c3.4,1.3,7.1,2,10.1-2.1c4-5.3,10.9-7.2,15.3-12.2
		c1.5-1.8,4.8-2.4,3.9-5.9c1.7-1.7,3.7-0.7,5,0.1c2,1.4,4,1.1,6.1,0.8c8.6,5.3,15.1,14.4,26.3,15.2c6.1,6.6,13.6,2.3,20.5,2.8
		c2.1,0.1,4.3-0.9,6.1,1c-6.1,2-12.4,2.4-18.8,1.8c-4.7-0.4-8.8,2-13.3,2.6c-2.1,0.3-1.2,3.1-1.9,4.6c-6.8-1.2-13.5-3-20.6-1.2
		c-3.1,0.8-6.1-0.1-9.4-1.7c-4.2-2.1-9.6-2-14.3-3.1c-4.8-1.2-9.5-0.9-14.3-0.9c-2.4,0-4.7,0-6.4-2
		C229.6,593.1,230,593.1,230.3,593.5L230.3,593.5z"/>
	<path class="st111" d="M230.3,593.5h-2c-0.6,0.5-1.3,0.6-2.1,0.5c-5.6-3.6-5.6-3.6-11.3,0.6c-5.2,3.8-9.1,4.2-12.8,1.2
		c3.8-3.2,8.6-5.1,11.5-9.6c1.4-2.2,2.7-3.1-0.2-4.7c-1-0.5-2.2-1.4-0.6-2.6c1.6-0.7,3-0.5,4.4,0.6c1.6,0,3.1,0.3,3.5,2.1
		C222.2,586.9,226.8,589.8,230.3,593.5L230.3,593.5z"/>
	<path class="st112" d="M346.2,510.6c2,1.4,4,2.7,6,4.1c6.5,2,12.7,4.8,18.7,7.8c12.9,6.4,25.9,6.5,38.9,0.9c6-2.5,12-5,17.5-8.3
		c6.4-4.3,11.4-9.9,15.4-16.5c1.5-2.6,3.1-5.1,5.1-7.2c1.5-1.8,2.7-3.7,4.3-5.4c1.8-1.9,4.1-3.4,6.5-1.9c2.3,1.4,2.4,4.2,1.5,6.6
		c-0.3,0.9-0.4,1.9-1.1,2.7c-5.5,10.9-12.3,20.9-21,29.5c-8.2,8.1-18.3,12.9-29.6,15.5c-16,3.6-31,1-45.5-6.1
		c-4.7-2.3-10-3.3-14-6.9c-2-3.8-6.6-5.6-8-10C340.5,511.5,341.2,508.9,346.2,510.6L346.2,510.6z"/>
	<path class="st113" d="M459.3,493.5c0.1-3,2.4-7-1.1-8.6c-3.9-1.8-5.3,2.8-7.5,5.1c-0.8,0.8-1.5,1.7-2.3,2.6
		c-0.1-0.1-0.3-0.3-0.3-0.4c1.6-7.1,1.5-14.5,3.2-21.6c0.2-1.2,0-3.4,1.8-2.8c5.4,2,7.9-0.9,9.7-6.3c0.6,3.6,1.1,6.3,1.5,8.9
		c-0.6,4.3-0.9,8.7-1.9,13C460.6,486.6,462.4,490.8,459.3,493.5L459.3,493.5z"/>
	<path class="st114" d="M271.7,576.5c-1.4-0.3-2.8-0.6-4.1-1.2c-1.3-0.5-2.5-1.4-3.7-1.9c-1.1-0.4-2-0.6-3-1.4
		c-1.7-1.3-2.8-3.2-3.9-5.1c-1-1.6-2.5-3.1-2.7-5.1c-0.2-1.8,0.5-3.7,2.1-4.6c1.6-0.9,3.6-0.5,5.3,0.2s3.1,1.9,4.8,2.7
		c4.2,1.9,9.2,1.2,13.4-0.8c1.5-0.7,3.1-1.5,4.6-1c1.7,0.6,2.4,2.8,2.2,4.6c-0.3,2.6-2.4,4.9-4.2,6.6c-1.8,1.7-3.4,3.6-5.5,4.9
		c-1,0.6-2,1-3,1.4c-0.8,0.3-1.7,1.1-2.4,1.2c-0.6,0.1-1.7-0.6-2.3-0.9c-1.6-0.8-3.2-1.7-4.6-2.7c-0.3-0.2-0.6-0.4-0.8-0.7
		s-0.3-0.7-0.1-1"/>
	<path class="st115" d="M140.3,449.4c2.5,5.5,2.5,5.5,8.1,2.2c4.2-2.5,7-1.3,7.9,3.5c0.3,1.8,1.2,3.1,2.8,2.7
		c3.2-0.9,7.3-0.2,9.6-1.9c5.3-4,9.7-1.6,14.2,0.7c3.1,1.6,6.9,1.4,9.5,3.9c-0.4,4.6-5.4,7.6-10,5.3c-5.3-2.6-11.9-2.3-15.9-7.6
		c-0.5-0.7-2.1-0.8-2.2-0.3c-0.6,3.7-4.8,4.1-6.3,7.2c-1.8,4-4.4,4.1-6,0.1c-1.7-4.1-4.4-4.7-7.4-3.1c-2.4,1.3-3.4-2.5-5.3-0.6
		C137.4,457.3,138.5,453.3,140.3,449.4L140.3,449.4z"/>
	<path class="st116" d="M197.4,534.7c0.1,0.6,1.7,1.6,0.6,1.7c-6.5,0.3-13.1,0.8-19.5-3.6c1.5-0.2,2.3-0.3,3.1-0.4
		C186.8,533.2,192.1,533.9,197.4,534.7L197.4,534.7z"/>
	<path class="st53" d="M236.3,522.5c-1.3,1-2.7,2-4,3c0.2-1.2-1.4-2.5-0.2-3.6c0.9-0.8,1.4-2.5,2.9-2.2
		C236.4,519.9,235.5,521.7,236.3,522.5L236.3,522.5z M232.3,525.5c-1.1,1.1-2.2,2.1-4,2C228.1,523.7,231,526.3,232.3,525.5z"/>
	<path class="st117" d="M451.2,470.5c0.8,7.6,0.4,15-2.9,22c-5.1,7.2-9.4,15-16.5,20.6c-1.1,0.9-1.9,2.3-3.5,2.5
		c-0.9-2,0.8-3,1.8-4.2c7.6-8.8,12.7-18.9,15.3-30.3c0.7-2.9,1-5.9-1.1-8.5c-0.8-1-0.6-2.2-0.5-3.3c0.4-6.5-1.3-12.3-4.8-17.9
		c-2.9-4.8-5-10.1-8.4-14.6c-0.5-1.4-1.2-2.7-0.4-4.2c8.4,6.4,13.3,15.2,16.8,24.9C448.7,461.7,449.9,466.1,451.2,470.5L451.2,470.5
		z"/>
	<path class="st55" d="M430.3,432.5c0.7,1.2,1.1,2.5,1,4c-3.7-0.2-7.5,0.6-7.7-5.6c-0.1-2.4-5-3.3-7.3-5.4c-0.9-1.1-1.8-2.2-2.7-3.2
		c-1.4-1.4-0.6-2.2,0.7-2.8C420.7,422.6,425.9,427,430.3,432.5z"/>
	<path class="st86" d="M416.3,425.5c3.8-0.6,5.6,3.6,9,3.8c-2.4,6,3.5,5.2,5.9,7.2c6.6,7.3,10.1,16.3,13.7,25.2
		c0.8,2,0.3,4.5,0.2,6.8c-0.1,1.9-1.5,4.1,2,4.2c-0.3,2.2,0.8,4.8,0.2,6.6c-2.4,8.2-4.9,16.4-9.7,23.9c-2.8,4.5-6.7,8-9.3,12.5
		c-15.9,9.1-32.1,17.7-51,10.7c-8.6-3.2-17.7-5.8-25.1-11.7c0.2-0.8,0.9-2.1,0.6-2.3c-8.4-6.5-10.5-16.4-14.1-25.5
		c-0.7-1.9,1.5-3.2,0.7-5.6c-1.3-3.5,1.1-7.5-0.7-11.4c-0.4-0.9,0.9-2.8,2.5-3.4c4.4,2.6,8.5,4.5,13.6,1c2.1-1.5,4.7,0.8,6.2,2.8
		c1,1.3,1.8,2.8,2.6,4.3c1.3,2.7,3.4,4,6,2.6c2.7-1.5,4.5-4,3.6-7.4c-1.3-5.5,0.3-7.7,6.1-7.1c9.9,1.1,18.2-2.6,26.1-8
		c2.8-2,4.3-4.5,4.7-7.6c0.3-1.8,1-3.3,2.4-4.2c6.1-3.5,5.2-8.8,3.9-14.3C416.3,427.5,416.4,426.5,416.3,425.5L416.3,425.5z"/>
	<path class="st95" d="M396.3,446.5c-4.5,3.9-10.7,4.7-15.5,8c-2.1,1.4-3.6-1-5.5-1c2.6-3.6,7.1-2.3,10.4-4c3.5-1.9,8.7-1.4,9.6-6.9
		C396.8,443.5,396.1,445.1,396.3,446.5z"/>
	<path class="st118" d="M394.3,432.5c-0.8-2.9,1.8-4.1,2.9-6c1.4-1,2.9-2,4.4-0.2s0.1,3.1-1,4.3
		C398.9,432.3,397.3,434.7,394.3,432.5L394.3,432.5z"/>
	<path class="st119" d="M333.3,605.5L333.3,605.5c-3.3-2.5-7.1-1.7-10.6-1.1c-9.6,1.5-18.9-0.1-28-2.9c-6.4-1.9-12.9-3-19.6-1.9
		c-2.5,0.4-5,0.8-7.4-0.1c-10.1-4-20.7-5.4-31.5-5.3c-2.4,0-4.6-1.1-6.9-1.1c-1.2,0-2.3,0-3.5-0.1c-4.2-5-4.9-4.9-10-0.6
		c-3.9,3.2-8.1,5.9-13.5,3.1c-5.1-3.8-11.1-5.9-16.9-8.1l2.4-1.6c-1,0.5-2,0.9-2.9,1.4c-2.2-0.8-4.4-1.7-6.6-2.7
		c-0.8,0-1.6,0.2-2.3,0.5c-1.8-1-3.5-2.2-5.3-2.6c-5.1-1.2-10-3.1-15-4.7c-1.5-0.5-3.4-0.6-4.8-1.3c-1.6-0.8-2.7-1.8-4.4-2.1
		c-2.4-0.5-4.5-0.7-6.8-1.7c-3.7-1.6-7.4-3.3-11.4-4.1c-5.1-0.5-4.7,3.7-5.4,6.6c-0.3,1.4-0.9,2.9-0.1,4.2c0.8,1.2,2.5,2.5,3.6,3.5
		c2,1.8,5.9,2.3,8.5,3.1c2.6,0.9,5.1,2.2,7.6,3.4c0.6,0.2,1.3,0.5,1.9,0.7c4.3,0,8.6,1.9,12.9,1.9c1.8,0,3.7,0,5.5,0.1
		c2.9,0.7,5.9,1.5,8.8,2.2c-12.3,7.1-23.7,15.4-34.3,24.9l36.8-24.2c0.4,0.1,0.9,0.2,1.3,0.3c1.4,0.3,2.5,0.9,3.4,1.7
		c0.6,0.6,2.8,0.6,3.7,0.8c1.4,0.3,2.9,0.6,4.3,0.8c2.9,0.5,5.8,1,8.7,1.4c3.4,0.4,6.8,0.3,10.2,0.7c1.7,0.2,3.3,0.5,5,0.9
		c1.6,0.3,3.2,0.3,4.9,0.4c7.5,0.5,15,1.6,22.4,3.2c10.9,0.8,21.8,1.5,32.6,2.7c11.6,1.3,23.3,2.9,34.9,2.6c9.5-0.3,18.7-3,28.1-4
		C333.4,606,333.3,605.8,333.3,605.5z"/>
	<path class="st68" d="M202.5,568.5c-4,0.4-8,0.7-12,1c-3.6,1.3-7.4,1.3-11.1,1.9c-10,1.7-20.1,3.5-30.1,5.2
		c7.6,3.2,15.4,5.6,24,7.9c-0.1,0.1-0.3,0.1-0.4,0.2c0.9,0.1,1.8,0.3,2.7,0.6c0.4,0.1,0.7,0.2,1,0.4c4.8-2.6,10.4-3,15.6-4.3
		c0.5-0.1,1-0.2,1.5-0.4c7.7-1.5,15.7-1.7,23.5-3.4l0.2-0.2C214,571.8,208.2,570.2,202.5,568.5z"/>
	<g>
		<path class="st120" d="M223.1,566c-2.8,0.1-5.5-0.5-8.3-0.1c-4.6,0.7-9.3,1.3-14,1.5c-2.9,0.1-9.3,2.3-12.2,1.4l-0.1-0.1h-0.2
			c-6.7,1-13.5,1.8-20.2,2.9c-6.4,1-12.9,2-19.3,3.3h-0.1c-0.2,0-0.5,0.1-0.7,0.2c-1.1,0.2-2.2,0.5-3.3,0.7
			c-0.4,0.1-0.8,0.2-1.1,0.4c-0.1,0.1-0.2,0.2-0.2,0.3c-5.3,1-10.6,1.9-15.9,3.2c-2.5,0.8-5.3,1.3-7.6,2.7c0,0,0,0.1,0.1,0.1
			c-4.7-0.5-16.6,6.3-20.4,6.9c-4.8,1.2-9.2,3.4-13.2,6.6c11.4-5.1,23.6-8.2,35.3-12.5c0-0.1-0.1-0.1-0.1-0.1c0.3,0,0.6-0.1,0.9-0.3
			c7.3-2.8,15-4.1,22.7-5.7l3.3-0.8h0.9c7.9,1,15.4-1.4,23-2.7c6-1,12.3-0.5,17.9-3.3c0.2-0.5,0.2-0.8,0.1-1c4.2,2.2,8.2,1.8,12-1
			c0.9-0.6,4.3-0.2,5.4-0.2c2.2-0.1,4.3-0.3,6.4-0.7c4.7-0.8,9.4-0.1,14.1,0.3c3.4,1.1,7.1,0,10.5,0.8c-2.8-1.4-5.7-2.2-8.7-2.3
			C227.8,566.1,225.6,565.9,223.1,566L223.1,566z M242.1,569.3c3.1,1.3,6.2,2.5,9.7,2.1C248.6,570.4,245.6,568.8,242.1,569.3z"/>
	</g>
	<path class="st68" d="M202.3,595.5c-8.1-3-16.3-6.1-24-10.1c0.9-2.6,3.4-1.7,5.2-2.4c2.9-1.1,6-1.3,8.8-2.6c6,0.4,11.9-1,17.9-1.5
		c0.9-0.1,1.6-0.2,2.1,0.5c1,0.5,2,1,3,1.6c2.8,1.6,3.4,2.7,0.2,5.1c-3.3,2.6-5.5,6.4-9.6,8.5C204.6,595.4,203.5,595.1,202.3,595.5
		L202.3,595.5z"/>
	<g>
		<path class="st121" d="M232,576.2c-6.5,0.9-13.1,1.2-19.6,1.3c-3.5,0.1-6.9,0.3-10.4,0.8c-1.8,0.3-7.4,2.5-9.3,2.3
			c7.2,1.7,12.5,0.1,19.7-1.1c6.1-1,12.3-1.5,18.5-2c2.9-0.2,5.8-0.5,8.5-1.5C237,575.4,234.5,575.9,232,576.2z M192.4,580.5
			C192.3,580.5,192.3,580.5,192.4,580.5C192.3,580.5,192.3,580.5,192.4,580.5c-5.9,1-11.9,1.3-17,4.9h2.9
			C182.7,582.8,188.3,584,192.4,580.5c0.1,0,0.1,0.1,0.3,0.1C192.6,580.6,192.5,580.5,192.4,580.5z"/>
	</g>
	<path class="st122" d="M242.3,583.3c-1.8-0.5-3.2,0.4-4.7,1.1c-4.9,2.1-9.4,5.1-14.1,7.5c-8.9,4.6-16.7,10.8-24.2,17.3
		c-1.5,2.3-2.8,4.6-3.9,7c5.5-6.8,12.1-12.4,19.5-17.1c4.3-2.7,8.7-4.9,13.3-7c5.1-2.3,9.9-5.3,15.2-7.3
		C243.5,584,242.9,583.6,242.3,583.3z"/>
	<path class="st123" d="M348.1,584.3l4.2,2.1c2.7,0.9,5.3,2.2,7.8,3.5c4,2.1,8.1,3.9,12.1,6.3c3.4,2,6.8,4.1,10.5,5.5
		c3.9,1.5,7.4,2.9,10.5,5.8h0.1c-0.1-0.2-0.3-0.4-0.4-0.7c-3.1-4.5-10-6.5-14.5-9.1c-5.8-3.3-11.5-6.8-17.7-9.5
		c-1-0.4-1.8-1.1-2.5-2c-1.5-0.7-2.9-1.4-4.4-2.2c-3.8-1.9-7.3-4.7-11.8-5C342.3,583,345.8,583.2,348.1,584.3L348.1,584.3z
		 M435.7,587.2c-6.8-2-13.5-4.1-20.3-6.1c-11.3-2.3-22.6-4.5-33.8-6.8c-1.2-0.2-2.3-0.1-3.3,0.6c-0.2,0.3-0.3,0.6-0.4,0.9
		c0.6,0.1,1.2,0.3,1.8,0.5c13.6,0.4,28,4.2,40.7,8.9c2.8,0.6,5.5,1.2,8.3,1.7c7.9,1.7,15.7,3.6,23.4,6
		C446.8,590.9,441.4,588.8,435.7,587.2L435.7,587.2z"/>
	<path class="st85" d="M385.1,577.3c-8.6-1.3-17-4.2-25.8-4.2c-7.4-2.1-14.6-0.8-21.9,0.9c-3.8,0.9-7.5,2.3-11.3,3.1
		c-0.9,0.2-1.7,0.2-2.6,0.4c-2.6,0.4-5.1,1.7-7.8,1.4c3.2-1.6,6.4-3.2,9.7-4.3c2.8-0.9,5.6-1.2,8.5-1.4c2.4-0.1,4.5-1.1,6.9-1.5
		c2.8-0.4,5.6-0.5,8.4-0.6c2.5,0,5.6-0.6,8.1-0.1c9.3,1.7,18.9,2,27.9,5.2C385.2,576.5,385.2,576.9,385.1,577.3L385.1,577.3z"/>
	<path class="st124" d="M207.6,187.1c0.3-0.9-0.3-1.7-0.7-2.6c-6.3-5.5-12-11.7-18.6-16.9c-4.7-4-9.3-8-14-12
		c-1.3-0.7-2.8-1-4.1-1.7c-2-0.9-3.6-2.3-5.1-3.8c-6.6-6.8-13.3-13.5-20.1-20.1c-1-1-1.8-3.6-4.1-1.7c-0.2,2.7,1.9,4.1,3.5,5.7
		c4.1,4.4,9.3,8,12.2,13.1c2,3.5,4.2,5.2,7.6,7c12.8,6.6,22.6,17.2,33.2,26.7c1.3,1.2,1.8,2.9,1.4,4.6c-1.8,8.1-1.6,16.4-2.2,24.6
		c0.1,0.5,0.1,1,0.1,1.5c0,9.2-0.1,18.4,0.2,27.6c0.5,2.3,1.1,4.5,1.4,6.9c0.5,3.8,0.4,7.6,0.8,11.4c0.3,2.6,0.9,5.2,1.4,7.8
		c0.4,1.9,0.6,5.8,1.7,7.3c2.2,3,0.7,7.5,4.5,11c-0.5-6.1-3.4-10.8-3.5-16c-0.3-0.7-0.8-1.4-0.9-2.2c-0.6-3.7-1.1-7.4-1.7-11.1
		c-0.4-2.4,0.3-4,0.7-6.1c-0.4-3.5-1.5-7-1.7-10.6c-0.2-4.2,0-8.4,0.1-12.5c0.2-9.8-0.2-19.7,0-29.5
		C199.8,190.2,203.6,187.5,207.6,187.1L207.6,187.1z"/>
	<path class="st123" d="M491.4,587.3c-0.9-1.6-2.7-2-4.2-2.8c-6.2-2.3-12.1-5.8-19-5.9c-2.7-0.9-5.4-1.9-8.1-2.9
		c-0.5-0.5-1.1-0.9-1.7-1.3c-3.4-0.6-6.6-1.7-9.7-2.9c-18.4-4.7-37-8.1-55.6-11.9c-1.1,0.1-2.3,0.1-3.4-0.1c-0.1,0-0.3,0-0.4-0.1
		c-0.4,0-0.8-0.1-1.2-0.1c-0.8-0.1-1.6-0.2-2.5-0.3c-0.1,0.1-0.2,0.1-0.4,0.2c-0.3,0.5-0.5,0.9-0.4,1.4c12,1,23.7,3.5,35.5,6.5
		c6.3,1.6,12.4,3.8,18.7,5.5c5.1,1.3,10.1,1.8,14.8,3.9c3.6,0.6,7.1,1.4,10.5,2.8l0,0c9,2.3,17.8,5.2,26,9.5c1,0.5,2.4,1.3,3,0.1
		C493.8,588,492.3,587.7,491.4,587.3z"/>
</g>
<g id="Слой_2_1_">
</g>
</svg>
